<svg xmlns="http://www.w3.org/2000/svg" width="350" height="341" viewBox="0 0 350 341">
  <g fill="none" fill-rule="evenodd" transform="translate(1)">
    <path fill="#F4F6F9" fill-rule="nonzero" d="M347.568905,138.70318 C345.971025,110.073498 338.275972,81.0353357 322.411307,56.904947 C314.514522,44.7890537 304.498857,34.1954833 292.844523,25.6321555 C279.929329,16.2190813 264.833569,9.91166078 249.353357,6.14522968 C232.761837,2.10848057 215.563604,0.738869258 198.527562,0.468551237 C181.491519,0.198233216 164.227208,0.612720848 147.20318,1.97031802 C129.115901,3.41201413 111.160777,6.57773852 94.5812721,14.1946996 C82.5021719,19.8524649 71.5342521,27.6282745 62.1971731,37.1537102 C67.4533569,39.3102473 72.3491166,41.7371025 74.4816254,45.5996466 C76.7583039,49.7204947 75.2144876,56.2621908 70.8773852,67.729682 C66.9487633,78.0798587 61.4823322,91.7579505 55.0487633,112.518375 L55.0487633,112.518375 C55.572023,112.447723 56.1039082,112.476253 56.6166078,112.602473 C63.1162544,114.254417 54.7243816,142.499647 50.7537102,153.372438 C48.0385159,160.815194 44.1459364,166.071378 42.7763251,173.418021 C41.8872792,178.223675 41.0583039,184.885512 40.8780919,186.321201 C41.2625442,186.369258 41.6469965,186.417314 42.0194346,186.477385 C43.6855858,192.758018 44.9377467,199.141229 45.7678445,205.585866 C51.3784452,206.360777 57.5477032,217.94841 59.8183746,223.661131 C63.8971731,233.921201 67.195053,244.445583 71.4180212,254.705654 C77.130742,268.569965 84.8858657,286.392933 101.128975,287.498233 C106.682503,287.863258 112.242944,286.897389 117.348057,284.680919 C115.125442,276.577385 115.233569,268.888339 121.799293,263.926502 C117.029682,259.427208 114.951237,250.819081 115.281625,244.283392 C115.575972,238.510601 118.171025,231.668551 123.661484,229.349823 C123.379152,221.75689 123.835689,211.815194 123.835689,204.030035 C124.538516,204.030035 125.241343,204.072085 125.938163,204.084099 L125.727915,202.918728 L124.34629,187.865018 L124.256184,187.726855 C121.987271,187.410575 119.905938,186.294283 118.387279,184.579152 L117.251943,184.933569 C112.974912,184.765371 110.121555,185.75053 106.132862,182.680919 C103.333569,180.524382 101.014841,176.157244 100.245936,172.072438 L98.9123675,171.333569 C92.340636,166.94841 89.2469965,149.407774 99.7833922,148.753004 L101.399293,148.04417 C99.5070671,139.29788 102.726855,134.522261 111.010601,131.524735 C112.812721,130.863958 114.813074,130.173145 116.879505,129.554417 C111.683392,127.15159 105.430035,124.148057 100.594346,120.940283 C96.1070671,117.978799 91.2053004,114.416608 88.129682,110.127562 C85.3844523,106.283039 81.8522968,99.404947 86.8441696,95.6625442 C92.4127208,91.4575972 98.0173145,97.0681979 101.789753,100.215901 C107.460424,104.94947 114.302473,108.343463 120.814134,112.103887 C126.899293,115.624028 134.552297,118.915901 141.112014,122.466078 C153.726855,129.30212 164.365371,133.15265 163.043816,149.762191 C161.95053,163.458304 155.234629,177.893286 156.964664,193.793993 L156.964664,194.016254 C157.691519,193.469611 158.44841,192.892933 159.24735,192.274205 C160.568905,198.215194 161.512014,211.634982 161.512014,211.634982 C169.128975,209.460424 172.060424,219.564311 175.033922,229.566078 L175.232155,229.421908 C178.361837,225.511307 181.515548,221.642756 184.843463,217.888339 C196.857597,204.30636 210.673852,187.853004 218.483039,180.30212 C218.765371,180.734629 219.083746,181.173145 219.414134,181.617668 C222.123322,175.045936 228.196466,160.490813 231.626502,153.678799 C235.921555,145.160777 242.481272,133.284806 248.103887,124.977032 C243.388339,121.090459 225.565371,110.854417 221.072085,107.430389 C237.014841,100.654417 252.026502,96.2392226 267.434629,94.395053 C268.305654,94.2929329 269.236749,94.1968198 270.149823,94.1127208 C268.12078,92.0672998 266.491029,89.6613802 265.34417,87.0183746 C264.695406,85.5466431 266.281272,83.7024735 267.795053,84.7537102 C273.850177,88.9586572 281.611307,86.4416961 288.411307,87.8293286 C293.817668,88.934629 299.067845,93.0975265 298.785512,99.0204947 C298.884789,99.0549062 298.981201,99.0970862 299.073852,99.1466431 C299.670984,99.4705224 300.239675,99.8442908 300.773852,100.263958 C311.045936,106.024735 310.385159,122.15371 307.033216,131.710954 C306.708834,132.616019 306.360424,133.511072 305.987986,134.396113 L305.987986,134.396113 C311.79682,135.915901 316.434276,139.387986 315.509187,146.193993 C314.211661,155.8053 301.692933,156.562191 292.25583,155.00636 L292.442049,155.042403 C290.205571,157.43643 287.513931,159.360197 284.524735,160.70106 C283.861814,160.998658 283.105473,161.009525 282.434276,160.731095 C280.578092,167.597173 278.085159,177.208481 277.430389,181.75583 C276.192933,190.369965 274.366784,204.294346 274.366784,204.294346 L274.198587,205.069258 C274.516961,205.009187 274.835336,204.94311 275.141696,204.871025 C275.141696,204.871025 274.60106,216.080212 276.571378,218.446996 C278.541696,220.813781 286.537102,227.229329 290.141343,230.815548 C294.730742,235.434982 299.031802,241.628269 302.756184,248.236042 C310.677364,243.292354 317.816316,237.194077 323.937102,230.142756 C344.961837,205.507774 349.316961,170.036042 347.568905,138.70318 Z"/>
    <g transform="translate(0 32.438)">
      <path stroke="#333" stroke-linecap="round" stroke-linejoin="round" stroke-width="2" d="M161.481979 179.19682C161.481979 179.19682 160.538869 165.777032 159.217314 159.836042 154.039223 163.818728 150.7053 166.359717 144.842403 168.756537 138.264664 171.441696 131.320495 171.868198 123.817668 171.59788 123.817668 179.407067 123.361131 189.324735 123.643463 196.917668 131.173807 196.831765 138.597071 195.122959 145.407067 191.907774 151.978799 188.808127 159.787986 183.996466 161.481979 179.19682zM208.739576 166.173498C207.9947 170.282332 205.081272 184.477032 212.722261 180.043816 218.477032 176.709894 222.159364 169.285159 227.211307 165.272438 227.878092 173.880565 222.309541 184.675265 226.886926 193.319435 231.181979 201.434982 243.85689 196.527208 250.704947 193.884099 255.510601 192.027915 264.407067 188.591873 269.1947 187.738869M219.612367 148.482686C219.612367 148.482686 227.10318 130.191166 231.626502 121.240636 235.921555 112.722615 242.481272 100.846643 248.103887 92.5388693 243.388339 88.6522968 225.565371 78.4162544 221.072085 74.9922261 237.014841 68.2162544 252.026502 63.8010601 267.434629 61.9568905 280.734276 60.3650177 301.915194 60.6833922 299.025795 80.1402827 297.932509 87.4628975 294.1 95.4763251 290.015194 101.765724 297.980565 99.8915194 317.287279 100.522261 315.485159 113.779859 313.767138 126.466784 292.333922 123.739576 284.560777 120.567845 284.560777 120.567845 278.487633 141.832862 277.40636 149.35371 276.168905 157.967845 274.342756 171.892226 274.342756 171.892226M258.4 103.195406C260.166078 104.937456 265.091873 105.25583 267.410601 104.39682M262.370671 83.2819788C261.643816 84.7657244 260.436396 87.2586572 260.436396 87.2586572M270.558304 85.8469965C269.825442 87.330742 268.624028 89.8236749 268.624028 89.8236749M123.643463 196.917668C118.153004 199.242403 115.557951 206.078445 115.263604 211.851237 114.933216 218.386926 117.011661 226.995053 121.781272 231.494346 113.467491 237.777739 115.503887 248.434276 119.528622 258.772438 123.553357 269.110601 131.891166 286.188693 131.891166 291.895406M161.481979 179.19682C169.85583 176.793993 172.571025 189.264664 175.89894 200.101413 179.226855 210.938163 185.99682 224.772438 193.151237 236.918728 202.642403 253.017668 219.582332 283.773852 244.091166 283.725851 259.036749 283.725851 260.983039 274.769258 257.835336 270.017668 254.687633 265.266078 245.959364 269.026502 250.891166 274.667138 255.822968 280.307774 268.606007 269.765371 272.462544 257.793286"/>
      <path stroke="#333" stroke-linecap="round" stroke-linejoin="round" stroke-width="2" d="M175.20212 196.983746C178.331802 193.073145 181.485512 189.204594 184.813428 185.450177 196.827562 171.868198 210.643816 155.414841 218.453004 147.863958 221.672792 152.735689 227.643816 158.334276 237.675618 164.155124 247.70742 169.975972 263.506007 175.154064 275.117668 172.444876 275.117668 172.444876 274.577032 183.654064 276.54735 186.026855 278.517668 188.399647 286.537102 194.791166 290.141343 198.377385 299.608481 207.904594 307.84417 224.129682 312.115194 236.918728 314.409894 243.802827 316.848763 255.642756 317.845936 262.659011M11.5155477 181.527562C11.5155477 181.527562 8.0975265 159.667845 7.59293286 154.537809 18.9738954 152.660994 30.57139 152.494968 42.0014134 154.04523 43.6675646 160.325862 44.9197255 166.709073 45.7498233 173.15371 51.360424 173.928622 57.529682 185.516254 59.8003534 191.228975 63.8791519 201.489046 67.1770318 212.013428 71.4 222.273498 77.1127208 236.137809 84.8678445 253.960777 101.110954 255.066078 106.664482 255.431102 112.224923 254.465233 117.330035 252.248763"/>
      <path stroke="#333" stroke-linecap="round" stroke-linejoin="round" stroke-width="2" d="M45.7498233 173.15371C34.5226148 173.15371 12.8070671 177.881272 7.59293286 185.071731 2.37879859 192.262191 8.37385159 218.146643 10.7106007 226.682686 15.1378092 242.841696 18.6699647 260.44841 25.3077739 275.754417 29.2484099 284.849117 31.9756184 300.329329 39.0819788 307.171378M23.4756184 119.69682C25.7042403 111.785512 34.1321555 108.181272 41.8872792 103.585866 46.0922261 92.7731449 50.0929329 78.5243816 56.5985866 80.1583039 63.1042403 81.7922261 54.7063604 110.055477 50.735689 120.928269 48.0204947 128.371025 44.1279152 133.627208 42.7583039 140.973852 41.7551237 146.422261 40.8300353 154.159364 40.8300353 154.159364"/>
      <line x1="125.71" x2="124.334" y1="170.487" y2="155.427" stroke="#333" stroke-linecap="round" stroke-linejoin="round" stroke-width="2"/>
      <path stroke="#333" stroke-linecap="round" stroke-linejoin="round" stroke-width="2" d="M127.223675 154.982332C119.216254 157.5053 110.968551 145.136749 118.675618 140.379152M25.1035336 115.660071C25.1035336 115.660071 17.2522968 113.629682 13.5459364 110.854417 8.18763251 106.85371 10.1699647 98.954417 10.6865724 93.0674912 12.8611307 68.2462898 19.2826855 46.9392226 28.8819788 24.2865724 31.6632509 17.7208481 35.1773852 9.3229682 39.640636 3.86254417 44.2240283-1.7540636 50.5674912.0961130742 57.4035336 2.81731449 64.239576 5.5385159 71.7063604 8.13957597 74.4816254 13.1734982 76.7583039 17.2943463 75.2144876 23.8360424 70.8773852 35.3035336 66.9487633 45.6537102 61.4823322 59.3318021 55.0487633 80.0922261"/>
      <path stroke="#333" stroke-linecap="round" stroke-linejoin="round" stroke-width="2" d="M117.239929 152.495406C112.962898 152.327208 110.109541 153.312367 106.120848 150.242756 102.45053 147.419435 99.5911661 140.781625 99.9936396 135.975972 100.540283 129.458304 119.114134 116.585159 122.670318 121.240636M8.24770318 152.579505C5.20212014 138.90742 7.56890459 125.685866 4.6434629 112.434276 2.04240283 100.744523-1.74805654 85.9130742 2.24063604 74.4996466 4.37915194 68.3844523 8.84840989 66.6904594 13.4918728 70.1024735"/>
      <path stroke="#333" stroke-linecap="round" stroke-linejoin="round" stroke-width="2" d="M101.020848 132.533922C99.0084806 123.265018 99.2607774 118.627562 107.220141 113.365371 111.833569 110.313781 122.273852 104.871378 126.971378 106.15689M6.00706714 68.2162544C4.204947 66.2819788 4.87173145 59.319788 6.39151943 56.6946996 8.33780919 53.3127208 14.939576 48.8254417 18.880212 51.4325088M101.579505 116.50106C99.2667845 107.172085 102.438516 102.186219 110.968551 99.0805654 118.315194 96.4134276 128.389046 93.2056537 135.453357 96.5876325M10.2961131 53.1204947C8.28374558 46.170318 13.4798587 37.6042403 22.3102473 38.6434629M98.9003534 138.895406C92.3286219 134.510247 89.2349823 116.969611 99.7713781 116.314841M14.2607774 40.1932862C14.2607774 32.4321555 21.385159 17.1381625 29.2784452 21.7996466"/>
      <path stroke="#333" stroke-linecap="round" stroke-linejoin="round" stroke-width="2" d="M116.99364 97.1823322C111.767491 94.7795053 105.436042 91.7279152 100.552297 88.5021201 96.0650177 85.540636 91.1632509 81.9784452 88.0876325 77.6893993 85.3424028 73.8448763 81.8102473 66.9667845 86.8021201 63.2243816 92.3706714 59.0194346 97.975265 64.6300353 101.747703 67.7777385 107.418375 72.5113074 114.260424 75.9053004 120.772085 79.6657244 126.857244 83.1858657 134.510247 86.4777385 141.069965 90.0279152 153.684806 96.8639576 164.323322 100.714488 163.001767 117.324028 161.908481 131.020141 155.19258 145.455124 156.922615 161.35583M19.4088339 104.715194C22.1360424 76.3318021 30.0773852 54.3219081 39.0819788 27.2840989 40.7579505 22.2501767 45.5095406 11.5035336 49.6363958 8.00141343M298.118728 112.674558C299.001767 112.037809 303.84947 111.977739 303.84947 111.977739"/>
      <path fill="#333" fill-rule="nonzero" d="M282.380212 128.286926C283.056367 128.581428 283.824551 128.581428 284.500707 128.286926 287.489903 126.946063 290.181542 125.022296 292.418021 122.628269 289.732406 122.226304 287.098053 121.535491 284.560777 120.567845 284.560777 120.567845 283.599647 123.835689 282.380212 128.286926zM300.749823 67.8257951C300.215646 67.4061283 299.646956 67.0323599 299.049823 66.7084806 298.957172 66.6589236 298.860761 66.6167436 298.761484 66.5823322 299.043816 60.659364 293.817668 56.4964664 288.387279 55.3911661 281.593286 54.0035336 273.826148 56.5325088 267.771025 52.3155477 266.257244 51.264311 264.671378 53.1084806 265.320141 54.580212 270.257951 65.8674912 282.079859 69.9342756 293.553357 70.8833922 290.808127 74.0491166 289.744876 78.5724382 289.69682 82.8254417 289.618728 89.7095406 291.931449 98.4438163 285.876325 103.591873 284.404594 104.835336 286.188693 107.44841 287.858657 106.385159 290.250265 104.858095 292.475047 103.084309 294.496466 101.092933 298.348572 100.762439 302.228764 101.054519 305.987986 101.957951 306.360424 101.072909 306.708834 100.177856 307.033216 99.2727915 310.373145 89.7155477 311.021908 73.5865724 300.749823 67.8257951z"/>
    </g>
  </g>
</svg>
