<svg xmlns="http://www.w3.org/2000/svg" width="369" height="321" viewBox="0 0 369 321">
  <g fill="none" fill-rule="evenodd" transform="translate(1)">
    <path fill="#F4F6F9" fill-rule="nonzero" d="M310.170648 193.255973L309.373379 193.802048C308.013652 197.471672 307.817065 206.956997 307.817065 206.956997L307.664164 207.617747C308.357679 207.688737 308.996587 207.765188 309.559044 207.847099 309.919454 214.4 310.76587 230.208874 310.76587 230.208874L311.000683 231.508532C314.500497 233.043108 317.249533 235.902105 318.645734 239.459386 319.983834 242.557498 320.70358 245.887252 320.764505 249.261433 327.175427 241.38157 332.232082 233.113993 335.448464 224.759044 339.882594 213.182253 341.078498 197.935836 340.182935 181.477133 331.467577 185.834812 318.90785 189.60273 310.170648 193.255973zM11.047099 233.88942C14.4928328 230.651195 18.1460751 227.56041 21.9303754 224.573379 33.1412969 215.770648 48.0546075 207.350171 58.6375427 198.225256 64.7972696 192.922867 64.9556314 182.208874 68.3085324 174.880546 68.668942 175.049829 69.0457338 175.19727 69.4006826 175.361092L69.4006826 174.640273C69.4006826 162.921502 70.0177474 144.79727 70.6075085 130.222526 69.4279863 130.91058 67.8006826 130.648464 67.331058 128.982935 65.5508532 122.298976 63.7761092 115.511263 62.4491468 108.663481 52.4286689 109.067577 40.262116 105.337884 44.7290102 94.159727 47.1317406 88.152901 53.5645051 85.7392491 60.3631399 84.690785L60.3631399 84.690785C60.5105707 81.4056445 60.8938096 78.1353391 61.5098976 74.9051195 63.0389078 66.9870307 66.1843003 58.6812287 71.7051195 52.6525597 76.2430034 47.6996587 82.9706485 44.9419795 89.359727 46.9023891 91.5931741 43.2109215 94.2197952 39.803413 98.3262799 38.0395904 102.432765 36.2757679 107.292833 36.2484642 111.666894 37.3187713 122.932423 40.0491468 131.467577 50.3863481 143.475768 50.5337884 144.27523 50.5460631 145.009062 50.9787126 145.406838 51.6723003 145.804615 52.3658881 145.807464 53.2177607 145.414334 53.9139932 144.382253 55.6559727 142.585666 56.6443686 140.554266 57.2559727 141.559044 57.7692833 142.558362 58.2880546 143.535836 58.8068259 152.475085 63.5194539 160.311263 69.1822526 168.404096 74.9870307 174.279863 79.2136519 185.982253 88.9447099 185.982253 88.9447099 177.610922 90.4354949 167.918089 92.1556314 160.316724 94.5146758 152.715358 96.8737201 144.589761 99.4293515 144.589761 99.4293515 144.589761 99.4293515 145.714676 128.65529 145.714676 141.504437L145.714676 179.767918C147.12901 179.396587 147.898976 179.292833 147.959044 179.680546 149.051195 189.30785 145.294198 196.172014 153.758362 203.767918 161.982253 211.150853 172.576109 217.796587 182.061433 224.016382 192.982935 231.186348 207.339249 243.473038 214.552901 254.443686 215.879863 256.464164 220.253925 261.411604 224.081911 267.112628 224.240273 266.965188 224.398635 266.812287 224.567918 266.670307 227.77884 263.939932 239.721502 261.209556 247.322867 262.634812 247.628669 261.613652 247.961775 260.668942 248.21843 259.904437 250.883276 251.789761 255.355631 240.333106 261.739249 234.506485 262.949772 233.445133 264.323482 232.585873 265.807509 231.961775L265.807509 231.295563C265.807509 231.295563 266.997952 215.819795 267.576792 208.966553 268.161092 208.851877 268.734471 208.759044 269.302389 208.660751 269.433447 204.887372 269.848464 191.628669 269.083959 188.488737 267.735154 182.432765 263.208191 180.969283 257.632765 178.020478 252.057338 175.071672 247.432082 171.576792 245.105802 166.662116 242.501024 161.157679 248.496928 157.122184 253.843003 159.290102 258.992491 161.38157 264.404096 164.526962 269.799317 166.607509 275.445734 168.791809 284.357679 169.774744 290.375427 169.81843 295.900095 169.927356 301.424491 169.587674 306.894198 168.80273 312.982935 166.367235 326.356314 156.210239 336.720819 152.043686 333.382927 132.763705 328.415866 113.801552 321.873038 95.3610922 308.767235 59.0361775 296.791809 47.8525597 272.027304 26.0095563 247.262799 4.1665529 201.288737-1.02116041 174.580205.344027304 147.871672 1.70921502 120.038225 1.69829352 88.7262799 20.4996587 58.4300341 38.7112628 27.1945392 60.4887372 13.0730375 90.1515358-.851877133 119.404778-.458703072 151.737884 1.55631399 182.667577 2.67030717 199.765188 4.91467577 217.441638 11.047099 233.88942z" transform="translate(6.553)"/>
    <g transform="translate(0 36.041)">
      <path stroke="#333" stroke-linecap="round" stroke-linejoin="round" stroke-width="2" d="M0.0491467577,218.39727 C7.80887372,206.722184 17.4361775,197.204096 28.4832765,188.532423 C39.694198,179.729693 54.6075085,171.309215 65.1904437,162.1843 C71.3501706,156.881911 71.5085324,146.167918 74.8614334,138.83959 C89.3488055,145.441638 109.01843,148.188396 125.990444,148.188396 C142.962457,148.188396 154.386348,142.121502 154.566553,143.650512 C155.658703,153.277816 151.901706,160.14198 160.36587,167.737884 C168.589761,175.120819 179.183618,181.766553 188.668942,187.986348 C199.590444,195.156314 213.946758,207.443003 221.16041,218.413652 C224.376792,223.301024 245.356997,245.280546 233.507167,253.706485 C228.94744,256.94471 226.124232,251.260068 225.359727,247.524915 C224.136519,241.556314 226.539249,234.577474 231.175427,230.640273 C236.040956,226.511945 260.881911,222.378157 260.445051,232.633447 C260.297611,236.062799 256.294881,238.012287 254.143345,235.363823 C251.702389,232.349488 253.832082,226.899659 254.825939,223.863481 C257.490785,215.748805 261.96314,204.29215 268.346758,198.465529 C274.320819,193.004778 287.868942,192.742662 296.049147,193.168601 C306.653925,193.714676 320.125597,191.42116 325.204096,203.412969 C329.430717,213.395222 326.995222,223.142662 321.0157,226.380887 C333.575427,226.380887 335.443003,247.847099 335.443003,283.849829"/>
      <path stroke="#333" stroke-linecap="round" stroke-linejoin="round" stroke-width="2" d="M72.6279863,157.662799 C75.7187713,164.505119 86.4109215,177.780205 94.4327645,178.959727 C100.985666,179.937201 114.708532,168.311263 124.401365,155.014334 C127.20273,163.205461 131.500341,170.47372 135.453925,176.453242 C141.067577,184.950171 150.421843,171.423891 152.791809,164.94198 C152.50785,165.870307 152.103754,166.804096 151.759727,167.748805"/>
      <path stroke="#333" stroke-linecap="round" stroke-linejoin="round" stroke-width="2" d="M122.577474 168.327645C119.770648 187.036177 108.647099 193.589078 104.72628 208.229352 103.12628 214.187031 101.040273 222.662116 108.461433 225.032082 113.774744 226.724915 129.873038 217.387031 123.123549 215.481229 114.419113 215.481229 107.183618 230.558362 105.982253 237.324232 104.748123 244.297611 106.528328 251.827986 108.548805 258.588396M152.764505 226.359044C152.764505 226.359044 180.925597 225.490785 189.679181 223.120819M181.793857 217.610922C184.928328 222.858703 185.616382 236.412287 185.616382 236.412287M173.919454 217.408874C178.550171 226.861433 179.434812 247.825256 179.434812 247.825256M75.9972696 138.582935C75.9972696 116.259386 78.2416382 70.6784983 78.2416382 70.6784983 70.1051195 74.7412969 45.2532423 73.3488055 51.3474403 58.1187713 55.6668942 47.3119454 72.9883959 48.1365188 82.0860068 47.6013652 81.9931741 33.905802 87.78157 17.6109215 101.662799 12.8982935 118.012287 7.33924915 135.519454 15.0443686 150.148805 22.7658703 159.088055 27.4784983 166.924232 33.1412969 175.017065 38.9460751 180.892833 43.1726962 192.595222 52.9037543 192.595222 52.9037543 184.223891 54.3945392 174.531058 56.1146758 166.929693 58.4737201 159.328328 60.8327645 151.20273 63.3883959 151.20273 63.3883959 151.20273 63.3883959 152.327645 92.6143345 152.327645 105.463481L152.327645 142.525597"/>
      <line x1="122.064" x2="122.572" y1="37.734" y2="43.293" stroke="#333" stroke-linecap="round" stroke-linejoin="round" stroke-width="2"/>
      <line x1="134.668" x2="135.175" y1="37.008" y2="42.567" stroke="#333" stroke-linecap="round" stroke-linejoin="round" stroke-width="2"/>
      <path stroke="#333" stroke-linecap="round" stroke-linejoin="round" stroke-width="2" d="M62.531058 60.0191126C66.2662116 59.9044369 68.6416382 60.3139932 71.5085324 62.2634812M123.123549 66.8341297C125.30557 69.1302009 128.380411 70.3605359 131.544027 70.203413M275.877133 172.521502C275.877133 172.521502 276.548805 156.095563 275.691468 152.425939 274.288055 146.391809 269.761092 144.928328 264.185666 141.979522 258.610239 139.030717 253.984983 135.535836 251.658703 130.62116 249.053925 125.116724 255.049829 121.081229 260.395904 123.249147 265.545392 125.340614 270.956997 128.486007 276.352218 130.566553 281.998635 132.750853 290.91058 133.733788 296.928328 133.777474 314.539249 133.913993 323.019795 131.48942 338.926962 124.554266 344.666086 122.057177 350.54006 119.882238 356.521502 118.03959 365.209556 115.467577 371.194539 119.530375 363.074403 127.284642M314.359044 170.888737C314.359044 170.888737 314.009556 161.949488 315.369283 158.279863"/>
      <path stroke="#333" stroke-linecap="round" stroke-linejoin="round" stroke-width="2" d="M312.447782,159.164505 C321.927645,154.342662 340.455973,149.493515 350.350853,143.4157 C352.354949,142.187031 360.256655,137.059386 356.805461,134.006826 C354.855973,132.281229 349.881229,135.677816 344.627986,137.720137 C339.374744,139.762457 333.984983,141.881229 333.984983,141.881229"/>
      <path stroke="#333" stroke-linecap="round" stroke-linejoin="round" stroke-width="2" d="M333.575427 134.656655C341.302389 132.472355 346.298976 129.332423 353.976792 126.612969 357.007509 125.520819 361.714676 124.597952 363.34198 128.125597 364.969283 131.653242 361.305119 134.47099 357.679181 135.972696M313.447099 132.761775C323.205461 128.857338 351.71058 105.103072 356.488737 118.017747M272.415017 195.232765C272.415017 195.232765 273.605461 179.756997 274.1843 172.903754 280.240273 171.751536 285.269625 171.445734 291.456655 171.134471 297.250512 170.83959 310.378157 170.932423 316.101024 171.77884 316.461433 178.331741 317.30785 194.140614 317.30785 194.140614"/>
      <path fill="#333" fill-rule="nonzero" d="M73.9494881 92.9255973C74.3972696 94.5911263 76.0245734 94.8532423 77.2259386 94.1651877 77.7720137 80.9720137 78.2634812 70.683959 78.2634812 70.683959 76.0791809 71.7761092 72.7317406 72.4641638 69.0894198 72.6116041 70.3945392 79.4539249 72.1692833 86.2416382 73.9494881 92.9255973zM150.088737 14.4764505C138.075085 14.3290102 129.545392 4.01365188 118.279863 1.26143345 113.911263.169283276 109.122184.169283276 104.939249 1.98225256 100.756314 3.79522184 98.2061433 7.15358362 95.9726962 10.8450512 89.5836177 8.88464164 82.8668942 11.6423208 78.3180887 16.5952218 72.7972696 22.6020478 69.6518771 30.9296928 68.1228669 38.8477816 67.5067789 42.0780012 67.1235399 45.3483066 66.9761092 48.6334471 70.3867853 48.1577954 73.8216094 47.8752063 77.2641638 47.7870307 77.7064846 53.3023891 79.0443686 58.6484642 82.0040956 63.0389078 82.9651877 64.4641638 85.7829352 64.5679181 86.1051195 62.4928328 87.5797333 53.3858297 90.7271676 44.630408 95.3883959 36.668942 98.5283276 31.2081911 101.45529 25.3215017 101.078498 19.1945392 107.942662 22.7658703 115.789761 24.1856655 123.538567 24.1419795 128.840043 24.0472381 134.124366 23.5102208 139.336519 22.5365188 143.382935 21.8375427 149.67372 21.7938567 152.016382 17.8293515 152.395246 17.1366914 152.386317 16.2967808 151.992814 15.6123313 151.599311 14.9278819 150.877958 14.4975572 150.088737 14.4764505z"/>
      <path stroke="#333" stroke-linecap="round" stroke-linejoin="round" stroke-width="2" d="M292.619795,151.677816 C293.208517,151.557266 293.820685,151.694407 294.301706,152.054608"/>
    </g>
    <g stroke-linecap="round" stroke-linejoin="round" stroke-width="2" transform="translate(261.024 69.898)">
      <path fill="#FFE945" fill-rule="nonzero" stroke="#FFE945" d="M38.116041,0.436860068 C27.6805461,0.0109215017 17.9112628,2.2225256 11.3201365,9.37064846 C4.86552901,16.3822526 2.88327645,22.1051195 0.63890785,31.6723549 C-0.901023891,38.225256 0.63890785,44.1774744 2.14061433,50.5774744 C3.8662116,57.796587 8.89010239,62.7604096 15.6668942,67.5440273 C22.443686,72.3276451 35.0798635,74.0969283 40.5788396,73.8730375 C46.7276451,73.6327645 51.8498294,73.3979522 57.7802048,71.4156997 C62.2525597,69.8976109 69.2805461,65.6109215 71.9180887,61.7064846 C77.7544459,52.9608115 79.9668077,42.2905708 78.0887372,31.9453925 C76.3030717,22.596587 71.759727,13.7283276 64.3167235,7.57406143 C58.8450512,3.06894198 48.5515358,0.868259386 38.116041,0.436860068 Z"/>
      <path stroke="#333" d="M30.9843003.600682594C36.1938567.387713311 44.690785 2.10238908 48.2894198 4.27030717 51.8880546 6.43822526 56.9174061 9.98771331 60.603413 15.0389078 63.6395904 19.2 66.8505119 27.1071672 67.2819113 32.1037543 67.9044369 39.2409556 65.905802 49.578157 62.1979522 55.7324232 60.4887372 58.5720137 55.5249147 64.6170648 49.9549488 68.4286689 44.3849829 72.240273 39.3665529 73.5071672 33.0266212 73.3433447M20.5651877 31.5740614C22.6457338 30.4819113 24.7317406 29.3515358 26.7139932 28.1064846 26.6156997 34.2006826 25.7692833 40.305802 25.774744 46.4600683M20.5651877 46.0887372C22.0559727 47.1808874 25.4798635 46.9679181 27.3037543 47.1808874 28.6307167 47.3228669 29.7883959 47.694198 31.1699659 47.5959044"/>
      <path stroke="#333" d="M44.778157 27.8498294C41.8348123 25.752901 38.225256 27.374744 38.0832765 31.0116041 37.9249147 34.3590444 41.6982935 38.0013652 44.5924915 34.7358362M37.1331058 42.9269625C39.6887372 42.9269625 42.8013652 42.9269625 45.3242321 43.4730375M8.46962457 41.0648464C6.60750853 34.5665529 8.54607509 27.7843003 12.1829352 22.3235495 14.18157 19.3255973 17.0976109 15.6068259 20.4122867 14.0832765 23.3228669 12.756314 26.4191126 12.4450512 29.4935154 12.2266212"/>
      <path stroke="#333" d="M40.8464164 12.4122867C44.4512997 12.7853235 47.8681938 14.2052328 50.6757679 16.4969283 54.1324232 19.1726962 56.305802 23.5522184 57.5235495 27.7133106 60.0948787 36.6838097 58.5590742 46.3325811 53.3296928 54.0614334 51.6587031 56.5023891 47.9836177 59.5221843 45.3133106 60.6143345M35.4948805 62.8477816C33.3651877 63.3556314 31.0389078 62.7713311 28.9419795 62.268942M20.0846416 58.4300341C15.8580205 55.9399317 13.2969283 53.1549488 11.6313993 48.6935154M53.3133106 6.82593857C56.6989761 6.82593857 59.9972696 7.0116041 63.3610922 7.0116041M66.7085324 25.2505119C68.6798635 25.8457338 73.9221843 26.1187713 75.9918089 25.2505119M67.265529 43.2982935C70.7549488 43.2982935 74.3645051 43.1508532 77.6901024 43.2982935M60.0245734 60.0191126C62.487372 60.778157 65.2559727 60.2921502 67.8389078 60.3904437 69.3460751 60.4505119 71.2791809 60.0573379 72.6771331 60.58157M53.1276451 66.5556314C57.1139932 66.5556314 61.1494881 66.8122867 65.0375427 66.9324232"/>
    </g>
  </g>
</svg>
