<?xml version="1.0" encoding="UTF-8"?>
<svg width="268px" height="302px" viewBox="0 0 268 302" version="1.1" xmlns="http://www.w3.org/2000/svg" xmlns:xlink="http://www.w3.org/1999/xlink">
    <title>Credit Card</title>
    <g id="Feature_Expense" stroke="none" stroke-width="1" fill="none" fill-rule="evenodd">
        <g transform="translate(-670.000000, -259.000000)" id="Credit-Card">
            <g transform="translate(670.000000, 259.000000)">
                <path d="M253.188498,64.6102236 C239.913738,43.284345 221.492013,24.8338658 199.313099,12.7428115 C176.496805,0.282747604 141.201278,-1.6341853 115.341853,1.50479233 C102.36901,3.08626198 85.0159744,6.56549521 73.2316294,12.2300319 C60.7044728,18.2539936 49.6533546,26.8945687 40.1645367,36.9872204 C20.956869,57.4313099 5.47763578,82.4808307 1.88817891,110.333866 C-1.5,136.605431 0.594249201,164.530351 12.0095847,188.592652 C17.0563912,199.249231 23.8752635,208.971958 32.1757188,217.346645 C33.5798722,215.132588 35.8514377,212.07508 37.9265176,212.463259 L32.5926518,190.447284 C29.9294547,179.456845 36.6792151,168.388182 47.6693291,165.723642 L75.2635783,159.038339 L75.2635783,159.038339 C78.1389776,155.204473 81.0958466,151.480831 82.7683706,149.13738 C86.4757368,144.01106 90.5435379,139.155323 94.9408946,134.607029 C98.4153355,130.950479 102.20607,127.490415 105.651757,123.809904 C107.300319,122.051118 107.779553,121.816294 107.908946,119.194888 C108.014377,117.038339 108.105431,114.934505 108.215655,112.797125 C108.412141,109.06869 108.733227,105.460064 108.905751,101.822684 L109.610224,101.779553 L109.495208,100.174121 C109.495208,93.5894569 108.057508,86.841853 107.099042,80.3674121 C106.64377,77.3338658 105.872204,72.0766773 105.182109,67.2555911 C100.638978,64.8594249 97.7348243,60.7523962 95.9329073,56.0559105 C94.1549521,55.9648562 92.5207668,55.8594249 91.6198083,55.7683706 C86.6789137,55.2507987 82.0974441,51.100639 85.2268371,45.6709265 C86.6022364,43.2747604 89.9520767,42.0047923 93.4600639,41.3578275 C93.4840256,36.6421725 94.0111821,31.5047923 95.8801917,27.2971246 C96.9057508,24.9920128 99.0527157,23.0127796 101.434505,22.5047923 C102.234824,22.0543131 102.541534,21.9872204 102.934505,20.9904153 C103.159744,20.4297125 103.322684,19.8450479 103.571885,19.2891374 C105.996805,13.8929712 111.958466,11.1421725 117.618211,10.9408946 C120.920128,10.8210863 124.255591,11.5015974 127.404153,12.4456869 C130.998403,13.5239617 134.71246,15.4600639 138.51278,14.2859425 C140.252396,13.7492013 141.311502,15.6853035 140.678914,17.1038339 C139.778921,19.0995897 138.484606,20.89272 136.873802,22.3753994 C142.907348,24.4025559 149.865815,27.071885 152.607029,28.3753994 C158.544451,31.1777387 164.214761,34.5141587 169.547923,38.3434505 C167.851438,39.8338658 156.867412,44.9616613 153.253994,46.1741214 C149.348243,47.4872204 145.346645,49.557508 141.488818,50.4440895 C142.29393,58.543131 148.135783,88.0830671 149.15655,94.1166134 L149.271565,94.9025559 C149.589527,95.0329008 149.884123,95.2141904 150.14377,95.4392971 C151.811502,96.8003195 152.971246,102.555911 153.584665,104.63099 C154.686901,108.34984 155.094249,112.222045 155.865815,115.845048 C161.942492,116.880192 169.926518,121.686901 174.824281,125.170927 C176.976038,126.699681 180.680511,129.920128 183.891374,132.78115 L183.891374,132.78115 L212.904153,125.750799 C218.181379,124.471988 223.750472,125.342014 228.3862,128.169467 C233.021929,130.99692 236.344526,135.550169 237.623003,140.827476 L240.977636,154.591054 C246.872204,156.599042 253.27476,160.768371 256.955272,165.891374 C258.680511,168.28754 260.367412,171.92492 261.469649,174.972843 C264.889775,166.581188 266.897728,157.681424 267.412141,148.634185 C269.041534,121.06869 267.63738,87.8242812 253.188498,64.6102236 Z" id="BG" fill="#F4F6F9" fill-rule="nonzero"></path>
                <g id="Character" transform="translate(26.837061, 10.543131)">
                    <path d="M229.269968,206.420128 L233.520767,223.945687 C234.799541,229.224181 233.928993,234.794475 231.100648,239.431093 C228.272302,244.067711 223.717856,247.39082 218.439297,248.669329 L53.1948882,288.704473 C42.2116442,291.365283 31.1497258,284.623455 28.4808307,273.642173 L26.0846645,263.722045" id="Path" stroke="#333333" stroke-width="2" stroke-linecap="round" stroke-linejoin="round"></path>
                    <path d="M15.7859425,221.238019 L5.77476038,179.913738 C3.1115633,168.923299 9.86132374,157.854636 20.8514377,155.190096 L186.091054,115.154952 C191.36828,113.876141 196.937373,114.746167 201.573101,117.57362 C206.20883,120.401073 209.531427,124.954323 210.809904,130.231629 L219.043131,164.204473" id="Path" stroke="#333333" stroke-width="2" stroke-linecap="round" stroke-linejoin="round"></path>
                    <path d="M202.06869,172.72524 C201.819489,171.800319 201.589457,171.004792 201.507987,170.525559 C200.798722,167.142173 199.624601,165.033546 197.813099,163.897764 C195.182109,162.239617 191.980831,163.030351 187.926518,164.027157 C187.102236,164.228435 186.234824,164.444089 185.319489,164.65016 C179.520767,165.948882 173.539936,167.492013 167.554313,169.231629 L167.175719,169.341853 C161.980831,170.846645 160.332268,171.594249 160.231629,177.249201 C159.948882,192.685304 162.527157,201.210863 167.899361,202.567093 C168.329096,202.671496 168.770262,202.721409 169.21246,202.715655 C171.34984,202.715655 174.306709,201.814696 177.613419,200.731629 C178.571885,200.42492 179.353035,200.161342 179.884984,200.022364 L179.884984,200.022364 C185.980831,198.43131 193.188498,196.188498 200.07508,193.988818 C207.167732,191.731629 203.851438,179.367412 202.06869,172.72524 Z" id="Path" fill="#FFE945" fill-rule="nonzero"></path>
                    <polyline id="Path" stroke="#333333" stroke-width="2" stroke-linecap="round" stroke-linejoin="round" points="170.971246 170.348243 178.370607 177.172524 161.837061 182.295527"></polyline>
                    <path d="M163.111821,189.210863 C175.519169,185.477636 187.552716,181.35623 199.916933,178.600639" id="Path" stroke="#333333" stroke-width="2" stroke-linecap="round" stroke-linejoin="round"></path>
                    <path d="M179.923323,184.4377 C179.765176,189.306709 176.607029,195.273163 176.746006,199.020767" id="Path" stroke="#333333" stroke-width="2" stroke-linecap="round" stroke-linejoin="round"></path>
                    <line x1="188.9377" y1="181.64377" x2="185.71246" y2="196.662939" id="Path" stroke="#333333" stroke-width="2" stroke-linecap="round" stroke-linejoin="round"></line>
                    <path d="M181.361022,168.210863 C181.361022,168.210863 184.5623,172.686901 185.381789,175.015974 C189.934505,173.669329 195.086262,173.434505 199.734824,171.992013" id="Path" stroke="#333333" stroke-width="2" stroke-linecap="round" stroke-linejoin="round"></path>
                    <path d="M43.0638978,190.58147 C37.313099,177.340256 56.85623,164.880192 66.6182109,175.389776 C75.7236422,185.199681 71.5015974,199.830671 57.6900958,200.515974 C50.9472843,200.841853 45.8530351,198.105431 43.0638978,190.58147 Z" id="Path" stroke="#333333" stroke-width="2" stroke-linecap="round" stroke-linejoin="round"></path>
                    <path d="M64.5239617,182.233227 C64.5239617,175.816294 66.5942492,171.584665 74.3817891,169.00639 C80.0894569,167.118211 86.1948882,167.539936 89.1853035,173.492013 C94.5191693,184.097444 84.9632588,196.523962 73.0543131,193.365815 C69.6134185,192.455272 64.5239617,188.654952 64.5239617,182.233227 Z" id="Path" stroke="#333333" stroke-width="2" stroke-linecap="round" stroke-linejoin="round"></path>
                    <path d="M65.6214058,237.738019 C65.6214058,237.738019 82.9025559,231.833866 92.9376997,229.111821 C104.520767,225.953674 117.460064,221.314696 129,218.089457" id="Path" stroke="#333333" stroke-width="2" stroke-linecap="round" stroke-linejoin="round"></path>
                    <path d="M65.6214058,250.21246 C83.0079872,243.450479 98.7603834,240.36901 116.544728,234.972843" id="Path" stroke="#333333" stroke-width="2" stroke-linecap="round" stroke-linejoin="round"></path>
                    <path d="M72.4984026,259.93131 C84.6230032,256.025559 128.683706,243.316294 128.683706,243.316294" id="Path" stroke="#333333" stroke-width="2" stroke-linecap="round" stroke-linejoin="round"></path>
                    <path d="M48.4456869,148.504792 C51.3210863,144.670927 54.2779553,140.947284 55.9456869,138.603834 C59.6561217,133.478548 63.7254391,128.622912 68.1230032,124.073482 C71.5974441,120.416933 75.3881789,116.952077 78.8338658,113.276358 C80.4824281,111.517572 80.9616613,111.282748 81.0910543,108.661342 C81.1964856,106.504792 81.2875399,104.400958 81.3977636,102.263578 C81.5942492,98.5351438 81.9153355,94.9265176 82.0878594,91.2891374 C85.8115016,91.1070288 89.2763578,90.7380192 92.9664537,90.2827476 C101.319489,89.2380192 110.659744,88.6341853 118.476038,85.399361 C120.752396,84.4408946 121.662939,83.4824281 123.330671,84.8434505 C124.998403,86.2044728 126.158147,91.9600639 126.771565,94.0351438 C127.873802,97.7539936 128.28115,101.626198 129.052716,105.249201 C135.129393,106.284345 143.113419,111.091054 148.011182,114.57508 C150.162939,116.103834 153.867412,119.324281 157.078275,122.185304" id="Path" stroke="#333333" stroke-width="2" stroke-linecap="round" stroke-linejoin="round"></path>
                    <path d="M13.9888179,222.388179 C16.384984,221.56869 28.0063898,209.626198 30.9440895,211.912141 C34.7539936,214.883387 24.6565495,224.77476 23.7555911,226.701278 C22.6485623,229.001597 22.3801917,230.367412 24.8722045,231.819489 C26.9664537,233.041534 30.2587859,233.980831 32.6070288,234.618211 C35.3626198,235.365815 46.9840256,237.014377 47.2523962,240.440895 C47.7316294,246.191693 31.9600639,244.801917 28.8019169,244.595847 C32.5344637,244.552664 36.2564783,245.000594 39.8722045,245.928115 C43.1118211,246.814696 48.8386581,247.916933 49.9361022,251.458466 C52.0207668,258.138978 35.8466454,253.662939 32.6453674,251.597444 C36.6517572,252.594249 51.2635783,255.335463 52.0063898,260.741214 C52.5814696,264.920128 44.8178914,262.41853 42.4696486,261.829073 C39.014377,260.971246 33.8434505,260.48722 30.7092652,258.63738 C33.3162939,259.332268 42.6900958,261.891374 42.0670927,265.624601 C41.1565495,270.311502 26.7316294,264.623003 20.7891374,260.952077 C14.1948882,256.864217 9.88178914,249.848243 8.32907348,242.372204 C7.07827476,236.353035 5.65495208,231.28754 6.95846645,225.167732 C7.61501597,222.105431 10.9840256,216.249201 14.3146965,215.520767" id="Path" stroke="#333333" stroke-width="2" stroke-linecap="round" stroke-linejoin="round"></path>
                    <path d="M84.2731629,111.36901 C87.9105431,112.097444 94.1597444,115.049521 98.1325879,112.926518 C102.517572,110.583067 103.020767,99.158147 103.835463,94.7779553 C105.445687,98.813099 109.370607,109.361022 114.14377,110.760383 C119.539936,112.337061 121.456869,107.496805 126.124601,106.255591" id="Path" stroke="#333333" stroke-width="2" stroke-linecap="round" stroke-linejoin="round"></path>
                    <path d="M220.538339,163.284345 C218.142173,166.001597 207.555911,164.209265 208.284345,167.539936 C208.873802,170.79393 213.785942,172.21246 216.570288,174.071885 C219.63738,176.118211 221.314696,176.894569 219.416933,180.378594 C217.198083,184.447284 211.682109,188.832268 209.036741,192.675719 C207.335463,195.138978 205.801917,200.784345 210.953674,199.063898 C215.48722,197.549521 219.78115,192.527157 222.646965,189.129393 C219.848243,192.565495 216.110224,195.359425 213.541534,198.905751 C212.017572,201.009585 206.808307,205.456869 209.228435,208.126198 C213.019169,210.886581 220.86901,200.386581 224.084665,197.333866 C219.86262,200.036741 211.083067,210.273163 213.36901,211.964856 C216.867412,213.84345 223.432907,206.01278 225.34984,203.482428 C222.474441,206.587859 218.750799,213.603834 220.078275,214.480831 C227.01278,218.645367 234.63738,192.819489 235.303514,189.138978 C237.08147,179.305112 231.230032,158.333866 216.680511,154.5" id="Path" stroke="#333333" stroke-width="2" stroke-linecap="round" stroke-linejoin="round"></path>
                    <path d="M9.83386581,247.15016 C0.996805112,237.182109 -3.17252396,220.940895 4.32268371,208.490415 C5.33386581,206.808307 8.38178914,201.416933 11.1086262,201.929712" id="Path" stroke="#333333" stroke-width="2" stroke-linecap="round" stroke-linejoin="round"></path>
                    <path d="M234.378594,176.118211 C236.209265,173.755591 235.969649,168.474441 235.193291,166.001597 C234.158147,162.71885 232.169329,158.151757 230.123003,155.295527 C226.442492,150.172524 220.059105,146.003195 214.145367,143.995208" id="Path" stroke="#333333" stroke-width="2" stroke-linecap="round" stroke-linejoin="round"></path>
                    <path d="M82.6773163,89.6405751 C82.6773163,83.0559105 81.2396166,76.3083067 80.2811502,69.8338658 C79.284345,63.186901 76.7635783,45.8722045 76.7635783,45.8722045 C76.7635783,45.8722045 67.5,45.5175719 64.7827476,45.2348243 C59.841853,44.7172524 55.2603834,40.5670927 58.3897764,35.1373802 C60.9105431,30.7619808 70.0399361,30.1102236 74.6357827,30.1677316 C73.370607,22.1453674 75.8146965,13.7396166 83.9329073,10.327476 C89.1757188,8.12779553 95.1230032,8.55910543 100.70607,9.17252396 C104.832268,9.61821086 121.183706,15.6038339 125.760383,17.798722 C131.697806,20.6010614 137.368116,23.9374814 142.701278,27.7667732 C141.004792,29.2571885 130.020767,34.384984 126.407348,35.5974441 C122.496805,36.9105431 118.5,38.9808307 114.642173,39.8674121 C115.447284,47.9664537 121.289137,77.5063898 122.309904,83.5399361" id="Path" stroke="#333333" stroke-width="2" stroke-linecap="round" stroke-linejoin="round"></path>
                    <path d="M88.7492013,43.9552716 C88.1741214,49.413738 92.6501597,53.3530351 97.6916933,53.5399361" id="Path" stroke="#333333" stroke-width="2" stroke-linecap="round" stroke-linejoin="round"></path>
                    <line x1="98.0127796" y1="33.4121406" x2="97.0543131" y2="29.2571885" id="Path" stroke="#333333" stroke-width="2" stroke-linecap="round" stroke-linejoin="round"></line>
                    <line x1="108.234824" y1="29.2571885" x2="107.276358" y2="25.1070288" id="Path" stroke="#333333" stroke-width="2" stroke-linecap="round" stroke-linejoin="round"></line>
                    <path d="M68.6549521,45.4984026 C70.3322684,50.4680511 73.2555911,54.8626198 78.1677316,57.1341853 C78.2539936,57.1773163 78.3402556,57.1964856 78.4265176,57.2300319 C77.5543131,51.2923323 76.7683706,45.8722045 76.7683706,45.8722045 C76.7683706,45.8722045 72.2971246,45.6996805 68.6549521,45.4984026 Z" id="Path" fill="#333333" fill-rule="nonzero"></path>
                    <path d="M111.661342,3.71405751 C107.861022,4.88817891 104.146965,2.95207668 100.552716,1.87380192 C97.4041534,0.915335463 94.0686901,0.249201278 90.7667732,0.369009585 C85.1070288,0.57028754 79.1453674,3.32108626 76.7204473,8.7172524 C76.471246,9.27316294 76.3083067,9.85782748 76.0830671,10.4185304 C75.6900958,11.4153355 75.3833866,11.4824281 74.5830671,11.9329073 C72.186901,12.4648562 70.0543131,14.4440895 69.028754,16.7252396 C67.1597444,20.9329073 66.6325879,26.0702875 66.6086262,30.7859425 C68.162486,30.5011404 69.7326482,30.3138734 71.3099042,30.2252396 C72.39089,33.9305274 74.1920305,37.3862419 76.6102236,40.3945687 C77.6693291,41.7220447 79.9169329,40.5910543 79.8785942,39.0383387 C79.7492013,33.2875399 83.1900958,28.298722 83.7460064,22.64377 C83.8860323,21.3079819 83.8522038,19.9596733 83.6453674,18.6325879 L84.3546326,18.6325879 C85.2651757,18.5846645 86.1709265,18.5559105 87.0814696,18.5175719 C88.8977636,18.4456869 90.7188498,18.3785942 92.5303514,18.2300319 C95.7421746,18.0487345 98.9178569,17.459333 101.980831,16.4760383 C107.003195,14.7268371 111.608626,11.4872204 113.827476,6.52236422 C114.479233,5.11341853 113.420128,3.17731629 111.661342,3.71405751 Z" id="Path" fill="#333333" fill-rule="nonzero"></path>
                    <path d="M106.159744,108.972843 C106.121406,110.889776 106.964856,113.094249 107.28115,115.044728 C107.683706,117.498403 108.033546,119.966454 108.397764,122.448882 C108.972843,126.282748 110.48722,133.471246 110.48722,133.471246" id="Path" stroke="#333333" stroke-width="2" stroke-linecap="round" stroke-linejoin="round"></path>
                    <path d="M113.348243,125.583067 C113.573583,125.62524 113.806134,125.567539 113.985623,125.42492" id="Path" stroke="#333333" stroke-width="2" stroke-linecap="round" stroke-linejoin="round"></path>
                    <path d="M69.8769968,38.4057508 C68.4105431,37.9265176 67.1980831,37.5479233 65.6022364,37.6629393" id="Path" stroke="#333333" stroke-width="2" stroke-linecap="round" stroke-linejoin="round"></path>
                </g>
            </g>
        </g>
    </g>
</svg>