<svg width="15" height="15" viewBox="0 0 15 15" fill="none" xmlns="http://www.w3.org/2000/svg">
<g clip-path="url(#clip0_301_1004)">
<path d="M7.33735 1.3213C9.2978 1.3213 9.52996 1.32989 10.301 1.36429C11.0175 1.39582 11.4044 1.51619 11.6624 1.61651C12.0034 1.74835 12.2499 1.90886 12.505 2.16394C12.763 2.4219 12.9206 2.66552 13.0525 3.00659C13.1528 3.26455 13.2732 3.65434 13.3047 4.36802C13.3391 5.14188 13.3477 5.37404 13.3477 7.33162C13.3477 9.29207 13.3391 9.52422 13.3047 10.2952C13.2732 11.0118 13.1528 11.3987 13.0525 11.6566C12.9206 11.9977 12.7601 12.2442 12.505 12.4993C12.2471 12.7572 12.0034 12.9149 11.6624 13.0467C11.4044 13.147 11.0146 13.2674 10.301 13.2989C9.52709 13.3333 9.29493 13.3419 7.33735 13.3419C5.3769 13.3419 5.14474 13.3333 4.37375 13.2989C3.65721 13.2674 3.27028 13.147 3.01233 13.0467C2.67125 12.9149 2.42476 12.7544 2.16968 12.4993C1.91172 12.2413 1.75409 11.9977 1.62224 11.6566C1.52193 11.3987 1.40155 11.0089 1.37002 10.2952C1.33563 9.52136 1.32703 9.2892 1.32703 7.33162C1.32703 5.37117 1.33563 5.13901 1.37002 4.36802C1.40155 3.65148 1.52193 3.26455 1.62224 3.00659C1.75409 2.66552 1.91459 2.41903 2.16968 2.16394C2.42763 1.90599 2.67125 1.74835 3.01233 1.61651C3.27028 1.51619 3.66008 1.39582 4.37375 1.36429C5.14474 1.32989 5.3769 1.3213 7.33735 1.3213ZM7.33735 0C5.34537 0 5.09602 0.00859846 4.31356 0.0429923C3.53397 0.0773861 2.998 0.203497 2.53368 0.384064C2.0493 0.57323 1.63944 0.822586 1.23245 1.23245C0.822586 1.63944 0.57323 2.0493 0.384064 2.53081C0.203497 2.998 0.0773861 3.5311 0.0429923 4.31069C0.00859846 5.09602 0 5.34537 0 7.33735C0 9.32932 0.00859846 9.57868 0.0429923 10.3611C0.0773861 11.1407 0.203497 11.6767 0.384064 12.141C0.57323 12.6254 0.822586 13.0353 1.23245 13.4423C1.63944 13.8492 2.0493 14.1015 2.53081 14.2878C2.998 14.4683 3.5311 14.5944 4.31069 14.6288C5.09315 14.6632 5.34251 14.6718 7.33448 14.6718C9.32646 14.6718 9.57582 14.6632 10.3583 14.6288C11.1379 14.5944 11.6738 14.4683 12.1382 14.2878C12.6197 14.1015 13.0295 13.8492 13.4365 13.4423C13.8435 13.0353 14.0957 12.6254 14.282 12.1439C14.4626 11.6767 14.5887 11.1436 14.6231 10.364C14.6575 9.58155 14.6661 9.33219 14.6661 7.34022C14.6661 5.34824 14.6575 5.09888 14.6231 4.31643C14.5887 3.53683 14.4626 3.00086 14.282 2.53654C14.1015 2.0493 13.8521 1.63944 13.4423 1.23245C13.0353 0.825452 12.6254 0.57323 12.1439 0.386931C11.6767 0.206363 11.1436 0.0802523 10.364 0.0458584C9.57868 0.00859846 9.32933 0 7.33735 0Z" fill="#AFB1B4"/>
<path d="M7.33735 3.56836C5.25652 3.56836 3.56836 5.25652 3.56836 7.33735C3.56836 9.41818 5.25652 11.1063 7.33735 11.1063C9.41818 11.1063 11.1063 9.41818 11.1063 7.33735C11.1063 5.25652 9.41818 3.56836 7.33735 3.56836ZM7.33735 9.78218C5.98739 9.78218 4.89252 8.68731 4.89252 7.33735C4.89252 5.98739 5.98739 4.89252 7.33735 4.89252C8.68731 4.89252 9.78218 5.98739 9.78218 7.33735C9.78218 8.68731 8.68731 9.78218 7.33735 9.78218Z" fill="#AFB1B4"/>
<path d="M12.1353 3.41946C12.1353 3.90671 11.7398 4.29937 11.2554 4.29937C10.7682 4.29937 10.3755 3.90384 10.3755 3.41946C10.3755 2.93221 10.771 2.53955 11.2554 2.53955C11.7398 2.53955 12.1353 2.93508 12.1353 3.41946Z" fill="#AFB1B4"/>
</g>
<defs>
<clipPath id="clip0_301_1004">
<rect width="14.6747" height="14.6747" fill="white"/>
</clipPath>
</defs>
</svg>
