<?xml version="1.0" encoding="UTF-8"?>
<svg width="69px" height="24px" viewBox="0 0 69 24" version="1.1" xmlns="http://www.w3.org/2000/svg" xmlns:xlink="http://www.w3.org/1999/xlink">
    <title>KekaLogoWhite</title>
    <g id="Symbols" stroke="none" stroke-width="1" fill="none" fill-rule="evenodd">
        <g id="Footer" transform="translate(-100.000000, -50.000000)" fill="#FFFFFF">
            <g id="KekaLogoWhite" transform="translate(100.000000, 50.000000)">
                <path d="M54.5474992,1.22276233 C54.4739913,2.05906429 54.0373795,3.08243379 53.8678676,3.53359669 C53.2440006,5.19226224 52.6819184,6.53034537 52.3134281,6.38986132 C51.9452547,6.24864366 52.2845953,4.80969078 52.5333183,3.02374594 C52.6271043,2.35140318 53.0640329,-0.46744794 54.117858,0.0669783549 C54.4996557,0.260648282 54.5931248,0.705942395 54.5474992,1.22276233" id="Fill-1"></path>
                <path d="M60.7393159,2.66834764 C60.6506809,2.85347061 60.546663,3.02526169 60.4459414,3.17343625 C59.9580828,3.88802616 59.4075936,4.55957307 58.8296349,5.19721887 C57.253617,6.9326515 55.9024829,8.30240914 55.460773,7.94206689 C55.0194294,7.58096282 56.1116175,5.97275461 57.2309088,3.8895498 C57.7000882,3.01535799 58.2655941,2.10726505 58.9765053,1.42238624 C59.3907456,1.02319102 60.2239877,0.471631217 60.7213691,1.05099756 C61.1216916,1.51799501 60.991303,2.14421346 60.7393159,2.66834764" id="Fill-2"></path>
                <path d="M68.090554,12.3387916 C67.6121633,12.5682037 67.0569716,12.713258 66.722134,12.8017308 C66.2132383,12.9361546 65.6989592,13.0486317 65.1807325,13.1463633 C62.9732446,13.5606081 61.1458136,13.8301416 60.9911351,13.3253664 C60.8526063,12.8747723 61.7523254,12.5562016 62.0548636,12.4173198 C63.2058006,11.8881975 64.3822184,11.347416 65.5783746,10.9187686 C66.3632513,10.637233 68.4867606,9.85743773 68.9375174,11.0151286 C69.1765333,11.6262082 68.6945537,12.049026 68.090554,12.3387916" id="Fill-3"></path>
                <path d="M65.9949171,6.06801025 C65.6690921,6.41663998 65.254244,6.70410039 64.8878244,6.98272131 C64.314871,7.41939242 63.7209082,7.82883789 63.1130577,8.21600782 C60.8653996,9.64588472 58.9773954,10.7522361 58.6277122,10.2957645 C58.2634292,9.82055316 59.7262586,8.62969624 59.96947,8.38219034 C60.8369122,7.50071579 61.7011495,6.60792668 62.6415908,5.80141105 C63.3527082,5.19219297 65.3461159,3.30301585 66.3930289,4.27111747 C66.7562436,4.60737191 66.5514902,5.2162364 66.3531465,5.58148438 C66.2573575,5.75792073 66.1345055,5.91844598 65.9949171,6.06801025" id="Fill-4"></path>
                <path d="M2.15948011,23.7793872 L2.65591232,23.7793872 C3.87217123,23.7793872 4.7657492,23.1910864 4.7657492,21.4997214 L4.7657492,18.6317549 L7.42166152,22.4311978 C8.11666661,23.4852368 9.13435264,23.8529248 10.003109,23.8529248 C11.4179408,23.8529248 12.7583078,22.6763231 12.6341997,22.4311978 L9.01024458,17.4061281 L12.3115188,12.7732591 C12.4356268,12.5036212 11.1697247,11.3270195 9.73007129,11.3270195 C8.91095814,11.3270195 7.89327211,11.6947075 7.22308863,12.7487465 L4.7657492,16.4011142 L4.7657492,9.97883008 C4.7657492,7.11086351 3.20198774,6.4 1.83679917,6.4 C0.868756365,6.4 0,6.76768802 0,6.93927577 L0,21.4997214 C0,23.2401114 0.893577975,23.7793872 2.15948011,23.7793872 L2.15948011,23.7793872 Z M20.5715991,24 C24.0466246,24 25.9578886,22.7743733 25.9578886,21.156546 C25.9578886,19.3671309 23.7735869,19.1465181 23.7735869,19.1955432 C23.3019763,20.0289694 22.2842902,20.7398329 20.7949936,20.7398329 C19.2808754,20.7398329 18.2383677,20.102507 17.9405084,18.8278552 L25.7096725,18.8278552 C26.4294992,18.8278552 26.6528937,18.3130919 26.6777153,17.6022284 L26.6777153,17.308078 C26.6777153,13.8027855 24.0466246,11.2534819 20.2737398,11.2534819 C16.4760334,11.2534819 13.7208347,13.9988858 13.7208347,17.7247911 C13.7208347,21.6222841 16.376747,24 20.5715991,24 L20.5715991,24 Z M20.2240966,14.3175487 C21.5396419,14.3175487 22.3587551,15.1509749 22.3835767,16.4011142 L17.8660436,16.4011142 C18.0149733,15.2 18.9830161,14.3175487 20.2240966,14.3175487 L20.2240966,14.3175487 Z M31.090446,23.7793872 L31.5868782,23.7793872 C32.8031372,23.7793872 33.6967151,23.1910864 33.6967151,21.4997214 L33.6967151,18.6317549 L36.3526274,22.4311978 C37.0476325,23.4852368 38.0653186,23.8529248 38.9340749,23.8529248 C40.3489067,23.8529248 41.6892737,22.6763231 41.5651656,22.4311978 L37.9412105,17.4061281 L41.2424847,12.7732591 C41.3665928,12.5036212 40.1006906,11.3270195 38.6610372,11.3270195 C37.8419241,11.3270195 36.824238,11.6947075 36.1540546,12.7487465 L33.6967151,16.4011142 L33.6967151,9.97883008 C33.6967151,7.11086351 32.1329537,6.4 30.7677651,6.4 C29.7997223,6.4 28.9309659,6.76768802 28.9309659,6.93927577 L28.9309659,21.4997214 C28.9309659,23.2401114 29.8245439,23.7793872 31.090446,23.7793872 L31.090446,23.7793872 Z M46.7225447,23.9019499 C48.5097006,23.9019499 50.0238189,23.1665738 50.842932,21.9164345 C51.2152562,23.2155989 52.1584774,23.8774373 53.5236659,23.8774373 C54.4420655,23.8774373 55.3604651,23.5832869 55.3604651,23.3381616 L55.3604651,16.4256267 C55.3604651,12.9448468 53.4243795,11.2534819 49.0061328,11.2534819 C44.9353887,11.2534819 43.0985896,12.4545961 43.0985896,14.3665738 C43.0985896,16.4501393 46.2261125,16.2785515 46.2509341,16.2050139 C46.573615,15.4696379 47.1941553,14.5871866 48.7330951,14.5871866 C49.8748892,14.5871866 50.5450727,15.1509749 50.6443591,16.2050139 L50.1727485,16.2050139 C44.9353887,16.2295265 42.626979,17.5532033 42.626979,20.3231198 C42.626979,22.4311978 44.2403836,23.9019499 46.7225447,23.9019499 L46.7225447,23.9019499 Z M48.5841655,21.0339833 C47.7154091,21.0339833 47.1445121,20.6172702 47.1445121,19.9064067 C47.1445121,18.9749304 48.1621981,18.5827298 50.0734621,18.5337047 L50.6691807,18.5337047 L50.6691807,18.9504178 C50.6691807,20.1760446 49.8500676,21.0339833 48.5841655,21.0339833 L48.5841655,21.0339833 Z" id="keka"></path>
            </g>
        </g>
    </g>
</svg>