<svg width="15" height="15" viewBox="0 0 15 15" fill="none" xmlns="http://www.w3.org/2000/svg">
<path d="M13.5882 0H1.08316C0.484136 0 -0.000244141 0.472915 -0.000244141 1.05761V13.6142C-0.000244141 14.1989 0.484136 14.6747 1.08316 14.6747H13.5882C14.1872 14.6747 14.6745 14.1989 14.6745 13.6171V1.05761C14.6745 0.472915 14.1872 0 13.5882 0ZM4.35344 12.505H2.17517V5.50015H4.35344V12.505ZM3.2643 4.54572C2.56496 4.54572 2.00033 3.98109 2.00033 3.28461C2.00033 2.58814 2.56496 2.0235 3.2643 2.0235C3.96078 2.0235 4.52541 2.58814 4.52541 3.28461C4.52541 3.97822 3.96078 4.54572 3.2643 4.54572ZM12.5048 12.505H10.3294V9.10003C10.3294 8.28891 10.315 7.24277 9.19724 7.24277C8.06511 7.24277 7.89314 8.12841 7.89314 9.04271V12.505H5.7206V5.50015H7.80715V6.45744H7.83582C8.1253 5.90714 8.8361 5.32531 9.89371 5.32531C12.0978 5.32531 12.5048 6.77558 12.5048 8.66151V12.505Z" fill="#AFB1B4"/>
</svg>
