<svg xmlns="http://www.w3.org/2000/svg" width="502" height="245" viewBox="0 0 502 245">
  <g fill="none" fill-rule="evenodd" transform="matrix(-1 0 0 1 501 0)">
    <path fill="#F4F6F9" fill-rule="nonzero" d="M59.182266,153.857143 C64.2758621,148.82266 68.8719212,144.719212 70.9458128,143.536946 C71.1921182,143.399015 71.4384236,143.261084 71.7389163,143.123153 C74.0197044,136.261084 80.6059113,116.330049 83.1527094,106.669951 C82.25124,106.752579 81.4269886,106.15752 81.2216749,105.275862 C80.2137659,101.689599 79.6447468,97.9942838 79.5270936,94.270936 L79.5270936,94.270936 C74.364532,93.7783251 69.817734,92.4285714 70.5172414,86.729064 C71.0935961,82.0640394 75.9014778,80.5221675 81.3546798,80.1330049 C81.6896552,79.0246305 82.0689655,77.9261084 82.4926108,76.8472906 C85.2758621,69.7980296 90.817734,62.1133005 99.1083744,63.1576355 C100.44335,56.6502463 106.807882,53.0295567 112.793103,50.817734 C116.637391,49.4182432 120.648595,48.5288887 124.724138,48.1724138 C128.339901,47.8374384 132.014778,47.9211823 135.068966,45.7093596 C136.748768,44.4827586 138.64532,46.8128079 137.763547,48.408867 C136.847404,50.0297759 135.746461,51.5390268 134.482759,52.9064039 C138.325123,53.2019704 142.26601,54.1133005 146.600985,55.3694581 C155.788177,58.0049261 167.29064,62.3694581 177,67.9261084 C172.857143,71.4778325 139.339901,81.3399015 139.339901,81.3399015 C139.339901,81.3399015 128.502463,116.014778 128.142857,133.689655 L127.926108,135.847291 C129.694581,135.847291 131.458128,135.921182 133.20197,136.014778 C133.26601,137.261084 133.448276,138.995074 133.576355,140.901478 C133.576355,140.901478 185.270936,130.955665 197.275862,128.665025 C218.330049,124.650246 239.743842,120.596059 260.960591,116.512315 C273.241379,114.152709 285.724138,111.970443 298.187192,109.679803 C306.522167,95.7389163 312.295567,80.4482759 312.704433,63.8669951 C313,51.8423645 310.054187,39.1330049 303.197044,29.1280788 C299.626815,23.8122313 294.941952,19.3374892 289.46798,16.0147783 C283.211823,12.2857143 276.068966,10.2019704 268.970443,8.78325123 C244.408867,3.85714286 217.246305,5.82758621 195.35468,18.7881773 C190.536946,21.635468 178.300493,31.9605911 173.955665,35.4926108 C162.133005,22.2216749 144.46798,9.66009852 116.068966,2.92610837 C87.6699507,-3.80788177 48.3103448,2.36945813 28.4778325,22.7093596 C8.77339901,42.9064039 10.5812808,73.679803 20.1871921,98.1970443 C28.5714286,119.571429 42.4236453,138.310345 59.182266,153.857143 Z"/>
    <g transform="translate(0 26.601)">
      <path stroke="#333" stroke-linecap="round" stroke-linejoin="round" stroke-width="2" d="M0.0886699507,216.433498 C4.29064039,203.46798 11.7192118,189.182266 19.6305419,178.009852 C26.8522167,167.812808 34.1330049,157 41.4679803,146.975369 C48.4630542,137.418719 66.226601,119.625616 70.9458128,116.926108 C75.6650246,114.226601 86.7536946,112.453202 95.6551724,111.463054 C107.866995,110.108374 120.921182,108.704433 133.221675,109.394089 C133.433498,113.522167 134.921182,123.08867 131.70936,126.315271 C124.665025,133.389163 113.581281,121.881773 108.487685,118.064039 C108.955665,125.881773 103.724138,138.320197 96.591133,140.960591 C88.9014778,143.802956 75.408867,133.783251 74.226601,126.497537"/>
      <path stroke="#333" stroke-linecap="round" stroke-linejoin="round" stroke-width="2" d="M128.162562 107.078818C128.541872 89.4039409 139.359606 54.729064 139.359606 54.729064 139.359606 54.729064 172.857143 44.8768473 177.019704 41.3152709 167.325123 35.7586207 155.807882 31.3940887 146.62069 28.7586207 135.871921 25.6699507 127.527094 24.6108374 117.064039 30.0492611 109.147783 34.1773399 100.315271 40.1970443 95.0591133 47.3940887 93.6464382 49.3735678 92.4258034 51.4832867 91.4137931 53.6945813 83.5665025 53.2364532 71.4581281 52.5714286 70.5221675 60.1527094 69.5369458 68.3497537 79.3546798 67.5172414 86.2857143 68.1871921 85.1428571 72.2610837 84.1625616 76.2610837 83.2413793 79.773399 80.1970443 91.3497537 71.4433498 116.935961 71.4433498 116.935961M109.778325 68.2364532C113.078818 71.0246305 117.945813 71.2463054 122.394089 69.0935961"/>
      <line x1="115.601" x2="117.079" y1="50.182" y2="53.138" stroke="#333" stroke-linecap="round" stroke-linejoin="round" stroke-width="2"/>
      <line x1="122.995" x2="124.473" y1="47.227" y2="50.182" stroke="#333" stroke-linecap="round" stroke-linejoin="round" stroke-width="2"/>
      <path stroke="#333" stroke-linecap="round" stroke-linejoin="round" stroke-width="2" d="M114.123153 140.325123C113.315271 148.955665 106.418719 157.891626 108.950739 167.128079 111.482759 176.364532 119.192118 170.35468 127.359606 169.783251 147.674877 168.369458 130.561576 192.807882 131.231527 203.019704M166.093596 141.064039C166.093596 141.064039 170.034483 151.019704 171.019704 155.842365M158.458128 141.802956C162.152709 148.807882 164.694581 159.975369 167.325123 167.665025M173.975369 144.758621C167.876847 144.192118 154.014778 150.349754 150.330049 152.8867"/>
      <path stroke="#333" stroke-linecap="round" stroke-linejoin="round" stroke-width="2" d="M133.596059 114.285714C133.596059 114.285714 185.29064 104.339901 197.295567 102.049261 218.349754 98.0344828 239.763547 93.9802956 260.980296 89.8965517 293.206897 83.6995074 326.812808 78.7783251 357.788177 69.6995074 369.995074 66.1231527 395.689655 57.1083744 395.689655 57.1083744 396.827586 69.3891626 402.236453 79.6009852 400.684729 90.6896552 399.591133 90.6157635 399.842365 91.0788177 399.330049 91.5566502 394.492611 96.0837438 371.926108 99.0295567 369.586207 104.226601 359.674877 126.246305 323.073892 119.374384 305.871921 128.472906 296.019704 133.689655 288.73399 142.73399 281.334975 150.788177 273.73399 159.059113 264.561576 163.931034 253.704433 166.955665 247.128079 168.788177 241.059113 168.162562 235.448276 172.295567 225.408867 179.684729 218.206897 191.246305 207.960591 197.955665M362.837438 69.3891626C361.482759 78.0246305 367.300493 95.3497537 371.128079 101.901478"/>
      <g stroke-linecap="round" stroke-linejoin="round" stroke-width="2" transform="matrix(-1 0 0 1 500 0)">
        <path stroke="#333" d="M34.4137931,35.1133005 C40.8571429,41.8916256 47.4417077,48.5369458 54.1674877,55.0492611"/>
        <path fill="#FEAABC" fill-rule="nonzero" stroke="#FEAABC" d="M6.72413793,35.3497537 C2.67980296,32.2758621 -0.477832512,25.0049261 0.0886699507,17.8423645 C0.581280788,11.7635468 6.30049261,3.71428571 12.2758621,1.9408867 C16.0147783,0.832512315 20.4039409,-0.0738916256 24.2906404,0.157635468 C30.2019704,0.517241379 33.8866995,3.8817734 36.7044335,8.92610837 C41.0098522,16.6403941 41.2364532,25.8965517 35.1527094,32.8423645 C30.9901478,37.591133 26.5073892,39.2167488 20.226601,39.8719212 C17.1773399,40.1921182 10.7684729,38.4236453 6.72413793,35.3497537 Z"/>
        <path stroke="#333" d="M19.546798 12.5073892C20.5935935 17.4592401 20.5935935 22.5752426 19.546798 27.5270936M11.1576355 19.8522167C17.0078904 19.491422 22.8787199 19.6562866 28.6995074 20.3448276"/>
      </g>
      <path stroke="#333" stroke-linecap="round" stroke-linejoin="round" stroke-width="2" d="M395.955665,59.4384236 C395.955665,59.4384236 410.891626,55.0049261 417.630542,52.9064039 C423.551609,51.0517463 429.786527,50.4133416 435.960591,51.0295567 C441.672802,51.4230353 446.84739,54.539153 449.866995,59.4039409 C452.394089,63.2807882 454.990148,70.3842365 451.172414,74.4975369 C445.8867,80.1921182 439.940887,68.6256158 438.729064,64.5862069 C436.724138,69.1133005 436.374384,72.0295567 430.778325,73.7192118 C427.137931,74.8226601 422.458128,75.1970443 419.581281,73.4482759"/>
      <path stroke="#333" stroke-linecap="round" stroke-linejoin="round" stroke-width="2" d="M422.049261 76.3990148C420.916256 79.546798 419.399015 81.4482759 419.093596 84.9901478 418.79803 88.4039409 419.586207 90.0689655 422.049261 92.3793103 426.241379 96.320197 434.364532 98.5369458 440.034483 96.6600985 445.876847 94.7241379 451.073892 88.8817734 454.566502 84.044335 457.216749 80.3694581 459.985222 75.4581281 458.783251 70.7438424 457.871921 67.0935961 454.738916 64.0098522 451.921182 61.8029557 452.161228 61.9657696 452.387 62.1486941 452.596059 62.3497537M409.487685 78.1231527C409.875717 78.8070242 410.126704 79.559985 410.226601 80.3399015M401.359606 90.1921182C404.241379 88.5665025 408.935961 88.7142857 412.197044 87.9211823 413.842365 87.5320197 416.862069 86.2019704 417.615764 86.0049261M404.315271 130.093596C404.453202 127.965517 403.906404 125.79803 403.970443 123.64532 404.162562 117.123153 406.211823 109.768473 408.536946 103.70936 410.81046 98.0192265 414.009644 92.7444018 418.004926 88.0985222"/>
      <path stroke="#333" stroke-linecap="round" stroke-linejoin="round" stroke-width="2" d="M431.901478 75.1674877C432.935961 76.7832512 435.91133 77.8128079 437.625616 78.7389163 439.635326 79.7639068 441.767433 80.5286842 443.970443 81.0147783 446.295567 81.6157635 455.44335 83.2463054 456.44335 81.1970443M422.295567 77.8768473C422.788177 83.7438424 431.522167 87.0541872 436.261084 88.4630542 440.615764 89.7536946 446.605911 90.7487685 450.79803 88.7586207M353.241379 112.17734C353.713906 111.802382 354.108794 111.338891 354.403941 110.812808"/>
      <path fill="#333" fill-rule="nonzero" d="M81.2216749 78.6995074C81.4269886 79.5811654 82.25124 80.1762243 83.1527094 80.0935961 83.182266 79.9852217 83.2068966 79.8768473 83.2364532 79.773399 84.1576355 76.2610837 85.137931 72.2610837 86.2807882 68.1871921 84.1674877 67.9852217 81.7881773 67.9162562 79.5270936 67.6945813 79.6447468 71.4179291 80.2137659 75.1132446 81.2216749 78.6995074L81.2216749 78.6995074zM135.068966 19.1083744C132.009852 21.3448276 128.334975 21.2610837 124.724138 21.5714286 120.652485 21.9371198 116.646301 22.8347436 112.807882 24.2413793 106.82266 26.453202 100.458128 30.0738916 99.1231527 36.5812808 90.8325123 35.5369458 85.2906404 43.2216749 82.5073892 50.270936 82.0837438 51.3497537 81.7044335 52.4482759 81.3694581 53.5566502 83.4884964 53.4245576 85.6131611 53.4081128 87.7339901 53.5073892 87.5807491 57.0262841 88.2257549 60.5342402 89.6206897 63.7684729 90.2561576 65.270936 92.270936 64.8078818 93.0246305 63.7684729 95.7980296 59.9211823 98.9064039 56.1625616 101.315271 52.0738916 103.098522 49.044335 103.625616 45.9458128 103.477833 42.6305419 106.040909 43.1225648 108.67849 43.0739071 111.221675 42.4876847 115.044335 41.6009852 118.083744 39.2906404 121.172414 36.9950739 127.083744 32.591133 134.118227 28.4433498 137.783251 21.8078818 138.64532 20.1970443 136.748768 17.8817734 135.068966 19.1083744z"/>
    </g>
  </g>
</svg>
