<svg xmlns="http://www.w3.org/2000/svg" width="479" height="340" viewBox="0 0 479 340">
  <g fill="none" fill-rule="evenodd" transform="translate(1)">
    <path fill="#F4F6F9" fill-rule="nonzero" d="M39.6980819,187.643514 L90.2430598,173.095137 C77.480242,194.366471 67.3077649,217.088153 59.9424267,240.775934 C58.3192854,246.004725 64.314726,249.861932 68.7409303,247.544014 L108.229381,226.868429 C100.243863,240.765571 95.5325212,256.300707 94.4536439,272.292426 C99.9819073,269.447437 105.360434,266.560521 110.42751,263.859279 C120.094484,258.690383 130.677844,252.090008 141.656508,249.173145 C151.675731,246.288418 161.85266,243.982661 172.136825,242.267308 C175.802369,241.668363 179.61166,241.219154 183.468866,240.829839 L183.468866,240.829839 C180.300447,236.038279 183.64256,225.532781 188.685678,227.054102 C185.894594,224.221092 186.092246,218.465229 190.572355,218.177735 L190.73407,218.177735 L190.494492,217.57879 C190.494492,217.57879 185.517259,206.378517 182.504565,202.036165 C182.983721,201.790597 183.468866,201.557009 183.948022,201.32342 L183.468866,200.293234 L180.282478,194.501435 C174.891972,197.034973 170.417852,198.095106 163.110722,196.897216 C155.803592,195.699325 148.226936,192.189507 145.579599,187.619556 C142.524978,190.374703 136.691253,190.787976 132.959825,187.296126 C128.946893,183.53475 126.611007,167.303338 136.739169,164.134918 L136.781095,164.206791 C137.481861,156.282748 143.369491,150.844326 152.269815,150.844326 L152.317731,151.02401 C155.743697,147.729812 161.954758,146.232449 168.357481,146.232449 L168.80669,146.124639 C167.17157,143.501259 164.673969,141.009647 159.714703,139.386506 C153.797125,137.451913 146.100681,136.080329 139.787799,136.793074 C134.714734,137.362072 125.49098,139.907588 120.78926,137.613629 C115.829995,135.217848 117.261474,129.006787 122.412402,126.233671 C129.000798,122.675938 136.685264,122.274644 143.884584,122.041056 C152.120079,121.753562 159.391273,123.604302 167.243443,125.718579 C196.268323,133.504865 211.69116,164.338559 226.137716,187.308104 L226.281463,187.721377 C231.576138,187.188315 231.378486,190.069241 233.762287,195.639431 C235.277618,199.185186 238.20047,209.864377 238.20047,209.864377 C246.310187,210.277649 252.808742,214.056993 254.228242,225.125499 L254.599588,227.269722 C256.862992,226.740591 259.154664,226.340648 261.463499,226.071832 C270.651317,218.285546 278.186046,210.313586 286.140037,201.383315 C279.901182,191.351279 273.079469,181.693686 265.710019,172.460255 C261.537368,167.209503 257.183037,162.106491 252.647027,157.151218 C250.442909,154.755438 248.196864,152.383615 245.908894,150.03575 C243.746702,147.831632 241.249101,145.77725 239.320498,143.38147 C237.871051,141.584635 239.554086,140.98569 241.117333,139.446401 C243.513114,137.110515 245.980767,134.828534 248.472379,132.594469 C253.918787,127.715062 259.564843,123.073238 265.410547,118.668995 C267.566749,117.045853 268.926355,114.68002 268.159705,111.906904 C267.506855,109.511124 264.973317,107.271069 262.385874,107.504658 C248.256776,108.78842 234.055648,109.090614 219.884729,108.409065 C229.891466,91.8640726 241.764412,76.5224905 255.270406,62.6855953 C259.966136,57.8940344 253.946737,49.7304125 248.011191,53.2761676 C225.047636,67.0119754 201.551019,79.7894711 177.521341,91.6086547 C168.929545,64.8459659 163.172054,37.2549798 160.343596,9.28963866 C160.242314,8.28158428 159.945275,7.30298482 159.469136,6.40871268 C159.19961,2.46765386 155.845518,-0.281504202 151.89248,0.658839622 C145.274137,2.22807581 142.818462,8.6487674 142.255453,14.763997 C141.584635,22.0771168 142.171601,29.5699201 141.734371,36.9249661 C140.979893,49.6307856 139.249835,62.2598111 136.559485,74.7004342 C116.281185,61.3705111 95.3237781,49.1035411 73.7720693,37.9491622 C68.908635,35.4335927 61.8231143,40.9438878 65.5785002,46.1487208 C78.8331554,64.620188 92.1896314,83.1814969 107.552573,99.9699284 C88.828038,96.0140517 69.7835957,93.7627981 50.652788,93.2437748 C44.9807778,93.0880491 42.1357885,101.850616 47.6281152,104.402122 C63.9003411,111.96041 79.6055858,120.683767 94.6213486,130.50415 C88.3144565,140.00342 78.4797778,146.32229 68.657078,152.173984 C56.3427665,159.505072 43.3276893,166.548667 33.9182616,177.629151 C30.1868336,181.959525 33.5828523,189.398423 39.6980819,187.643514 Z"/>
    <g transform="translate(0 59.895)">
      <path stroke="#333" stroke-linecap="round" stroke-linejoin="round" stroke-width="2" d="M0.401293224,278.275888 C24.6226335,279.899029 50.1736319,275.436888 74.5566874,276.347285 C117.08179,277.934489 159.52903,274.478576 202.131996,273.771821 C283.588531,272.430184 366.039315,269.926593 447.435955,272.963245 C458.881796,273.388496 476.382973,273.502295 476.382973,273.502295"/>
      <path stroke="#333" stroke-linecap="round" stroke-linejoin="round" stroke-width="2" d="M181.833746,273.610105 C188.66771,255.474047 189.775758,243.525092 192.26138,234.942209 C194.549351,244.525331 198.05318,264.164741 204.521787,273.610105"/>
      <path stroke="#333" stroke-linecap="round" stroke-linejoin="round" stroke-width="2" d="M468.680538,272.693719 C467.668321,262.637431 465.212646,255.054786 463.823094,248.975493 C461.187735,237.427831 457.462297,228.659275 449.562211,216.560584 C431.971193,217.327233 414.110649,217.075676 396.202191,218.67486 C380.360092,220.08837 363.859155,221.346155 347.969141,219.752961 C339.446152,218.902459 331.300498,216.15929 323.076982,214.302561 C311.888687,211.810949 304.294063,208.989917 294.986456,201.910386 C285.828586,194.938665 279.479767,184.391242 269.339627,178.677305 C255.126659,170.66342 233.307089,172.346456 220.41779,182.270976 C213.122639,187.883092 207.570417,195.016528 202.910625,202.95854 C198.340673,210.744827 194.932676,219.279794 192.129613,228.958747 C187.505756,209.678704 180.91736,199.011492 168.998352,192.213465 C148.496461,180.516067 127.976602,194.609245 110.445478,203.976747 C95.2023253,212.116411 77.1022041,221.909163 60.7330342,227.335606 C51.2517331,230.480068 34.4333544,234.522947 24.1973825,232.803975 C17.1273075,247.485718 11.5104056,262.823873 7.42691937,278.599318"/>
      <path stroke="#333" stroke-linecap="round" stroke-linejoin="round" stroke-width="2" d="M141.566666 189.296602C151.606185 186.398019 161.80538 184.084202 172.112867 182.366807 183.10517 180.675627 194.20877 179.810724 205.330363 179.779364 209.846409 179.779364 217.309265 179.50385 221.256313 181.402506M227.898615 177.826803C234.361232 174.790152 245.166202 170.148327 252.054071 168.034051 260.780701 165.356766 270.842979 165.590355 279.845124 164.703916 294.471364 163.272437 309.67259 162.224283 324.167062 164.703916 338.397998 167.147612 354.5216 174.951867 366.506492 183.331109 380.707481 193.267608 399.286758 205.060837 410.930251 209.085749 422.573744 213.11066 433.360745 216.356942 449.574189 216.530636M182.384776 231.642021C178.886936 226.562967 170.363947 220.477685 164.823705 218.399345 157.714227 215.740029 149.334984 216.003565 141.908065 217.572801 122.286623 221.765417 108.768432 232.115188 90.2550387 239.607991 80.8695688 243.405303 63.1527725 247.280478 53.719387 249.191113M24.9700217 269.153954C62.9012155 266.955825 84.6968281 258.582573 97.44238 257.019326 115.66828 254.79125 134.882439 254.174337 152.946623 256.132887 159.115758 256.803706 170.579567 260.205714 176.101841 262.721283M177.814824 245.890926C169.729065 241.58451 152.784908 236.307804 136.128245 241.889972M206.636063 228.659275C214.847601 218.249609 219.896708 210.038071 231.959462 203.593422 242.249339 198.095106 250.586655 197.562045 261.45152 202.671046 268.896407 206.168886 281.120877 213.661689 288.296239 217.842326M211.840896 239.745749C220.729242 235.936458 236.397646 229.336083 246.298208 228.365792 254.35402 227.569195 262.331969 228.174129 270.309918 228.916821 287.110328 230.480068 303.940686 236.343741 320.399697 239.799654 325.798562 240.903665 331.294228 241.465471 336.804804 241.4767M352.01801 220.100349C356.59994 233.61854 359.804296 255.923256 361.18187 271.519787M215.877786 257.546398C229.210304 256.348507 237.613504 255.917267 251.568925 255.150617 262.050465 254.587609 294.495321 256.947452 294.495321 256.947452"/>
      <line x1="321.22" x2="325.545" y1="257.546" y2="257.546" stroke="#333" stroke-linecap="round" stroke-linejoin="round" stroke-width="2"/>
      <path stroke="#333" stroke-linecap="round" stroke-linejoin="round" stroke-width="2" d="M446.992736 235.103924C441.907692 234.744557 411.091966 235.403397 405.461882 236.751023M453.814721 245.07636C441.05719 246.16644 381.671782 247.364331 369.549133 247.741666M446.813052 257.546398C423.412267 257.546398 400.298975 257.546398 375.340932 258.744288M254.228242 165.20104C251.005917 140.045346 221.651617 152.575277 206.66601 156.432484 201.43722 157.78011 195.052465 157.965783 190.566366 158.259267 186.080267 158.55275 185.888604 164.302623 188.679689 167.135633 183.636571 165.626291 180.294457 176.11981 183.462877 180.911371"/>
      <path stroke="#333" stroke-linecap="round" stroke-linejoin="round" stroke-width="2" d="M190.464545 157.636364C190.464545 157.636364 185.487311 146.43609 182.474617 142.093738 191.06349 137.787323 198.861756 135.104049 207.750101 131.959587 212.745303 130.198688 219.130058 129.066682 224.520564 128.060454 231.630043 126.718817 231.10896 129.587764 233.750308 135.714973 235.265639 139.260728 238.188492 149.939919 238.188492 149.939919M226.137716 127.383646C211.69116 104.414101 196.268323 73.5923857 167.243443 65.7941204 159.373304 63.6798441 152.102111 61.8291038 143.884584 62.1165974 136.697243 62.3681544 129.024756 62.7694476 122.412402 66.3092132 117.261474 69.0883185 115.824005 75.2933898 120.78926 77.6891703 125.49098 79.9831301 134.714734 77.4376133 139.787799 76.8686155 146.100681 76.1558708 153.797125 77.5274551 159.714703 79.4620478 165.955711 81.5044506 168.297587 84.9124483 169.932707 88.2485726"/>
      <path stroke="#333" stroke-linecap="round" stroke-linejoin="round" stroke-width="2" d="M184.055832 97.2986332C175.305244 97.0590552 164.530222 98.8199538 156.995492 100.892304 152.623193 102.090194 147.364455 103.252148 145.363978 108.013761 143.363502 112.775375 146.87332 115.913847 152.132058 116.003689 158.319161 116.117489 164.512254 114.805799 172.909464 115.003451 171.711574 117.998176 171.501943 125.694621 175.90419 127.359688M168.339513 86.3319482C156.737946 86.3319482 145.753293 91.2792348 150.844326 102.826897"/>
      <path stroke="#333" stroke-linecap="round" stroke-linejoin="round" stroke-width="2" d="M152.251847,90.9558045 C141.165373,90.9558045 134.708745,99.4248883 137.230304,110.631151 C139.967483,122.825674 156.995492,129.19845 159.696735,118.201818"/>
      <path stroke="#333" stroke-linecap="round" stroke-linejoin="round" stroke-width="2" d="M136.7212,104.246396 C126.593039,107.414816 128.934914,123.646229 132.941857,127.407604 C138.332363,132.462701 148.161052,129.336207 147.556117,122.75979"/>
      <path stroke="#333" stroke-linecap="round" stroke-linejoin="round" stroke-width="2" d="M145.543662 127.731034C148.190999 132.300985 155.767655 135.846741 163.074785 137.008694 170.381916 138.170648 174.879993 137.140462 180.246542 134.612914L183.444908 140.356797M261.463499 166.141384C271.861186 157.312933 280.132618 148.28683 289.302467 137.883154 296.621577 129.581775 303.982612 120.813218 310.499135 108.037719 315.4584 111.158223 320.962706 112.943079 336.948551 113.733687 352.934396 114.524295 367.452825 113.769624 372.376154 112.961048 378.191911 112.002736 378.922624 114.997461 380.330145 120.813218 381.791571 126.892511 383.851942 132.744205 387.110204 137.583681 395.459499 149.957887 400.586469 156.4804 410.732599 171.292312 420.878729 186.104225 429.156151 198.999513 437.88877 214.895516"/>
      <path stroke="#333" stroke-linecap="round" stroke-linejoin="round" stroke-width="2" d="M304.581557 127.623224C306.378392 133.612675 310.295493 138.230542 317.698455 134.145736 323.622022 130.881486 328.77295 127.401614 333.145249 120.813218 337.858947 131.252832 342.392962 136.188139 350.406847 141.177352 358.702237 146.32828 371.100401 140.368776 377.323441 133.534812M312.565495 107.396848L310.864491 69.6633058C310.864491 69.6633058 291.177165 72.2208014 282.923702 73.8020165 285.02001 63.3204771 288.314208 56.1511041 291.698248 48.3947649 295.471602 39.7699553 299.113188 31.8698693 305.575806 24.868201 317.291172 12.1765541 342.063542.784618095 356.072868 16.9142099 364.260448 26.341606 362.793032 40.057449 363.439893 51.6829736 371.621483 49.8861383 384.169383 42.0519362 389.422132 53.7792815 394.998311 66.2373398 376.053677 66.2553081 368.285359 66.4230128 369.710848 77.6831808 374.238873 104.695605 375.227133 111.715242M332.552294 77.6891703C340.548211 77.6891703 345.519455 73.6403013 345.519455 69.5854429"/>
      <line x1="327.15" x2="328.234" y1="46.897" y2="51.701" stroke="#333" stroke-linecap="round" stroke-linejoin="round" stroke-width="2"/>
      <line x1="319.453" x2="320.531" y1="48.706" y2="53.51" stroke="#333" stroke-linecap="round" stroke-linejoin="round" stroke-width="2"/>
      <path fill="#333" fill-rule="nonzero" d="M373.142804 48.6822586C372.999057 47.1928817 372.823366 45.7035049 372.615732 44.2141281 372.016787 40.0215123 371.417842 34.2656498 369.483249 29.5100256 367.686414 22.6341357 363.763323 11.5835984 357.456431 8.01388558 354.982788 6.14517683 352.065925 5.19285411 348.819643 5.89960934 348.819643 5.84570428 348.777717 5.78580977 348.747769 5.73190471 347.849352 3.75538584 345.459561 2.50958001 343.560905 1.71897247 338.931059-.221609691 333.624405.221609691 328.940655 1.71897247 317.440909 5.42045325 310.253567 16.0277712 299.173083 20.4539755 297.56791 21.0948468 297.651762 23.6223952 299.604323 23.6343741L315.488348 23.7421842C320.279908 23.7781209 325.161311 23.8440048 329.928914 22.9875133 334.310736 22.271108 338.426121 20.4117472 341.859901 17.5970073 342.458846 22.6940302 345.13613 28.6954602 349.562335 32.1393946 353.00028 34.8106898 356.072868 37.2124597 357.288727 41.5907485 358.648332 46.5080878 359.253267 51.7189103 360.181632 56.7320809 360.475115 58.3372538 363.529735 58.2174647 363.901081 56.7320809 364.3443 54.9771717 364.769551 53.1384102 365.164855 51.2577226 367.62053 50.532999 370.357709 49.4968239 373.142804 48.6822586zM368.285359 66.4290022C368.626758 69.082329 369.135861 72.6280841 369.728817 76.5691429 370.591298 77.2219931 372.124597 77.0602779 372.31027 75.7905143 372.801405 72.6280841 373.154783 69.457668 373.370403 66.2792659 371.453779 66.3691077 369.686891 66.399055 368.285359 66.4290022z"/>
      <path stroke="#333" stroke-linecap="round" stroke-linejoin="round" stroke-width="2" d="M331.432266 130.198688C328.329731 135.846741 331.432266 141.614582 332.630157 147.370444 334.061635 154.07264 329.150285 158.456918 328.629203 164.536211M336.918604 142.375242C336.972045 142.681181 337.21161 142.920746 337.517549 142.974187M336.319658 161.541486C336.73892 161.661275 337.086308 161.751117 337.517549 161.840958"/>
    </g>
    <g stroke-linecap="round" stroke-linejoin="round" stroke-width="2" transform="translate(52.845 120.645)">
      <path fill="#FFE945" fill-rule="nonzero" stroke="#FFE945" d="M19.8797391,7.1544798 C16.6971594,10.6254651 10.0132359,12.016895 5.75799011,13.9648969 C1.50274434,15.9128988 -0.87533593,24.1754629 0.414899111,28.6381582 C1.2295181,31.481735 3.32931238,33.9812492 3.37990983,36.9361404 C3.44062678,40.341349 0.774141025,43.2051648 0.172031339,46.5496564 C-0.617288922,50.9364556 2.87899505,55.6116602 7.30627216,56.092336 C9.03670504,56.2795465 10.8076159,55.9152449 12.51275,56.2643673 C18.1189478,57.4078697 19.9758743,65.2352957 25.3695627,67.1529391 C28.9974001,68.4381144 32.9895391,66.5862476 36.0557447,64.2587648 C39.1219504,61.931282 41.889631,59.0219285 45.5225281,57.7468727 C48.9277367,56.547713 52.8237405,56.9018952 55.9860813,55.1613428 C58.733236,53.6084876 60.4624643,50.7264403 60.5398521,47.571725 C60.600569,42.7497877 56.7399834,38.1858975 57.939143,33.5106929 C58.5058345,31.3198232 60.104714,29.5539721 60.9749902,27.469357 C62.6431304,23.1617454 61.112892,18.272959 57.2864359,15.6852103 C54.9285946,14.1672867 52.0243008,13.7726266 49.5551451,12.4520331 C45.4314527,10.2409244 43.3923754,5.32285202 39.4609533,2.7727404 C31.1781503,-2.59058957 25.2987263,1.23963759 19.8797391,7.1544798 Z"/>
      <circle cx="22.708" cy="25.744" r="4.372" stroke="#333"/>
      <circle cx="39.021" cy="42.057" r="4.372" stroke="#333"/>
      <path stroke="#333" d="M40.1541384,23.9427146 C34.1886987,31.5323325 26.3460936,37.0221561 20.9271064,45.0418523"/>
    </g>
  </g>
</svg>
