<svg xmlns="http://www.w3.org/2000/svg" width="436" height="342" viewBox="0 0 436 342">
  <g fill="none" fill-rule="evenodd" transform="translate(1 1)">
    <path fill="#F4F6F9" fill-rule="nonzero" d="M222.053838 4.67169919C221.216351 20.3332859 220.179462 39.3790058 220.179462 39.3790058 221.730537 44.4039642 222.378647 49.6640776 222.093719 54.9152542 232.348668 56.3338556 247.543085 70.2691924 253.673266 78.2281726 263.124911 90.4942316 271.334568 106.839482 277.031762 127.571571 282.728956 148.30366 288.614158 157.7667 291.371599 157.659371 294.129041 157.550207 298.43612 153.545079 300.714998 143.808574 302.993876 134.07207 302.86284 125.070503 303.284432 116.610169 303.449651 113.294403 302.828657 107.65418 305.329725 105.061957 306.09834 104.301758 307.079852 103.79312 308.144139 103.603475L307.631392 103.506623C307.631392 103.506623 305.494944 87.6342401 309.636804 84.2444096 309.920445 84.0152424 310.223546 83.8112685 310.542658 83.6348099L310.246404 81.8686797 310.246404 74.5819684C299.991454 68.7423444 295.131748 54.7728244 300.903005 44.3868395L300.903005 39.5385273C298.078634 40.3199265 295.20705 40.9193625 292.305939 41.3331434 284.626122 42.3985187 276.570289 42.0851731 269.312064 38.7864976 262.532403 35.7100128 256.698476 30.8787922 251.041162 25.8424726 245.098989 20.5554764 239.253668 15.0918673 232.718986 10.6651474 229.332434 8.38128277 225.765609 6.37684905 222.053838 4.67169919zM99.4673123 45.4180316C99.2394246 45.4901961 99.0115368 45.5585624 98.7836491 45.6231306 99.780658 50.9898875 100.418744 56.0717846 100.418744 56.0717846 107.876371 55.7242558 112.382851 64.9024356 105.261359 76.0119641 112.667711 77.1855861 116.416465 86.574562 118.256659 95.9179604 122.711156 85.5139441 129.409263 76.2225819 137.872098 68.7081612 142.224754 64.8739496 147.454779 62.5779803 152.65062 60.2136448 158.84347 57.3992309 170.129611 54.9152542 170.129611 54.9152542 175.108959 48.5514884 176.094573 39.9088449 177.256801 31.7675545 177.997436 26.6001994 178.082894 21.364478 178.869107 16.1914257 179.011537 15.2855719 179.148269 14.0891611 179.273608 12.824384L179.176755 12.767412C178.839738 13.0417656 178.401471 13.158877 177.972524 13.0892003 177.543577 13.0195236 177.164912 12.7697126 176.932061 12.4027916 175.720839 10.0666096 174.765757 7.6063171 174.083464 5.06480558L174.174619 5.06480558C171.257656 4.52926933 168.14129 3.19612591 167.241134 6.47695985e-14 152.616436 3.94815553 140.373166 12.647771 128.887623 23.0622418 122.683378 28.6910696 116.598775 34.5192992 109.910269 39.4644638 106.662869 41.9028628 103.284432 44.1874377 99.4673123 45.4180316zM418.122775 55.0576841C416.208517 46.6999003 413.815696 37.9262213 408.921806 30.9813417 404.027916 24.036462 397.350805 19.5128899 389.80772 16.8636946 374.374021 11.4342686 357.874947 15.5305512 343.130608 21.5752742 344.154173 22.1418726 345.087407 22.8581196 345.899445 23.7003276 348.14404 25.9150261 349.188838 29.0727307 348.708161 32.1891468L349.078479 32.3030907C354.080615 33.6875089 355.299815 37.652756 354.564877 41.9883208L354.980772 42.1193562C359.538527 42.905569 360.14243 48.2324455 359.196696 52.9440251L360.387409 53.4453782C363.549352 56.3794331 363.047999 63.4097707 360.176613 66.4577695 358.97722 67.6354335 357.378678 68.3187798 355.698618 68.3720268L355.960689 69.1810283C354.701609 75.2428429 350.394531 77.9034326 346.31534 78.4275744L345.785501 86.1985472C346.605526 86.6112414 347.380669 87.107639 348.098561 87.6798177 350.981342 90.0327589 350.058396 95.3368466 350.058396 99.1596639L350.058396 111.551061 348.918957 111.328871C359.584105 118.359208 356.895029 130.038456 357.367896 138.470303 357.884922 146.251525 357.797302 154.061137 357.105825 161.828799L380.361772 161.549637 394.13189 161.384418C398.438969 161.333143 403.059393 161.806011 407.298106 160.945734 412.055263 159.977211 413.992309 156.091725 415.382424 151.4713 416.647201 147.243982 417.750558 142.961591 418.692494 138.624128 420.665923 129.425974 421.962659 120.095571 422.572283 110.707876 423.828343 92.0399707 422.329097 73.2888452 418.122775 55.0576841L418.122775 55.0576841zM54.6303945 148.292266C53.5194417 140.373166 49.6453497 132.966814 49.1838769 124.831221 48.9314953 118.726787 49.1047296 112.612186 49.7023216 106.531833 50.4657456 97.5701467 51.5482125 90.0099701 56.5731377 82.2048141 57.6518733 80.5495361 58.9131668 79.0206955 60.3332859 77.6470588L60.3332859 77.6470588C60.3332859 77.6470588 52.9269335 52.5794046 55.7470446 50.9841903 55.2248668 50.8367297 54.7261707 50.6161526 54.2657741 50.329013 49.8751467 52.1942498 45.6772628 54.4840046 41.731947 57.1656459 28.4631819 66.1558183 18.077197 79.5784076 11.2348668 94.8297963 7.78536374 102.597897 5.13025749 110.694922 3.31006979 118.997294 1.60091155 126.768267-.108246689 135.359635.461472725 143.415468 1.03119214 151.961259 5.08759436 159.259365 12.9611167 161.606609 16.8238143 162.746048 21.011252 162.535251 24.9708019 162.563737L38.8605612 162.677681 52.7446233 162.791625C53.8954565 157.652756 55.2627831 152.639225 54.6303945 148.292266z" transform="translate(10.825 144.586)"/>
    <g transform="translate(0 24.697)">
      <path stroke="#333" stroke-linecap="round" stroke-linejoin="round" stroke-width="2" d="M232.918388 174.804159C243.173337 176.22276 258.367754 190.158097 264.497935 198.11138 273.94958 210.383136 282.159237 226.728386 287.856431 247.460476 293.553625 268.192565 299.438826 277.655605 302.196268 277.547358 304.95371 277.439111 309.255092 273.433984 311.539667 263.697479 313.824242 253.960974 313.687509 244.959407 314.109101 236.499074 314.27432 233.183307 313.653326 227.543085 316.154394 224.950862 318.900442 222.102265 324.660305 223.612021 328.198262 224.210226 338.088591 225.890899 350.246404 225.509187 358.917533 230.705028 370.539809 237.661302 367.691212 249.716565 368.181171 258.359208 369.32061 278.424726 368.659735 283.426862 367.286711 288.195414 366.221336 291.875801 364.734368 304.495086 356.501923 304.859707 348.269477 305.224327 357.322319 292.929782 361.407207 300.672269 363.720268 305.053411 358.752314 312.493947 355.869534 314.744338M63.478137 300.159521C59.0628116 289.904572 66.765418 277.50178 65.4550634 268.181171 64.3441105 260.262071 60.4700185 252.855719 60.0085458 244.720125 59.7561641 238.615692 59.9293985 232.501091 60.5269905 226.420738 61.2904145 217.459051 62.3728814 209.898875 67.3978066 202.093719 72.1378721 194.687366 80.3019513 190.898732 87.4576271 186.113089 94.1119499 181.663581 103.780088 176.302521 111.243413 175.960689 118.706737 175.618858 123.20752 184.79134 116.086028 195.900869 130.044153 198.11138 130.955704 229.332004 130.733514 234.750036 130.528415 239.786355 130.163794 253.48241 124.438114 255.829654 119.601196 257.812277 119.680957 253.921094 120.096852 249.99003 120.865974 242.703319 123.463894 235.012107 125.104686 227.879219 128.523002 212.958268 137.148554 198.783649 148.708161 188.60846 153.060818 184.774249 158.290842 182.478279 163.486683 180.113944 169.679533 177.29953 180.965674 174.815553 180.965674 174.815553"/>
      <path stroke="#333" stroke-linecap="round" stroke-linejoin="round" stroke-width="2" d="M318.473152 223.395528C318.473152 223.395528 316.336704 207.523145 320.478564 204.133314 324.620424 200.743484 334.220197 202.532403 342.657741 203.050847 351.095286 203.569292 356.057542 205.215781 358.946019 207.568722 361.834497 209.921664 360.905854 215.225751 360.905854 219.048569L360.905854 231.439966M321.071072 194.470873C310.622418 188.511608 305.74562 174.069221 312.097992 163.631961 317.145706 155.342544 335.940749 145.999145 342.452642 157.82652 347.363623 166.759721 333.120638 167.802307 327.993163 166.053269 332.015382 166.810996 335.969235 173.510896 335.969235 179.789204"/>
      <path stroke="#333" stroke-linecap="round" stroke-linejoin="round" stroke-width="2" d="M324.261501,147.030338 C329.530461,144.74871 334.929376,142.779761 340.430138,141.133742 C346.241276,139.527133 352.257513,138.991597 356.724113,143.589232 C363.970944,151.052557 356.154394,161.615155 350.069791,167.802307 C344.828372,173.169064 338.726677,172.929782 337.290984,167.847885"/>
      <path stroke="#333" stroke-linecap="round" stroke-linejoin="round" stroke-width="2" d="M311.727658 163.00527C311.727658 145.087594 311.682097 127.631392 316.50762 110.51702 317.459051 107.155676 319.31064 95.6416465 327.332289 99.6923515 331.827375 101.971229 329.161088 115.729953 328.887623 120.20225 328.517305 126.264065 328.420453 138.718131 328.420453 144.574847M343.683236 152.681954C342.667595 153.667267 341.834349 154.824553 341.222048 156.100271M359.903148 152.191995C369.303518 154.795613 365.343968 166.503347 360.165219 172.747472 354.986469 178.991597 349.876086 180.848882 346.389403 179.236576 343.540806 177.920524 341.335992 174.513602 344.287139 171.442814"/>
      <path stroke="#333" stroke-linecap="round" stroke-linejoin="round" stroke-width="2" d="M365.805441,162.048141 C372.767412,163.255946 370.505626,175.060533 367.582965,178.985899 C365.549067,181.714855 361.885771,185.127475 357.897735,184.164649 C354.980772,183.463894 353.431135,180.746332 354.957983,177.778094"/>
      <path stroke="#333" stroke-linecap="round" stroke-linejoin="round" stroke-width="2" d="M371.212078 173.328586C374.374021 176.262641 373.872668 183.292978 371.001282 186.340977 368.038741 189.480131 360.820396 188.921806 362.398519 183.549352M366.785358 189.064236C365.298391 196.214214 359.578408 198.641219 354.986469 198.401937"/>
      <line x1="357.37" x2="356.662" y1="198.402" y2="205.62" stroke="#333" stroke-linecap="round" stroke-linejoin="round" stroke-width="2"/>
      <path stroke="#333" stroke-linecap="round" stroke-linejoin="round" stroke-width="2" d="M71.1351659,197.535964 C71.1351659,197.535964 63.7288136,172.468309 66.5489247,170.873095 C69.3690357,169.277881 82.0054123,162.623558 89.0414471,159.279305 C92.414186,157.672696 102.532403,151.91853 105.56331,153.13773 C108.594217,154.356929 111.260504,175.960689 111.260504,175.960689"/>
      <path stroke="#333" stroke-linecap="round" stroke-linejoin="round" stroke-width="2" d="M105.261359 151.702037C107.967526 143.771543 104.452357 129.739353 109.99003 123.734511 117.094431 116.031904 130.329013 107.998861 125.833927 103.122062 120.165219 96.9633955 112.986754 104.090585 107.825096 106.830936 102.17348 109.833357 96.7155676 112.983905 90.2834354 116.801025 63.4268623 105.851018 52.1521151 111.912833 36.9349096 115.205811 31.1750463 116.470588 18.2310212 121.028344 27.7738214 126.691355 35.4023643 131.214927 47.7140009 132.035323 52.2717562 139.903148 55.0918673 144.75146 57.108674 151.257656 58.458909 156.63011 59.3875516 160.327589 61.2733229 169.408916 66.5546218 170.873095M26.6115938 119.746475C31.6536106 118.322176 44.4267198 122.595072 47.5658738 124.583393M39.8803589 114.829796C45.4237288 115.826805 51.7476143 118.817832 56.1059678 120.732089M54.6303945 112.374306C59.0969947 113.718843 63.5977781 116.567441 67.8991597 118.270902M180.965674 174.804159C185.945022 168.440393 186.930637 159.79775 188.092864 151.656459 188.8335 146.489104 188.918957 141.253383 189.70517 136.08033 190.223615 132.696197 190.724968 125.227176 190.724968 125.227176 190.724968 125.227176 176.043299 126.725538 178.014528 116.06039 179.102692 110.197977 186.452072 103.4525 192.679106 105.919385 194.17177 93.8356359 193.915397 81.6493377 205.423729 74.3968096 218.356359 66.2555192 232.565162 81.4328443 241.635095 90.0640934 248.014898 96.1296932 253.848538 102.744965 259.068509 109.833357 251.502635 110.779091 233.641931 109.981484 233.641931 109.981484 232.929782 123.996582 231.00413 159.267911 231.00413 159.267911 234.547785 170.873095 233.317191 184.113374 227.836491 184.307079 222.35579 184.500783 219.210939 174.792765 214.966529 170.035607 212.795898 175.778379 205.645919 185.047714 198.182595 185.059126 190.719271 185.070503 183.609172 179.424583 180.965674 174.804159zM187.847885 155.633101C196.963396 165.483549 218.29369 164.139012 229.141148 158.584247M183.916821 115.815411C185.232735 115.69593 186.519551 116.251406 187.335137 117.290984M208.654038 115.091867C210.061245 117.621421 212.972511 118.191141 215.536248 117.057399"/>
      <line x1="212.062" x2="212.062" y1="99.516" y2="97.47" stroke="#333" stroke-linecap="round" stroke-linejoin="round" stroke-width="2"/>
      <line x1="222.887" x2="222.887" y1="98.12" y2="95.659" stroke="#333" stroke-linecap="round" stroke-linejoin="round" stroke-width="2"/>
      <path stroke="#333" stroke-linecap="round" stroke-linejoin="round" stroke-width="2" d="M213.257371 190.066942C213.82709 195.73565 210.864549 204.139012 209.839054 209.682381 208.232446 218.336419 205.395243 226.523287 205.366757 233.428287 205.338271 240.333286 206.830936 243.819969 210.676542 246.531833 214.522148 249.243697 216.009116 251.118074 215.747045 256.04045 215.382424 262.831505 212.630679 270.283435 209.816265 276.396525 208.055833 280.225039 204.745763 284.372596 208.597066 287.665575 213.200399 291.562455 218.852015 288.138442 220.612448 296.211366 221.649338 301.025495 219.997151 307.326592 218.726677 311.850164M234.547785 223.978852C241.851588 223.978852 248.164079 223.015085 255.18872 224.493406"/>
      <line x1="250.184" x2="249.468" y1="220.034" y2="230.357" stroke="#333" stroke-linecap="round" stroke-linejoin="round" stroke-width="2"/>
      <path stroke="#333" stroke-linecap="round" stroke-linejoin="round" stroke-width="2" d="M244.063552,219.048569 C244.063552,223.606324 245.039168,229.064236 243.555049,233.291554"/>
      <line x1="212.426" x2="214.397" y1="228.255" y2="227.27" stroke="#333" stroke-linecap="round" stroke-linejoin="round" stroke-width="2"/>
      <line x1="221.723" x2="223.444" y1="261.384" y2="260.767" stroke="#333" stroke-linecap="round" stroke-linejoin="round" stroke-width="2"/>
      <line x1="228.401" x2="226.931" y1="298.56" y2="298.708" stroke="#333" stroke-linecap="round" stroke-linejoin="round" stroke-width="2"/>
      <path fill="#333" fill-rule="nonzero" d="M184.930922 124.95371C185.613214 127.495222 186.568297 129.955514 187.779519 132.291696 188.025835 132.679093 188.432845 132.935667 188.88859 132.990842 189.344336 133.046017 189.800814 132.893982 190.13246 132.576556 190.474291 129.15824 190.736362 125.227176 190.736362 125.227176 188.797505 125.385935 186.84627 125.294022 184.930922 124.95371zM226.024783 69.7535964L213.416892 68.391967C209.690927 67.9874662 205.930779 67.3892608 202.204814 68.1014101 197.168495 69.0642359 189.99003 73.029483 189.408916 78.7608603 189.246904 79.8811152 189.500197 81.0219447 190.121065 81.9683806 190.205602 82.0856513 190.296912 82.1978871 190.394531 82.304515 184.156103 86.4292836 183.842757 96.2284575 183.449651 103.16764 183.358496 104.762854 183.295827 106.369463 183.255946 107.976072 184.887821 106.625491 186.857926 105.746825 188.953141 105.435123 189.83107 107.390222 190.822162 109.29251 191.921379 111.132317 192.2693 111.687075 192.939179 111.94893 193.571089 111.777187 194.202998 111.605444 194.648176 111.040534 194.667426 110.385985 194.588328 106.81247 195.436264 103.279403 197.128614 100.131035 198.501638 97.62427 200.347529 95.4023643 201.321749 92.6848027 202.295969 89.9672411 202.01111 86.5033471 200.18231 84.3042302 203.139154 83.5578977 206.05042 81.0967099 207.941889 78.9716565 210.665147 75.906566 213.069363 73.9524284 217.353653 73.96952 220.652329 73.96952 223.83706 74.3284432 226.765418 72.5167355 228.092864 71.7020367 227.426293 69.9245122 226.024783 69.7535964z"/>
      <line x1="321.198" x2="321.198" y1="201.758" y2="194.471" stroke="#333" stroke-linecap="round" stroke-linejoin="round" stroke-width="2"/>
      <path stroke="#333" stroke-linecap="round" stroke-linejoin="round" stroke-width="2" d="M86.5973508,144.819826 C84.8863252,144.686457 83.2235708,145.425697 82.1763282,146.785358"/>
      <path fill="#9ED5F0" fill-rule="nonzero" d="M117.66415,31.4114798 C117.635664,31.0468594 117.612876,30.6480558 117.58439,30.2207663 C117.185586,23.902578 116.524712,13.3228885 110.297678,10.6281157 C100.897308,6.56031904 93.2744623,18.7124341 91.1608033,22.5352514 C89.2123629,26.0618146 87.6057542,30.2207663 85.9136875,34.6303945 C81.7490386,45.4550634 77.4419598,56.6158667 67.9105541,58.2566586 C60.6979063,59.4986469 58.282296,54.7927646 54.9323458,47.0103974 C52.4312776,41.2049566 49.8504487,35.2001139 43.6462042,33.6276884 C35.4992166,31.5653041 23.3869819,35.4280017 11.9811993,65.5319755 C11.8724513,65.8266961 11.8334507,66.1426013 11.8672554,66.454921 L17.2795898,116.829511 C17.3873742,117.84338 18.2426314,118.612733 19.2622134,118.612733 C19.3826634,118.612733 19.5028374,118.601211 19.6211366,118.57855 L119.891753,100.210796 C120.882025,100.031222 121.583255,99.1418575 121.526848,98.1370175 C121.509756,97.6014813 118.501638,43.4040735 117.66415,31.4114798 Z"/>
      <path stroke="#333" stroke-linecap="round" stroke-linejoin="round" stroke-width="2" d="M137.102977,97.0032759 C137.102977,97.0032759 93.1890044,103.059393 83.668993,104.60903 C67.9846176,107.161373 19.2565162,116.624412 19.2565162,116.624412 C19.2565162,116.624412 10.710725,36.8636946 8.6369463,18.41618 C8.06722689,13.248825 7.0873095,0.64093434 7.0873095,0.64093434"/>
      <path stroke="#333" stroke-linecap="round" stroke-linejoin="round" stroke-width="2" d="M1.02549494 7.69406068C2.95684375 5.22147842 7.0873095.64093434 7.0873095.64093434L14.7101552 5.37530266M133.126335 91.870104C134.972226 93.4197408 136.909272 94.6731235 138.823529 96.154394 137.627119 98.5130323 135.974932 100.860276 135.234297 103.361345"/>
      <line x1="3.498" x2=".302" y1="30.564" y2="30.564" stroke="#333" stroke-linecap="round" stroke-linejoin="round" stroke-width="2"/>
      <line x1="9.469" x2="6.273" y1="83.217" y2="83.217" stroke="#333" stroke-linecap="round" stroke-linejoin="round" stroke-width="2"/>
      <line x1="6.689" x2="3.498" y1="54.6" y2="54.6" stroke="#333" stroke-linecap="round" stroke-linejoin="round" stroke-width="2"/>
      <line x1="11.634" x2="8.438" y1="106.804" y2="106.804" stroke="#333" stroke-linecap="round" stroke-linejoin="round" stroke-width="2"/>
    </g>
    <g stroke-linecap="round" stroke-linejoin="round" stroke-width="2" transform="translate(290.605 57.627)">
      <path fill="#FFE945" fill-rule="nonzero" stroke="#FFE945" d="M34.2421308,0.392251816 C24.9878935,0.014527845 16.3244552,1.97094431 10.4794189,8.31476998 C4.75544794,14.527845 2.99757869,19.6077482 1.01210654,28.0871671 C-0.353510896,33.8983051 0.983050847,39.1719128 2.33898305,44.8523002 C3.87409201,51.2397094 8.32445521,55.6416465 14.3389831,59.8837772 C20.3535109,64.125908 31.5496368,65.6949153 36.4261501,65.496368 C41.8789346,65.283293 46.4213075,65.0750605 51.6803874,63.3171913 C55.6464891,61.9951574 61.8789346,58.188862 64.2227603,54.7360775 C69.3908739,46.973706 71.3424272,37.507631 69.6658596,28.3341404 C68.0823245,20.0387409 64.0581114,12.1791768 57.4576271,6.71670702 C52.6246973,2.72154964 43.496368,0.774818402 34.2421308,0.392251816 Z"/>
      <path stroke="#333" d="M27.9176755.532687651C32.5375303.348668281 40.0726392 1.86440678 43.2639225 3.79176755 46.4552058 5.71912833 50.9152542 8.86198547 54.1840194 13.3365617 56.8765133 17.0266344 59.7239709 24.0435835 60.1113801 28.4697337 60.6634383 34.8038741 58.8861985 43.9661017 55.598063 49.4285714 54.0823245 51.9418886 49.68523 57.3026634 44.7409201 60.6828087 39.7966102 64.062954 35.3510896 65.1864407 29.7288136 65.0411622M18.6779661 28.0048426C20.5230024 27.0363196 22.377724 26.0290557 24.1307506 24.9249395 24.0435835 30.3341404 23.2978208 35.748184 23.2978208 41.2058111M18.6779661 40.8765133C20 41.8159806 23.0363196 41.6561743 24.653753 41.8450363 25.8353511 41.9709443 26.8571429 42.3002421 28.0823245 42.2082324"/>
      <path stroke="#333" d="M40.1307506 24.6973366C37.5205811 22.842615 34.3196126 24.2808717 34.188862 27.5060533 34.0484262 30.4697337 37.3946731 33.7046005 39.9661017 30.8038741M33.3656174 38.0726392C35.6271186 38.0726392 38.3922518 38.0726392 40.62954 38.5569007M7.95157385 36.4213075C6.30024213 30.653753 8.01937046 24.6392252 11.2493947 19.8014528 13.0217918 17.1428571 15.6077482 13.8450363 18.5472155 12.4939467 21.1234867 11.3171913 23.874092 11.0411622 26.5956416 10.842615"/>
      <path stroke="#333" d="M36.6634383 11.0072639C39.8597295 11.3436057 42.888756 12.6040173 45.3801453 14.6343826 48.440678 17.0024213 50.3680387 20.8910412 51.4479419 24.5762712 53.7275612 32.5307604 52.3675259 41.0863935 47.7336562 47.9418886 46.251816 50.1065375 42.9927361 52.7845036 40.6246973 53.7530266M31.8934625 55.7336562C30.0048426 56.1840194 27.9418886 55.6707022 26.0823245 55.2251816M18.2566586 51.8159806C14.5084746 49.6029056 12.2324455 47.1380145 10.7554479 43.1815981M47.7191283 6.05811138C50.7215496 6.05811138 53.6513317 6.22276029 56.62954 6.22276029M59.6029056 22.3922518C61.3510896 22.9249395 66 23.1670702 67.8353511 22.3922518M60.0968523 38.401937C63.1864407 38.401937 66.3922518 38.2711864 69.3365617 38.401937M53.6707022 53.2300242C55.8595642 53.8983051 58.3099274 53.4673123 60.6004843 53.559322 61.937046 53.6125908 63.6513317 53.2639225 64.8910412 53.7239709M47.5544794 59.0266344C51.0895884 59.0266344 54.6682809 59.2493947 58.1162228 59.3559322"/>
    </g>
    <g stroke-linecap="round" stroke-linejoin="round" stroke-width="2" transform="translate(33.753)">
      <path fill="#FFE945" fill-rule="nonzero" stroke="#FFE945" d="M16.8967873,6.08095118 C14.1917531,9.03111561 8.51075133,10.2137617 4.89400455,11.8694662 C1.27725778,13.5251708 -0.743991905,20.5479383 0.352643562,24.3410068 C1.04502909,26.7579054 2.82974956,28.8823678 2.87275487,31.3938781 C2.92436124,34.2881356 0.65798128,36.7222363 0.146218062,39.5648874 C-0.524664812,43.293448 2.44700228,47.2671389 6.20996711,47.6756893 C7.6807488,47.834809 9.18593473,47.5251708 10.6352138,47.8219074 C15.4002024,48.7938275 16.9784973,55.4467493 21.5628636,57.0766506 C24.6463445,58.1689856 28.0394637,56.5949911 30.6455856,54.6167468 C33.2517076,52.6385024 35.6040982,50.1656969 38.6918796,49.0819631 C41.5861371,48.0627372 44.8975462,48.3637743 47.5853782,46.8843916 C49.9203227,45.564542 51.3900806,43.1149456 51.4558563,40.4335947 C51.5074627,36.3351885 48.2261573,32.4561093 49.2453833,28.4824184 C49.7270428,26.6202884 51.0860106,25.119403 51.825702,23.3475841 C53.243538,19.6863289 51.9429117,15.5311043 48.6906147,13.3316469 C46.6865672,12.0414875 44.2180622,11.706046 42.119403,10.5836074 C38.61447,8.70427523 36.8813559,4.52415887 33.5398432,2.35669112 C26.4998735,-2.201872 21.5026562,1.05363015 16.8967873,6.08095118 Z"/>
      <circle cx="19.301" cy="21.881" r="3.716" stroke="#333"/>
      <circle cx="33.166" cy="35.746" r="3.716" stroke="#333"/>
      <path stroke="#333" d="M34.1290159,20.3501138 C29.0586896,26.8009107 22.3928662,31.4669871 17.7869972,38.2833291"/>
    </g>
  </g>
</svg>
