<svg width="15" height="15" viewBox="0 0 15 15" fill="none" xmlns="http://www.w3.org/2000/svg">
<path d="M7.33723 0C3.28449 0 -0.00012207 3.28461 -0.00012207 7.33735C-0.00012207 10.4471 1.93453 13.1012 4.66311 14.1703C4.60005 13.5884 4.53986 12.6999 4.6889 12.0665C4.82361 11.4933 5.54875 8.42075 5.54875 8.42075C5.54875 8.42075 5.32805 7.98223 5.32805 7.33162C5.32805 6.31127 5.91848 5.54887 6.65508 5.54887C7.2799 5.54887 7.58372 6.01892 7.58372 6.58355C7.58372 7.2141 7.18245 8.1542 6.97609 9.02551C6.80412 9.75638 7.34296 10.3525 8.06236 10.3525C9.36646 10.3525 10.3696 8.97679 10.3696 6.99341C10.3696 5.23646 9.10851 4.00688 7.3057 4.00688C5.21914 4.00688 3.99243 5.5718 3.99243 7.19117C3.99243 7.82173 4.23605 8.49814 4.53986 8.86501C4.60005 8.93666 4.60865 9.00258 4.59145 9.07424C4.537 9.3064 4.41089 9.80511 4.38796 9.90542C4.35643 10.0401 4.28191 10.0688 4.14147 10.0029C3.2243 9.57581 2.65107 8.23732 2.65107 7.15965C2.65107 4.8438 4.3335 2.71998 7.49773 2.71998C10.0429 2.71998 12.0205 4.53425 12.0205 6.95902C12.0205 9.48696 10.4269 11.5219 8.21427 11.5219C7.47194 11.5219 6.77259 11.135 6.53184 10.6793C6.53184 10.6793 6.16497 12.0808 6.07612 12.4248C5.90988 13.0611 5.46276 13.8607 5.16468 14.348C5.85256 14.5601 6.58056 14.6747 7.33723 14.6747C11.39 14.6747 14.6746 11.3901 14.6746 7.33735C14.6746 3.28461 11.39 0 7.33723 0Z" fill="#AFB1B4"/>
</svg>
