<?xml version="1.0" encoding="UTF-8"?>
<svg width="81px" height="61px" viewBox="0 0 81 61" version="1.1" xmlns="http://www.w3.org/2000/svg" xmlns:xlink="http://www.w3.org/1999/xlink">
    <title>065C3CF9-550C-4AC3-984B-D5B9A456ECB6</title>
    <g id="Page-1" stroke="none" stroke-width="1" fill="none" fill-rule="evenodd">
        <g id="Feature_Leave_Management" transform="translate(-1178.000000, -773.000000)" fill="#C6CBD0" fill-rule="nonzero">
            <g id="np_quote_953507_000000" transform="translate(1218.500000, 803.500000) scale(1, -1) translate(-1218.500000, -803.500000) translate(1178.000000, 773.000000)">
                <path d="M3.898,12.699 C12.6988,13.30056 20.097,18.8006 23.699,26.301 L12.398,26.301 C7.6988,26.301 3.898,30.1018 3.898,34.801 L3.898,51.801 C3.898,56.5002 7.6988,60.301 12.398,60.301 L29.398,60.301 C34.0972,60.301 37.898,56.5002 37.898,51.801 L37.898,34.801 C37.898,16 22.699,0.801 3.898,0.801 C3.898,0.801 0.4996,0.801 0.4996,4.1994 L0.4996,9.301 C0.4996,12.6994 3.898,12.6994 3.898,12.6994 L3.898,12.699 Z M46.398,12.699 C55.1988,13.30056 62.597,18.8006 66.199,26.301 L54.898,26.301 C50.1988,26.301 46.398,30.1018 46.398,34.801 L46.398,51.801 C46.398,56.5002 50.1988,60.301 54.898,60.301 L71.898,60.301 C76.5972,60.301 80.398,56.5002 80.398,51.801 L80.398,34.801 C80.398,16 65.199,0.801 46.398,0.801 C46.398,0.801 42.9996,0.801 42.9996,4.1994 L42.9996,9.301 C42.9996,12.6994 46.398,12.6994 46.398,12.6994 L46.398,12.699 Z" id="Shape"></path>
            </g>
        </g>
    </g>
</svg>