<svg width="15" height="13" viewBox="0 0 15 13" fill="none" xmlns="http://www.w3.org/2000/svg">
<path d="M4.61651 12.2991C10.1528 12.2991 13.1817 7.71127 13.1817 3.73391C13.1817 3.60493 13.1789 3.47309 13.1731 3.34411C13.7623 2.918 14.2708 2.39019 14.6747 1.7855C14.1259 2.02965 13.5433 2.18911 12.9467 2.25842C13.5749 1.88187 14.0452 1.29034 14.2706 0.593468C13.6796 0.943699 13.0333 1.19076 12.3594 1.32405C11.9054 0.841589 11.305 0.522143 10.6512 0.4151C9.99737 0.308057 9.3265 0.41938 8.74229 0.731857C8.15809 1.04433 7.69309 1.54056 7.41919 2.14382C7.14529 2.74707 7.07775 3.42376 7.227 4.06925C6.03038 4.0092 4.85973 3.69835 3.79095 3.15685C2.72217 2.61535 1.77912 1.85529 1.02293 0.925942C0.638594 1.58858 0.520986 2.3727 0.69401 3.11894C0.867033 3.86517 1.3177 4.51753 1.95443 4.94343C1.47641 4.92825 1.00887 4.79955 0.590427 4.56796V4.60522C0.589999 5.30061 0.830403 5.97469 1.27077 6.51288C1.71114 7.05106 2.3243 7.42013 3.00602 7.55736C2.56321 7.67851 2.09847 7.69616 1.64775 7.60895C1.84012 8.20699 2.2144 8.73005 2.71835 9.10514C3.2223 9.48023 3.83078 9.68862 4.45887 9.70124C3.39256 10.5388 2.07535 10.9932 0.719404 10.991C0.478938 10.9906 0.238708 10.9759 0 10.9469C1.3775 11.8306 2.9799 12.3 4.61651 12.2991Z" fill="#AFB1B4"/>
</svg>
