<svg width="15" height="11" viewBox="0 0 15 11" fill="none" xmlns="http://www.w3.org/2000/svg">
<path d="M14.5286 2.40278C14.5286 2.40278 14.3853 1.39103 13.944 0.946776C13.3851 0.362081 12.7602 0.359215 12.4736 0.324821C10.4215 0.175781 7.34034 0.175781 7.34034 0.175781H7.3346C7.3346 0.175781 4.25349 0.175781 2.20133 0.324821C1.91471 0.359215 1.28989 0.362081 0.730991 0.946776C0.289603 1.39103 0.149162 2.40278 0.149162 2.40278C0.149162 2.40278 0.00012207 3.59223 0.00012207 4.77882V5.89089C0.00012207 7.07748 0.146296 8.26693 0.146296 8.26693C0.146296 8.26693 0.289603 9.27868 0.728125 9.72293C1.28702 10.3076 2.02076 10.2876 2.3475 10.3506C3.52262 10.4624 7.33747 10.4968 7.33747 10.4968C7.33747 10.4968 10.4215 10.4911 12.4736 10.3449C12.7602 10.3105 13.3851 10.3076 13.944 9.72293C14.3853 9.27868 14.5286 8.26693 14.5286 8.26693C14.5286 8.26693 14.6748 7.08034 14.6748 5.89089V4.77882C14.6748 3.59223 14.5286 2.40278 14.5286 2.40278ZM5.82128 7.24085V3.11645L9.78516 5.18581L5.82128 7.24085Z" fill="#AFB1B4"/>
</svg>
