<svg width="32" height="32" viewBox="0 0 32 32" fill="none" xmlns="http://www.w3.org/2000/svg">
<g clip-path="url(#clip0_30533_33812)">
<path d="M12.3132 7.67312C12.3114 6.77195 12.7904 6.06581 13.364 6.04312L19.4356 6.02829C20.0092 6.0056 20.5222 6.72884 20.5241 7.63001" fill="#FFC664"/>
<path d="M12.3132 7.67312C12.3114 6.77195 12.7904 6.06581 13.364 6.04312L19.4356 6.02829C20.0092 6.0056 20.5222 6.72884 20.5241 7.63001" stroke="#01090F" stroke-width="0.3" stroke-miterlimit="10" stroke-linecap="round" stroke-linejoin="round"/>
<path d="M28.5593 14.6511L28.593 21.7696C28.6156 23.4811 27.2392 24.8536 25.5372 24.8308L7.23171 24.8564C5.52024 24.879 4.14773 23.5026 4.17054 21.8006L4.13683 14.6821" fill="#BD80FF"/>
<path d="M28.5593 14.6511L28.593 21.7696C28.6156 23.4811 27.2392 24.8536 25.5372 24.8308L7.23171 24.8564C5.52024 24.879 4.14773 23.5026 4.17054 21.8006L4.13683 14.6821" stroke="#01090F" stroke-width="0.3" stroke-miterlimit="10" stroke-linecap="round" stroke-linejoin="round"/>
<path d="M28.5533 16.1569L16.5468 22.9147L4.16239 15.7437L4.20177 10.8523L10.7585 10.3799L28.6504 10.674L28.5533 16.1569Z" fill="#A041FF" stroke="#01090F" stroke-width="0.3"/>
<path d="M26.7671 7.78331L5.93983 7.85228C4.6108 7.85978 3.53729 8.91613 3.54479 10.2452L3.57106 14.8968L16.4694 18.2958L29.1408 14.8205L29.1146 10.1689C29.1525 8.84931 28.0507 7.76633 26.7671 7.78331Z" fill="#BD80FF" stroke="#01090F" stroke-width="0.3" stroke-miterlimit="10" stroke-linecap="round" stroke-linejoin="round"/>
<path d="M17.9477 16.1881L14.7915 16.1958L14.8007 19.9553L17.9568 19.9476L17.9477 16.1881Z" fill="#FFC664" stroke="#01090F" stroke-width="0.3" stroke-miterlimit="10" stroke-linecap="round" stroke-linejoin="round"/>
<path d="M26.5 11L26.1508 9.07937C25.8889 7.42064 24.5794 6.11111 22.9206 5.84921L21 5.49999L22.9206 5.15079C24.5794 4.88889 25.8889 3.57937 26.1508 1.92063L26.5 0L26.8492 1.92063C27.1111 3.57937 28.4206 4.88889 30.0794 5.15079L32 5.49999L30.0794 5.84921C28.4206 6.11111 27.1111 7.42064 26.8492 9.07937L26.5 11Z" fill="#FFC664" stroke="black" stroke-width="0.3" stroke-miterlimit="10" stroke-linejoin="round"/>
<path d="M9.99999 15L9.80952 14.127C9.66666 13.373 8.95239 12.7778 8.04762 12.6587L7 12.5L8.04762 12.3413C8.95239 12.2222 9.66666 11.627 9.80952 10.873L9.99999 10L10.1905 10.873C10.3333 11.627 11.0476 12.2222 11.9524 12.3413L13 12.5L11.9524 12.6587C11.0476 12.7778 10.3333 13.373 10.1905 14.127L9.99999 15Z" fill="#FFC664" stroke="black" stroke-width="0.3" stroke-miterlimit="10" stroke-linejoin="round"/>
</g>
<defs>
<clipPath id="clip0_30533_33812">
<rect width="32" height="32" fill="white"/>
</clipPath>
</defs>
</svg>
