<svg width="130" height="35" viewBox="0 0 130 35" fill="none" xmlns="http://www.w3.org/2000/svg">
<g clip-path="url(#clip0_2412_10762)">
<path d="M58.2636 18.7332L56.1947 13.2936C56.1114 13.071 55.7868 13.071 55.7024 13.2936L53.6335 18.7332C53.6187 18.7719 53.6137 18.8134 53.619 18.8544C53.6243 18.8953 53.6397 18.9344 53.6639 18.9683C53.6881 19.0021 53.7204 19.0297 53.758 19.0488C53.7956 19.0678 53.8373 19.0776 53.8796 19.0774H58.0174C58.0598 19.0776 58.1015 19.0678 58.1391 19.0488C58.1767 19.0297 58.2089 19.0021 58.2331 18.9683C58.2573 18.9344 58.2728 18.8953 58.2781 18.8544C58.2834 18.8134 58.2784 18.7719 58.2636 18.7332ZM59.2195 21.7897H52.6894C52.6358 21.7896 52.5834 21.8055 52.5394 21.8354C52.4954 21.8652 52.4618 21.9076 52.4433 21.9566L51.1556 25.3412C51.1371 25.3902 51.1035 25.4326 51.0595 25.4624C51.0155 25.4923 50.9631 25.5082 50.9094 25.5081H48.0736C48.0306 25.5083 47.9882 25.4982 47.9501 25.4787C47.9121 25.4591 47.8796 25.4307 47.8555 25.396C47.8314 25.3612 47.8164 25.3213 47.812 25.2796C47.8075 25.2379 47.8136 25.1957 47.8299 25.1569L54.3695 9.30052C54.389 9.25313 54.4227 9.21254 54.4662 9.18402C54.5096 9.15551 54.5609 9.14036 54.6133 9.14056H57.329C57.3814 9.14036 57.4326 9.15551 57.4761 9.18402C57.5195 9.21254 57.5532 9.25313 57.5727 9.30052L64.1124 25.1569C64.1286 25.1957 64.1348 25.2379 64.1303 25.2796C64.1258 25.3213 64.1109 25.3612 64.0868 25.396C64.0627 25.4307 64.0302 25.4591 63.9921 25.4787C63.9541 25.4982 63.9116 25.5083 63.8686 25.5081H61.0126C60.959 25.5082 60.9066 25.4923 60.8626 25.4624C60.8185 25.4326 60.785 25.3902 60.7665 25.3412L59.4787 21.9566C59.4602 21.9076 59.4267 21.8652 59.3827 21.8354C59.3386 21.8055 59.2863 21.7896 59.2326 21.7897H59.2195ZM65.4203 14.7054H67.8459C67.8805 14.7052 67.9147 14.7117 67.9467 14.7245C67.9786 14.7374 68.0076 14.7562 68.0321 14.78C68.0565 14.8039 68.0759 14.8322 68.089 14.8633C68.1022 14.8945 68.1088 14.9278 68.1087 14.9615V25.2542C68.1088 25.2879 68.1022 25.3213 68.089 25.3525C68.0759 25.3836 68.0565 25.4119 68.0321 25.4357C68.0076 25.4595 67.9786 25.4784 67.9467 25.4912C67.9147 25.504 67.8805 25.5106 67.8459 25.5104H65.4203C65.3858 25.5106 65.3515 25.504 65.3196 25.4912C65.2876 25.4784 65.2586 25.4595 65.2341 25.4357C65.2097 25.4119 65.1904 25.3836 65.1772 25.3525C65.1641 25.3213 65.1574 25.2879 65.1575 25.2542V14.9383C65.1574 14.9047 65.1641 14.8713 65.1772 14.8401C65.1904 14.809 65.2097 14.7807 65.2341 14.7569C65.2586 14.733 65.2876 14.7142 65.3196 14.7014C65.3515 14.6885 65.3858 14.682 65.4203 14.6822V14.7054ZM76.9538 17.1858C76.954 17.2195 76.9473 17.2529 76.9342 17.284C76.921 17.3152 76.9017 17.3435 76.8772 17.3673C76.8528 17.3911 76.8238 17.41 76.7918 17.4228C76.7599 17.4356 76.7256 17.4421 76.6911 17.442H76.6173C75.4283 17.442 74.5366 17.7225 73.9777 18.2835C73.4189 18.8445 73.1383 19.7717 73.1383 21.0653V25.2287C73.1384 25.2624 73.1317 25.2958 73.1186 25.327C73.1054 25.3581 73.0861 25.3864 73.0616 25.4102C73.0372 25.434 73.0082 25.4529 72.9762 25.4657C72.9443 25.4785 72.91 25.4851 72.8755 25.4849H70.4737C70.4391 25.4851 70.4049 25.4785 70.3729 25.4657C70.341 25.4529 70.3119 25.434 70.2875 25.4102C70.2631 25.3864 70.2437 25.3581 70.2306 25.327C70.2174 25.2958 70.2107 25.2624 70.2109 25.2287V14.9499C70.2107 14.9162 70.2174 14.8829 70.2306 14.8517C70.2437 14.8206 70.2631 14.7923 70.2875 14.7685C70.3119 14.7446 70.341 14.7258 70.3729 14.713C70.4049 14.7001 70.4391 14.6936 70.4737 14.6938H72.8517C72.8863 14.6936 72.9205 14.7001 72.9525 14.713C72.9844 14.7258 73.0134 14.7446 73.0379 14.7685C73.0623 14.7923 73.0817 14.8206 73.0948 14.8517C73.108 14.8829 73.1146 14.9162 73.1145 14.9499V16.9853H73.162C73.4498 16.1438 73.9052 15.497 74.5294 15.045C75.1537 14.5929 75.9206 14.3669 76.8314 14.3669H76.9503L76.9538 17.1858ZM83.5862 17.0908C83.5517 17.0906 83.5174 17.0971 83.4855 17.11C83.4535 17.1228 83.4245 17.1416 83.4001 17.1655C83.3756 17.1893 83.3563 17.2176 83.3431 17.2487C83.33 17.2799 83.3233 17.3132 83.3234 17.3469V21.6274C83.3234 22.0644 83.4114 22.3751 83.5874 22.5628C83.7634 22.7506 84.0666 22.8433 84.4982 22.8433H84.7396C84.7741 22.8432 84.8084 22.8497 84.8403 22.8625C84.8723 22.8753 84.9013 22.8942 84.9257 22.918C84.9502 22.9418 84.9695 22.9701 84.9827 23.0013C84.9958 23.0324 85.0025 23.0658 85.0023 23.0995V25.2658C85.0025 25.2995 84.9958 25.3329 84.9827 25.364C84.9695 25.3952 84.9502 25.4235 84.9257 25.4473C84.9013 25.4711 84.8723 25.49 84.8403 25.5028C84.8084 25.5156 84.7741 25.5222 84.7396 25.522H83.7051C82.635 25.522 81.8098 25.2531 81.2343 24.7153C80.6588 24.1774 80.3711 23.3788 80.3711 22.3183V17.3597C80.3713 17.326 80.3646 17.2926 80.3514 17.2615C80.3383 17.2303 80.3189 17.202 80.2945 17.1782C80.2701 17.1544 80.241 17.1355 80.2091 17.1227C80.1771 17.1099 80.1429 17.1034 80.1083 17.1035H78.5947C78.5601 17.1037 78.5259 17.0971 78.4939 17.0843C78.462 17.0715 78.433 17.0526 78.4085 17.0288C78.3841 17.005 78.3648 16.9767 78.3516 16.9456C78.3385 16.9144 78.3318 16.881 78.3319 16.8474V14.9499C78.3318 14.9162 78.3385 14.8829 78.3516 14.8517C78.3648 14.8206 78.3841 14.7923 78.4085 14.7685C78.433 14.7446 78.462 14.7258 78.4939 14.713C78.5259 14.7001 78.5601 14.6936 78.5947 14.6938H80.1083C80.1429 14.6939 80.1771 14.6874 80.2091 14.6746C80.241 14.6618 80.2701 14.6429 80.2945 14.6191C80.3189 14.5953 80.3383 14.567 80.3514 14.5358C80.3646 14.5047 80.3713 14.4713 80.3711 14.4376V10.6126C80.3709 10.5789 80.3776 10.5455 80.3908 10.5144C80.4039 10.4833 80.4233 10.455 80.4477 10.4311C80.4721 10.4073 80.5012 10.3885 80.5331 10.3756C80.5651 10.3628 80.5993 10.3563 80.6339 10.3564H83.0595C83.094 10.3563 83.1283 10.3628 83.1602 10.3756C83.1922 10.3885 83.2212 10.4073 83.2456 10.4311C83.2701 10.455 83.2894 10.4833 83.3026 10.5144C83.3157 10.5455 83.3224 10.5789 83.3223 10.6126V14.4376C83.3221 14.4713 83.3288 14.5047 83.3419 14.5358C83.3551 14.567 83.3744 14.5953 83.3989 14.6191C83.4233 14.6429 83.4523 14.6618 83.4843 14.6746C83.5162 14.6874 83.5505 14.6939 83.585 14.6938H85.3388C85.3734 14.6936 85.4076 14.7001 85.4396 14.713C85.4715 14.7258 85.5006 14.7446 85.525 14.7685C85.5494 14.7923 85.5688 14.8206 85.5819 14.8517C85.5951 14.8829 85.6018 14.9162 85.6016 14.9499V16.8474C85.6018 16.881 85.5951 16.9144 85.5819 16.9456C85.5688 16.9767 85.5494 17.005 85.525 17.0288C85.5006 17.0526 85.4715 17.0715 85.4396 17.0843C85.4076 17.0971 85.3734 17.1037 85.3388 17.1035L83.5862 17.0908ZM94.6917 22.2812C95.2434 21.7202 95.5193 20.9876 95.5193 20.0835C95.5193 19.1794 95.2434 18.4469 94.6917 17.8859C94.14 17.3249 93.4159 17.0444 92.5205 17.0444C91.6252 17.0444 90.9035 17.3249 90.3494 17.8859C89.7953 18.4469 89.5218 19.1794 89.5218 20.0835C89.5218 20.9876 89.7977 21.7202 90.3494 22.2812C90.9011 22.8422 91.624 23.1227 92.5205 23.1227C93.4171 23.1227 94.14 22.8422 94.6917 22.2812ZM89.1033 25.1557C88.277 24.6931 87.6062 24.0065 87.1723 23.1795C86.7003 22.3148 86.4649 21.282 86.4649 20.0812C86.4649 18.8804 86.7003 17.8488 87.1723 16.983C87.6444 16.1171 88.2876 15.4599 89.1033 15.0067C89.9217 14.5539 90.8483 14.32 91.7893 14.3287C92.6525 14.3287 93.3921 14.4909 94.008 14.8201C94.6239 15.1493 95.1138 15.6083 95.4824 16.211H95.53V14.9499C95.5298 14.9162 95.5365 14.8829 95.5497 14.8517C95.5628 14.8206 95.5822 14.7923 95.6066 14.7685C95.631 14.7446 95.6601 14.7258 95.692 14.713C95.724 14.7001 95.7582 14.6936 95.7927 14.6938H98.1946C98.2291 14.6936 98.2634 14.7001 98.2953 14.713C98.3273 14.7258 98.3563 14.7446 98.3807 14.7685C98.4052 14.7923 98.4245 14.8206 98.4377 14.8517C98.4508 14.8829 98.4575 14.9162 98.4574 14.9499V25.2427C98.4575 25.2763 98.4508 25.3097 98.4377 25.3409C98.4245 25.372 98.4052 25.4003 98.3807 25.4241C98.3563 25.4479 98.3273 25.4668 98.2953 25.4796C98.2634 25.4924 98.2291 25.499 98.1946 25.4988H95.7927C95.7582 25.499 95.724 25.4924 95.692 25.4796C95.6601 25.4668 95.631 25.4479 95.6066 25.4241C95.5822 25.4003 95.5628 25.372 95.5497 25.3409C95.5365 25.3097 95.5298 25.2763 95.53 25.2427V23.9677H95.4824C95.1257 24.5472 94.6227 25.0201 94.008 25.3586C93.3933 25.697 92.6525 25.85 91.7893 25.85C90.8143 25.85 89.919 25.624 89.1021 25.1719L89.1033 25.1557ZM108.445 22.2974C108.997 21.7364 109.273 21.0039 109.273 20.0998C109.273 19.1957 108.997 18.4631 108.445 17.9021C107.893 17.3411 107.169 17.0606 106.274 17.0606C105.379 17.0606 104.655 17.3411 104.103 17.9021C103.551 18.4631 103.275 19.1957 103.275 20.0998C103.275 21.0039 103.551 21.7364 104.103 22.2974C104.655 22.8584 105.377 23.1389 106.274 23.1389C107.171 23.1389 107.893 22.8584 108.445 22.2974ZM104.8 25.3609C104.189 25.039 103.679 24.5625 103.324 23.9816H103.276V25.2566C103.277 25.2902 103.27 25.3236 103.257 25.3548C103.244 25.3859 103.224 25.4142 103.2 25.438C103.175 25.4619 103.146 25.4807 103.114 25.4935C103.082 25.5064 103.048 25.5129 103.014 25.5127H100.588C100.554 25.5129 100.519 25.5064 100.487 25.4935C100.455 25.4807 100.426 25.4619 100.402 25.438C100.377 25.4142 100.358 25.3859 100.345 25.3548C100.332 25.3236 100.325 25.2902 100.325 25.2566V9.38629C100.325 9.35261 100.332 9.31923 100.345 9.28808C100.358 9.25693 100.377 9.22863 100.402 9.20481C100.426 9.181 100.455 9.16214 100.487 9.14932C100.519 9.1365 100.554 9.12998 100.588 9.13013H103.014C103.048 9.12998 103.082 9.1365 103.114 9.14932C103.146 9.16214 103.175 9.181 103.2 9.20481C103.224 9.22863 103.244 9.25693 103.257 9.28808C103.27 9.31923 103.277 9.35261 103.276 9.38629V16.2249H103.324C103.679 15.644 104.189 15.1674 104.8 14.8456C105.416 14.5176 106.155 14.3542 107.018 14.3542C107.959 14.3455 108.886 14.5794 109.704 15.0322C110.52 15.4959 111.163 16.1426 111.635 17.0085C112.107 17.8743 112.343 18.9071 112.343 20.1067C112.343 21.3064 112.105 22.3403 111.635 23.205C111.166 24.0697 110.52 24.7292 109.704 25.1812C108.889 25.6333 107.992 25.8593 107.017 25.8593C106.154 25.8593 105.414 25.697 104.798 25.3678L104.8 25.3609ZM116.427 25.5069H114.001C113.967 25.5071 113.933 25.5006 113.901 25.4877C113.869 25.4749 113.84 25.4561 113.815 25.4322C113.791 25.4084 113.772 25.3801 113.758 25.349C113.745 25.3178 113.739 25.2845 113.739 25.2508V9.38629C113.739 9.35261 113.745 9.31923 113.758 9.28808C113.772 9.25693 113.791 9.22863 113.815 9.20481C113.84 9.181 113.869 9.16214 113.901 9.14932C113.933 9.1365 113.967 9.12998 114.001 9.13013H116.427C116.462 9.12998 116.496 9.1365 116.528 9.14932C116.56 9.16214 116.589 9.181 116.613 9.20481C116.638 9.22863 116.657 9.25693 116.67 9.28808C116.683 9.31923 116.69 9.35261 116.69 9.38629V25.2658C116.69 25.2995 116.683 25.3329 116.67 25.364C116.657 25.3952 116.638 25.4235 116.613 25.4473C116.589 25.4711 116.56 25.49 116.528 25.5028C116.496 25.5156 116.462 25.5222 116.427 25.522V25.5069ZM122.149 17.2229C121.747 17.5289 121.474 17.9705 121.334 18.5477C121.296 18.7065 121.423 18.8607 121.591 18.8607H126.207C126.367 18.8607 126.492 18.7216 126.468 18.5663C126.376 18.0215 126.135 17.5845 125.748 17.2588C125.292 16.8763 124.697 16.6862 123.961 16.6862C123.225 16.6862 122.622 16.8659 122.15 17.2241L122.149 17.2229ZM128.063 15.8795C129.006 16.8856 129.49 18.3078 129.49 20.145V20.451C129.49 20.4847 129.483 20.518 129.47 20.5492C129.457 20.5803 129.438 20.6086 129.413 20.6324C129.389 20.6563 129.36 20.6751 129.328 20.6879C129.296 20.7008 129.261 20.7073 129.227 20.7071H121.515C121.352 20.7071 121.227 20.852 121.256 21.0085C121.379 21.7039 121.689 22.2348 122.186 22.637C122.753 23.0972 123.47 23.3267 124.332 23.3267C125.447 23.3267 126.478 22.9025 127.427 22.054C127.454 22.0298 127.487 22.0115 127.522 22.0005C127.558 21.9895 127.595 21.986 127.632 21.9901C127.669 21.9943 127.704 22.0061 127.736 22.0247C127.768 22.0433 127.796 22.0683 127.817 22.098L128.996 23.7486C129.034 23.7999 129.05 23.8629 129.043 23.9254C129.035 23.9878 129.004 24.0454 128.956 24.087C128.377 24.5815 127.733 24.9985 127.042 25.3273C126.275 25.6935 125.371 25.8767 124.331 25.8767C123.142 25.8767 122.071 25.6391 121.188 25.1638C120.308 24.7039 119.583 24.0055 119.101 23.1528C118.605 22.2881 118.358 21.2983 118.358 20.1484C118.358 18.9986 118.598 18.0041 119.077 17.1325C119.557 16.2609 120.228 15.5816 121.093 15.0983C121.957 14.6149 122.963 14.3739 124.115 14.3739C125.81 14.3739 127.129 14.8769 128.072 15.8807L128.063 15.8795ZM68.4428 10.9198C68.4419 11.3828 68.2528 11.8265 67.9169 12.1539C67.5811 12.4813 67.1259 12.6656 66.6509 12.6665C66.176 12.6656 65.7208 12.4813 65.385 12.1539C65.0491 11.8265 64.86 11.3828 64.8591 10.9198C64.86 10.4568 65.0491 10.013 65.385 9.68564C65.7208 9.35826 66.176 9.17394 66.6509 9.17302C67.1259 9.17394 67.5811 9.35826 67.9169 9.68564C68.2528 10.013 68.4419 10.4568 68.4428 10.9198Z" fill="#333333"/>
<path d="M18.7549 1.17529L3.44264 7.35324C2.5913 7.69633 2.61032 8.87629 3.45691 9.20779L18.8334 15.1516C20.1845 15.6738 21.689 15.6738 23.0401 15.1516L38.4166 9.20779C39.2727 8.87629 39.2822 7.69749 38.4309 7.35324L23.1186 1.17529C21.7215 0.611817 20.152 0.611817 18.7549 1.17529Z" fill="#FFCC00"/>
<path d="M22.3032 18.3961V33.2325C22.3032 33.928 23.0333 34.4229 23.7063 34.1621L40.8282 27.6793C41.0196 27.6059 41.1838 27.4779 41.2994 27.312C41.4151 27.1462 41.4767 26.9502 41.4762 26.7497V11.9133C41.4762 11.2179 40.7462 10.723 40.0732 10.9837L22.9512 17.4665C22.7599 17.54 22.5956 17.668 22.48 17.8338C22.3644 17.9997 22.3028 18.1956 22.3032 18.3961Z" fill="#31C2F2"/>
<path d="M18.3029 19.1621L12.7145 21.799L1.97996 26.8132C1.29984 27.1331 0.430664 26.651 0.430664 25.9126V11.9757C0.430664 11.7091 0.570969 11.4773 0.758835 11.3058C0.835723 11.2309 0.922971 11.1669 1.01804 11.1157C1.15856 11.0373 1.31517 10.9903 1.47658 10.9781C1.63799 10.9658 1.80017 10.9887 1.95143 11.045L18.2411 17.3319C19.0686 17.6518 19.1328 18.7807 18.3267 19.1632" fill="#ED3049"/>
<path d="M18.3033 19.1621L13.2167 21.5568L0.731934 11.3058C0.808822 11.2309 0.89607 11.1669 0.991141 11.1157C1.13166 11.0373 1.28827 10.9903 1.44968 10.9781C1.61109 10.9658 1.77327 10.9887 1.92453 11.045L18.2142 17.3319C19.0417 17.6518 19.1059 18.7807 18.2998 19.1632" fill="#C62842"/>
</g>
<defs>
<clipPath id="clip0_2412_10762">
<rect width="130" height="34" fill="white" transform="translate(0 0.5)"/>
</clipPath>
</defs>
</svg>
