<svg width="132" height="27" viewBox="0 0 132 27" fill="none" xmlns="http://www.w3.org/2000/svg">
<g clip-path="url(#clip0_2412_10741)">
<path d="M68.959 9.92332C69.1034 9.08176 69.2117 8.48566 69.3199 7.81942C71.377 7.81942 73.2896 7.81942 75.1662 7.81942C75.3106 8.02981 75.5271 8.17007 75.5271 8.31033C75.5271 14.1311 75.5271 19.987 75.5271 25.8077C75.3466 25.948 75.2384 26.1934 75.094 26.1934C73.2896 26.2285 71.5213 26.1934 69.6447 26.1934C69.1395 25.5623 69.1395 25.5623 68.923 24.1947C67.9125 25.1766 66.9742 26.0883 65.5307 26.4389C61.8858 27.3506 57.88 25.8077 55.9673 22.9324C53.802 19.6363 53.6577 16.1649 55.029 12.6584C56.256 9.5376 59.3596 7.50384 62.7519 7.36358C65.2059 7.25838 67.2629 7.85449 68.959 9.92332ZM60.7309 16.9714C60.7309 17.2519 60.7309 17.5675 60.7309 17.848C60.8392 19.7415 62.3188 21.4947 63.9428 21.7402C66.2524 22.0558 68.129 21.1441 68.923 19.2506C69.5725 17.6727 69.5365 16.1298 68.7786 14.587C67.3712 11.6415 63.2932 11.7467 61.7414 13.6051C60.8753 14.587 60.6949 15.7441 60.7309 16.9714Z" fill="#25E39F"/>
<path d="M102.882 9.81816C103.027 9.0818 103.171 8.45063 103.279 7.7844C105.264 7.7844 107.068 7.7844 108.909 7.7844C109.342 7.95972 109.486 8.3805 109.486 8.87141C109.486 14.3065 109.486 19.7415 109.45 25.1415C109.45 25.4922 109.234 25.8428 109.089 26.2286C107.141 26.2286 105.372 26.2286 103.568 26.2286C102.99 25.4571 102.99 25.4571 102.918 24.1948C102.305 24.6857 101.763 25.1415 101.186 25.5623C99.3455 26.8948 97.2524 26.8948 95.1954 26.4389C90.54 25.387 88.1943 21.4597 88.1582 17.7428C88.1582 15.7091 88.1943 13.7104 89.2769 11.8519C90.9731 9.04674 93.391 7.50388 96.7833 7.32855C99.2373 7.18829 101.186 8.09998 102.882 9.81816ZM98.9846 21.7753C100.464 21.9857 101.619 21.1441 102.449 19.9519C104.001 17.7779 103.243 14.6571 101.691 13.2896C99.4538 11.326 95.5202 12.2727 94.7262 15.113C94.4375 16.2 94.221 17.287 94.618 18.4792C95.3037 20.5831 96.6389 21.7753 98.9846 21.7753Z" fill="#26E39F"/>
<path d="M124.716 15.2181C124.427 14.6571 124.247 14.2363 124.03 13.8155C123.38 12.6584 122.478 12.1324 121.287 12.2727C120.024 12.448 119.23 13.1844 118.905 14.3415C118.653 15.2181 118.581 16.1649 118.545 17.0766C118.509 19.6363 118.545 22.2311 118.545 24.7909C118.545 25.1415 118.545 25.4922 118.545 25.8078C117.57 26.6142 116.524 26.1935 115.549 26.2636C114.611 26.3337 113.637 26.2636 112.698 26.2636C112.626 26.1584 112.59 26.1233 112.554 26.0883C112.518 26.0532 112.446 26.0181 112.446 25.948C112.41 25.422 112.374 24.8961 112.374 24.3701C112.374 18.9 112.374 13.3948 112.374 7.85451C113.456 7.53892 114.467 7.71425 115.477 7.67918C116.415 7.64412 117.39 7.67918 118.436 7.67918C118.509 8.41555 118.581 9.04672 118.653 9.74801C119.772 8.87139 120.746 7.81944 122.19 7.50386C124.427 7.04801 126.592 7.15321 128.505 8.52074C129.768 9.39736 130.345 10.8 130.742 12.2026C131.031 13.2545 131.103 14.3766 131.139 15.4636C131.175 18.5142 131.175 21.5298 131.139 24.5805C131.139 25.1415 131.32 25.7727 130.562 26.1935C128.866 26.1935 127.061 26.1935 125.293 26.1935C125.149 26.1935 125.004 25.9831 124.788 25.8428C124.716 22.3013 124.716 18.6896 124.716 15.2181Z" fill="#25E39F"/>
<path d="M15.2963 5.47016C16.3428 2.84029 18.6164 2.0338 20.926 1.54289C24.2822 0.80653 27.6384 0.911724 30.9224 1.99874C32.8351 2.62991 34.3508 3.57666 35.0726 5.75069C35.9026 10.3442 31.0668 16.0948 25.0401 16.0948C19.9156 16.0948 14.3941 11.1857 15.2963 5.47016Z" fill="#24E29E"/>
<path d="M84.5851 1.15705C84.5851 3.22589 84.5851 5.18952 84.5851 7.15316C84.5851 11.2908 84.5851 15.4285 84.5851 19.5661C84.5851 20.3376 84.513 21.0739 85.2347 21.67C85.8482 21.9506 86.7865 21.3545 87.4 22.2661C87.4 23.4584 87.4 24.7207 87.4 26.0882C87.3278 26.1584 87.2557 26.3687 87.1113 26.4038C84.6212 26.9999 82.2755 26.6843 80.2546 25.0713C79.0276 24.0895 78.4862 22.7571 78.4502 21.2493C78.4141 19.0402 78.4141 16.8311 78.4141 14.5869C78.4141 10.6947 78.4141 6.76744 78.4141 2.87524C78.4141 2.3142 78.4141 1.71809 78.4141 1.22718C79.6411 0.596016 83.0694 0.525886 84.5851 1.15705Z" fill="#23E29E"/>
<path d="M15.332 20.4429C15.5846 19.3208 16.3786 18.7948 17.5334 18.9351C18.8326 19.1104 20.0957 19.426 21.3588 19.6715C24.318 20.2676 27.2411 20.2325 30.2004 19.426C31.3191 19.1104 32.51 18.9702 33.5926 18.7598C34.0979 19.1805 34.4227 19.4961 34.7835 19.7766C34.7835 20.4078 34.7835 21.0039 34.7835 21.6351C33.5926 23.8792 31.4995 25.0364 29.1899 25.913C25.3285 27.3857 21.7196 26.6844 18.3634 24.5104C16.0538 23.0377 15.8734 22.5818 15.332 20.4429Z" fill="#26E39F"/>
<path d="M11.9039 5.68041C11.7956 6.10119 11.7234 6.52197 11.543 6.87262C11.0016 8.09989 10.0634 8.80119 8.61983 8.76613C7.82589 8.73106 7.06804 8.76613 6.16584 8.76613C5.94931 8.94145 5.62451 9.22197 5.26363 9.3973C3.74793 10.1687 1.76308 9.50249 1.04132 7.9947C-0.0774161 5.68041 1.04132 2.34924 3.38705 1.05184C6.02148 -0.385823 9.12506 0.315476 10.6408 2.55963C10.9656 3.05054 11.3264 3.50639 11.5791 4.03236C11.7595 4.55833 11.7956 5.08431 11.9039 5.68041Z" fill="#26E39F"/>
<path d="M49.3995 7.95975C47.4508 10.1688 46.5486 10.3091 44.0946 8.73118C42.6871 8.52079 41.0992 9.22209 39.764 8.17014C38.9339 7.50391 38.6092 6.59222 38.4287 5.68053C39.1505 1.26234 42.6149 -0.140253 45.2855 0.420786C46.9455 0.771436 48.3169 1.71819 49.1108 3.29611C49.8326 4.76884 50.013 6.27663 49.3995 7.95975Z" fill="#25E39F"/>
</g>
<defs>
<clipPath id="clip0_2412_10741">
<rect width="131" height="27" fill="white" transform="translate(0.5)"/>
</clipPath>
</defs>
</svg>
