<svg width="116" height="37" viewBox="0 0 116 37" fill="none" xmlns="http://www.w3.org/2000/svg">
<path d="M64.3327 15.7584C67.2683 15.7584 69.0792 17.7817 69.0792 21.0622V28.7232C69.0792 28.9393 68.9458 29.0768 68.7361 29.0768H66.9252C66.7155 29.0768 66.5821 28.9393 66.5821 28.7232V21.6319C66.5821 19.3532 65.5527 18.1549 63.6274 18.1549C61.8165 18.1549 60.5775 19.4907 60.5775 21.4944V28.7232C60.5775 28.9393 60.444 29.0768 60.2344 29.0768H58.4235C58.2138 29.0768 58.0803 28.9393 58.0803 28.7232V16.4263C58.0803 16.2102 58.2138 16.0727 58.4235 16.0727H60.2344C60.444 16.0727 60.5775 16.2102 60.5775 16.4263V17.5263C61.34 16.4066 62.6934 15.7584 64.3327 15.7584ZM86.8452 20.1586C86.7118 20.5711 86.5974 21.0426 86.5974 21.7104C86.5974 21.789 86.6356 21.8283 86.7118 21.8283H93.0405C93.1167 21.8283 93.2692 21.789 93.2692 21.7104C93.2692 21.0622 93.212 20.5711 93.0786 20.1586C92.6402 18.8032 91.5345 18.0174 90.0286 18.0174C88.5227 18.0174 87.2837 18.7835 86.8452 20.1586ZM89.8952 15.7388C92.5258 15.7388 94.4892 17.1138 95.2517 19.53C95.5186 20.3943 95.6711 21.3176 95.6711 23.5373C95.6711 23.7534 95.5186 23.8909 95.2898 23.8909H86.7309C86.6546 23.8909 86.6165 23.9105 86.6165 23.9891C86.6165 24.0284 86.6546 24.382 86.7499 24.657C87.2455 26.2088 88.5227 26.9553 90.2002 26.9553C91.973 26.9553 93.0405 26.1303 93.6314 25.4427C93.803 25.266 93.9745 25.2463 94.1461 25.3838L95.3089 26.4642C95.4614 26.6017 95.4804 26.7785 95.347 26.9553C94.1651 28.4875 92.2208 29.3715 90.0286 29.3715C87.2837 29.3715 85.1868 27.9178 84.4625 25.5017L84.4434 25.4231C84.2147 24.5981 84.0812 23.773 84.0812 22.8891C84.0812 21.3176 84.2528 20.414 84.5387 19.53C85.2821 17.1138 87.2455 15.7388 89.8952 15.7388ZM101.771 26.7982H101.237C100.303 26.7982 99.941 26.4053 99.941 25.3249V10.5725C99.941 10.3564 99.941 10.2189 99.941 10.2189H97.806C97.5963 10.2189 97.4629 10.376 97.4629 10.5725V25.482C97.4629 28.0946 98.4732 29.2143 100.837 29.2143H101.79C102 29.2143 102.133 29.0768 102.133 28.8607V27.1714C102.114 26.9357 101.962 26.7982 101.771 26.7982ZM108.424 27.1517C110.521 27.1517 111.779 26.1499 111.779 24.4802V22.948C111.779 22.8694 111.76 22.8301 111.664 22.8301H108.957C106.651 22.8301 105.66 23.498 105.66 25.0302C105.66 26.4053 106.651 27.1517 108.424 27.1517ZM114.867 27.1517C115.057 27.1517 115.172 27.2696 115.172 27.466V29.1947L113.513 29.175C112.179 29.175 111.855 28.7822 111.779 27.7018C111.035 28.7625 109.625 29.3518 107.852 29.3518C105.012 29.3518 103.239 27.7214 103.239 25.1088C103.239 22.2408 105.088 20.7479 108.576 20.7479H111.645C111.721 20.7479 111.741 20.7283 111.76 20.6497C111.76 18.98 111.226 17.9389 108.576 17.9389C107.261 17.9389 106.251 18.3121 105.336 18.9996C105.164 19.1371 104.954 19.1175 104.859 18.9603L104.097 17.6246C104.001 17.4281 104.02 17.271 104.173 17.1335C105.297 16.2495 106.937 15.6602 108.805 15.6602C112.675 15.6602 114.18 17.0942 114.18 20.5515V26.4053C114.219 27.0142 114.352 27.1517 114.867 27.1517ZM79.9066 21.3961C79.9066 19.4514 78.4007 17.8799 76.5516 17.8799C74.7026 17.8799 73.1967 19.4121 73.1967 21.8479V22.4373C73.1967 22.5355 73.1967 22.6141 73.1967 22.7123C73.1967 22.7908 73.1967 22.8498 73.1967 22.9284V23.3212C73.1967 25.7963 74.7026 27.1517 76.5516 27.1517C78.4007 27.1517 79.9066 25.5802 79.9066 23.6355V21.3961ZM82.3656 10.16V10.5136V28.7036C82.3656 28.9197 82.2131 29.0572 82.0225 29.0572H80.2116C80.0019 29.0572 79.8685 28.9197 79.8685 28.7036V28.075C79.2775 28.9 77.886 29.3911 76.0751 29.3911C73.7685 29.3911 72.0529 28.2518 71.2333 26.0124C70.833 24.932 70.7758 23.6552 70.7186 22.6926C70.6614 21.3372 70.833 20.2961 71.1761 19.255C71.8814 17.0549 73.7876 15.7584 76.1895 15.7584C77.8097 15.7584 79.2394 16.2102 79.8685 16.9567V10.5528C79.8685 10.3368 80.0019 10.1993 80.2116 10.1993H82.3656V10.16ZM51.4848 22.2605L48.7208 15.3459L45.9568 22.2605H48.7208H51.4848ZM56.441 28.35C56.441 28.35 56.6888 28.9 56.6316 28.9786C56.5935 29.0572 56.4982 29.0768 56.4029 29.0768H54.4204C54.2298 29.0768 54.0963 28.9786 54.001 28.7429L52.4189 24.7552H48.7208H45.0036L43.4215 28.7429C43.3262 28.9786 43.1927 29.0768 43.0021 29.0768H41.0196C40.9243 29.0768 40.829 29.0375 40.7909 28.9786C40.7337 28.9 40.9815 28.3696 40.9815 28.35L47.4055 11.9475C47.558 11.5154 47.9202 10.7886 48.7017 10.7886C49.4833 10.7886 49.8645 11.5154 49.998 11.9475L56.441 28.35ZM22.2815 7.82236C22.2815 7.82236 18.9837 3.79541 18.6406 3.3829C18.3165 2.97038 17.9925 2.57751 17.4969 2.55786C16.9822 2.57751 16.6772 2.97038 16.3341 3.3829C15.9909 3.79541 12.6932 7.82236 12.6932 7.82236L15.4572 9.35457L17.4969 6.76161L19.5365 9.35457L22.2815 7.82236ZM12.6932 31.7091C12.6932 31.7091 15.9909 35.736 16.3341 36.1485C16.6581 36.5611 16.9822 36.9539 17.4778 36.9736C17.9925 36.9539 18.2975 36.5611 18.6215 36.1485C18.9646 35.736 22.2624 31.7091 22.2624 31.7091L19.4984 30.1769L17.4587 32.7698L15.4191 30.1769L12.6932 31.7091ZM12.6932 7.82236C12.6932 7.82236 7.60356 7.3902 7.06981 7.33127C6.55513 7.29199 6.05951 7.23305 5.69733 7.58664C5.35421 7.95987 5.4114 8.47061 5.44952 9.00098C5.48765 9.55101 5.92608 14.7959 5.92608 14.7959L8.93791 13.8726L8.61385 10.5528L11.8354 10.8868L12.6932 7.82236ZM22.2815 31.7091C22.2815 31.7091 27.3711 32.1412 27.9048 32.2002C28.4195 32.2395 28.9151 32.2984 29.2773 31.9448C29.6204 31.5716 29.5632 31.0608 29.5251 30.5305C29.487 30.0001 29.0486 24.7356 29.0486 24.7356L26.0749 25.6195L26.3989 28.959L23.1774 28.625L22.2815 31.7091ZM5.90702 14.8155C5.90702 14.8155 1.99926 18.2139 1.59895 18.5675C1.19865 18.9014 0.817402 19.2353 0.79834 19.7461C0.817402 20.2765 1.19865 20.5908 1.59895 20.9247C1.99926 21.2783 5.90702 24.6766 5.90702 24.6766L7.41293 21.8283L4.89672 19.7264L7.41293 17.6246L5.90702 14.8155ZM29.0676 24.7159C29.0676 24.7159 32.9754 21.3176 33.3757 20.964C33.776 20.63 34.1572 20.2961 34.1763 19.7854C34.1572 19.255 33.776 18.9407 33.3757 18.6067C32.9754 18.2532 29.0676 14.8548 29.0676 14.8548L27.5808 17.6638L30.097 19.7657L27.5808 21.8676L29.0676 24.7159ZM5.90702 24.7159C5.90702 24.7159 5.46859 29.9804 5.43046 30.5108C5.39234 31.0412 5.33515 31.5519 5.67827 31.9252C6.04045 32.2787 6.55513 32.2198 7.06981 32.1805C7.58449 32.1412 12.6932 31.6894 12.6932 31.6894L11.7972 28.5857L8.57573 28.9197L8.89979 25.6195L5.90702 24.7159ZM29.0676 14.8155C29.0676 14.8155 29.487 9.57065 29.5442 9.02063C29.5823 8.49025 29.6395 7.97952 29.2964 7.60629C28.9342 7.2527 28.4386 7.31163 27.9239 7.35092C27.4092 7.3902 22.3005 7.84201 22.3005 7.84201L23.1965 10.9457L26.418 10.6118L26.0939 13.9315L29.0676 14.8155Z" fill="#0A27A9"/>
</svg>
