<svg width="163" height="37" viewBox="0 0 163 37" fill="none" xmlns="http://www.w3.org/2000/svg">
<path d="M19.6763 8.93306L10.4673 14.7023L19.6763 20.4715L10.4673 26.2408L1.2583 20.4235L10.4673 14.6542L1.2583 8.93306L10.4673 3.16382L19.6763 8.93306ZM10.4183 28.0677L19.6273 22.2985L28.8363 28.0677L19.6273 33.8369L10.4183 28.0677ZM19.6763 20.4235L28.8853 14.6542L19.6763 8.93306L28.8363 3.16382L38.0453 8.93306L28.8363 14.7023L38.0453 20.4715L28.8363 26.2408L19.6763 20.4235Z" fill="#0061FF"/>
<path d="M45.2476 8.93275H52.6931C57.4446 8.93275 61.3633 11.6251 61.3633 17.7789V19.077C61.3633 25.279 57.6895 28.0674 52.8401 28.0674H45.2476V8.93275ZM49.4112 12.3943V24.5578H52.5952C55.2893 24.5578 57.1017 22.827 57.1017 18.9809V17.9712C57.1017 14.1251 55.1913 12.3943 52.4482 12.3943H49.4112ZM63.5676 12.5866H66.8985L67.4373 16.1924C68.0741 13.7405 69.6906 12.4424 72.6296 12.4424H73.6583V16.577H71.9439C68.564 16.577 67.7312 17.7309 67.7312 21.0001V28.1155H63.6166V12.5866H63.5676ZM74.491 20.6636V20.2309C74.491 15.0385 77.8709 12.202 82.4754 12.202C87.1779 12.202 90.4598 15.0385 90.4598 20.2309V20.6636C90.4598 25.7597 87.2759 28.5001 82.4754 28.5001C77.3811 28.452 74.491 25.7597 74.491 20.6636ZM86.2472 20.6155V20.2309C86.2472 17.3462 84.7777 15.6155 82.4264 15.6155C80.1242 15.6155 78.6057 17.202 78.6057 20.2309V20.6155C78.6057 23.404 80.0752 24.9905 82.4264 24.9905C84.7777 24.9424 86.2472 23.404 86.2472 20.6155ZM92.6151 12.5866H96.044L96.4359 15.5193C97.2686 13.5482 99.032 12.202 101.628 12.202C105.645 12.202 108.29 15.0385 108.29 20.2789V20.7116C108.29 25.8078 105.351 28.5001 101.628 28.5001C99.13 28.5001 97.4156 27.3944 96.5828 25.6155V33.4521H92.5661L92.6151 12.5866ZM104.126 20.6155V20.2789C104.126 17.202 102.51 15.6635 100.355 15.6635C98.0523 15.6635 96.5338 17.3943 96.5338 20.2789V20.5674C96.5338 23.3078 98.0034 25.0386 100.306 25.0386C102.657 24.9905 104.126 23.5001 104.126 20.6155ZM114.364 25.2309L114.021 28.0674H110.494V7.39429H114.511V15.327C115.393 13.3078 117.156 12.202 119.654 12.202C123.426 12.2501 126.218 14.7982 126.218 19.9424V20.4232C126.218 25.5674 123.573 28.5001 119.556 28.5001C116.911 28.452 115.197 27.2501 114.364 25.2309ZM122.006 20.4232V20.0386C122.006 17.202 120.438 15.6155 118.234 15.6155C115.981 15.6155 114.413 17.3943 114.413 20.0866V20.4232C114.413 23.3078 115.932 24.9905 118.185 24.9905C120.585 24.9905 122.006 23.5001 122.006 20.4232ZM127.982 20.6636V20.2309C127.982 15.0385 131.361 12.202 135.966 12.202C140.668 12.202 143.95 15.0385 143.95 20.2309V20.6636C143.95 25.7597 140.717 28.5001 135.966 28.5001C130.872 28.452 127.982 25.7597 127.982 20.6636ZM139.787 20.6155V20.2309C139.787 17.3462 138.317 15.6155 135.966 15.6155C133.664 15.6155 132.145 17.202 132.145 20.2309V20.6155C132.145 23.404 133.615 24.9905 135.966 24.9905C138.317 24.9424 139.787 23.404 139.787 20.6155ZM149.339 20.0386L143.803 12.5866H148.555L151.739 17.2501L154.972 12.5866H159.674L154.041 19.9905L159.968 28.0674H155.315L151.69 22.9232L148.163 28.0674H143.314L149.339 20.0386Z" fill="black"/>
</svg>
