<svg width="88" height="87" viewBox="0 0 88 87" fill="none" xmlns="http://www.w3.org/2000/svg">
<path d="M52.3919 41.9977L51.1762 44.1859L49.2312 47.5898L44.8548 56.5856L43.6391 58.5307L38.7765 68.0128L35.3727 74.5773L30.2669 84.5457C29.7807 85.2751 28.3219 85.0319 27.8356 84.0594L22.973 72.146L10.3302 74.8204C9.35768 75.0636 8.14202 73.8479 8.62828 73.1185L14.4634 61.4482L17.6241 55.37L23.4593 44.4291L29.5375 32.7588L30.5101 30.8137L42.1804 36.892L50.6899 41.2684L52.3919 41.9977Z" fill="white" stroke="#15357A" stroke-width="1.3" stroke-miterlimit="10" stroke-linecap="round" stroke-linejoin="round"/>
<path d="M76.7052 73.6048L64.0624 70.9304L59.1998 82.8438C58.7135 83.8163 57.2547 84.0595 56.7684 83.3301L50.9333 72.146L48.0157 66.7972L43.6394 58.5307L42.6668 56.5857L37.318 46.3741L34.4004 40.7821L42.1806 36.6489L54.094 30.3275L56.0391 29.355L62.8467 42.4841L69.4113 54.6406L72.0857 59.5032L78.4071 71.4166C78.8934 72.6323 77.6777 73.6048 76.7052 73.6048Z" fill="white" stroke="#15357A" stroke-width="1.3" stroke-miterlimit="10" stroke-linecap="round" stroke-linejoin="round"/>
<path opacity="0.1" d="M71.8421 51.7231L72.0853 59.7464C70.3833 63.6365 66.4932 66.5541 61.6306 65.8247C57.2543 65.3384 53.121 67.5266 51.4191 71.4167C51.176 71.6598 51.176 71.903 50.9329 72.1461L48.0153 66.7972C45.3408 68.7423 41.6939 69.2285 38.7763 68.0129L35.3725 74.5774C34.4 73.6049 33.6706 72.6324 33.1843 71.4167C31.4824 67.5266 27.5923 64.8522 23.2159 65.3384C19.569 65.3384 16.4083 63.8796 14.4632 61.4483L17.6239 55.3701C15.6789 54.3975 14.2201 52.6956 13.2476 50.9937C13.7338 50.2643 13.977 49.778 14.4632 49.2918C16.8945 46.1311 17.1377 41.9979 15.4357 38.8372C16.8945 35.6765 16.6514 31.7864 14.7063 28.8688C14.4632 28.3825 14.2201 27.8963 13.977 27.41C15.6789 23.763 19.3258 21.3317 23.9453 21.818C24.6747 21.818 25.161 21.818 25.8904 21.818C29.5373 21.5749 32.698 19.3867 34.1568 16.226C34.4 15.9828 34.4 15.4966 34.6431 15.2534C38.7763 8.68891 48.5015 8.93204 52.1485 15.7397C52.3916 15.9828 52.3916 16.226 52.6348 16.4691C54.0936 19.6298 57.0111 22.0611 60.415 22.5474C61.1444 22.7905 61.8738 22.7905 62.6031 22.5474C67.2226 22.0611 70.6265 24.7356 72.3284 28.1394C72.0853 28.6257 71.8421 29.1119 71.3559 29.8413C69.1677 32.7589 68.6814 36.8921 70.3833 40.0528C68.9245 43.2135 69.1677 47.1036 71.1127 50.0212C71.3559 50.7506 71.599 51.2368 71.8421 51.7231Z" fill="#15357A"/>
<path d="M71.113 41.7547C73.3012 44.9154 73.3012 48.8055 71.8424 51.7231C71.3562 52.9387 70.3836 53.9113 69.6543 54.8838C67.7092 56.5857 65.0348 57.8014 61.8741 57.3151C57.4977 56.8288 53.3645 59.017 51.6626 62.9071C50.9332 64.609 49.7175 65.8247 48.5019 66.7972C45.8274 68.7422 42.1805 69.2285 39.2629 68.0129C36.8316 67.0403 34.8865 65.3384 33.6709 62.664C31.969 58.7739 28.0789 56.0994 23.7025 56.5857C21.0281 56.5857 19.3261 56.0994 17.6242 55.37C15.6792 54.3975 14.2204 52.6956 13.2479 50.9937C11.7891 47.5899 12.0322 43.6998 14.4635 40.5391C14.9498 40.0528 15.1929 39.5665 15.436 38.8371C16.8948 35.6764 16.6517 31.7863 14.7067 28.8688C14.4635 28.3825 14.2204 27.8962 13.9773 27.41C10.3303 20.6023 15.9223 12.3359 23.9456 13.3084C28.322 13.7946 32.4552 11.6065 34.1571 7.71637C37.8041 -0.0638196 48.9881 0.179311 52.1488 8.20263C53.8507 12.0927 57.7408 14.524 62.1172 14.2809C69.8974 13.5515 75.2463 21.818 71.8424 28.3825C71.5993 28.8688 71.3562 29.355 70.8699 30.0844C68.6817 33.002 68.1955 37.1352 69.8974 40.2959C70.3836 40.7822 70.6268 41.2684 71.113 41.7547Z" fill="white" stroke="#15357A" stroke-width="1.3" stroke-miterlimit="10" stroke-linecap="round" stroke-linejoin="round"/>
<path d="M42.9097 56.5857C54.7261 56.5857 64.3052 47.0066 64.3052 35.1902C64.3052 23.3738 54.7261 13.7947 42.9097 13.7947C31.0933 13.7947 21.5142 23.3738 21.5142 35.1902C21.5142 47.0066 31.0933 56.5857 42.9097 56.5857Z" fill="#EAF1FE" stroke="#15357A" stroke-width="1.3" stroke-miterlimit="10" stroke-linecap="round" stroke-linejoin="round"/>
<path d="M49.4743 47.8329L42.6666 44.186L35.6158 47.5898C34.6433 48.076 33.1845 47.1035 33.4276 46.131L34.8864 38.5939L29.5375 33.0019C28.8081 32.0294 29.2944 30.5706 30.5101 30.5706L38.2902 29.5981L41.9372 22.7904C42.4235 21.8179 44.1254 21.8179 44.6116 22.7904L48.0155 29.8412L55.7957 31.0569C57.0113 31.3 57.4976 32.7588 56.5251 33.4882L50.9331 38.8371L52.1487 46.6173C51.6624 47.3467 50.4468 48.3192 49.4743 47.8329Z" fill="white" stroke="#15357A" stroke-width="1.3" stroke-miterlimit="10" stroke-linecap="round" stroke-linejoin="round"/>
</svg>
