<svg width="88" height="87" viewBox="0 0 88 87" fill="none" xmlns="http://www.w3.org/2000/svg">
<path d="M68.0977 42.6567H72.3171V41.2509C72.3171 40.1264 72.3172 39.0018 72.0359 37.8772C70.3481 23.8201 58.5338 13.1367 43.9065 13.1367C29.2791 13.1367 17.4648 24.1013 15.777 38.1584C15.4957 39.2829 15.4956 40.4075 15.4956 41.5321V42.9378H18.8712" stroke="#15357A" stroke-width="1.5" stroke-miterlimit="10" stroke-linecap="round" stroke-linejoin="round"/>
<path d="M14.9339 58.6819C14.9339 58.6819 14.3713 74.1447 29.2799 72.739" stroke="#15357A" stroke-width="1.5" stroke-miterlimit="10" stroke-linecap="round" stroke-linejoin="round"/>
<path d="M35.4688 76.9561H33.2185C30.9681 76.9561 29.2803 75.2692 29.2803 73.0201V72.739C29.2803 70.4898 30.9681 68.803 33.2185 68.803H35.4688C37.7191 68.803 39.4068 70.4898 39.4068 72.739V73.0201C39.4068 74.9881 37.7191 76.9561 35.4688 76.9561Z" fill="#D5E3FC" stroke="#15357A" stroke-width="1.5" stroke-miterlimit="10" stroke-linecap="round" stroke-linejoin="round"/>
<path d="M65.0039 32.2544C66.1291 31.9733 67.2543 31.6921 68.3795 31.6921C74.0054 31.6921 78.506 36.1904 78.506 41.5321V53.059C78.506 58.4007 74.0054 62.8989 68.3795 62.8989C67.2543 62.8989 66.1291 62.6178 65.0039 62.3366V32.2544Z" fill="white" stroke="#15357A" stroke-width="1.5" stroke-miterlimit="10" stroke-linecap="round" stroke-linejoin="round"/>
<path opacity="0.1" d="M75.6927 35.0659C75.6927 35.0659 74.5675 60.931 64.7222 59.2442V62.3367C65.0035 62.6179 85.8193 68.2407 75.6927 35.0659Z" fill="#15357A"/>
<path d="M21.4029 31.9732C20.559 31.692 19.4337 31.4109 18.3085 31.4109C12.9639 31.4109 8.74463 35.628 8.74463 40.9697V51.9343C8.74463 57.276 12.9639 61.4931 18.3085 61.4931C19.4337 61.4931 20.2777 61.212 21.4029 60.9308V31.9732Z" fill="white" stroke="#15357A" stroke-width="1.5" stroke-miterlimit="10" stroke-linecap="round" stroke-linejoin="round"/>
<path opacity="0.1" d="M10.995 34.7847C10.995 34.7847 12.1201 59.5252 21.1215 57.8383V60.9309C21.4028 61.212 1.71226 66.5537 10.995 34.7847Z" fill="#15357A"/>
<path d="M53.4711 18.4785H34.6245C32.9367 18.4785 31.8115 17.3539 31.8115 15.667V12.8556C31.8115 11.1688 32.9367 10.0442 34.6245 10.0442H53.4711C55.1588 10.0442 56.284 11.1688 56.284 12.8556V15.667C56.284 17.0727 55.1588 18.4785 53.4711 18.4785Z" fill="#D5E3FC" stroke="#15357A" stroke-width="1.5" stroke-miterlimit="10" stroke-linecap="round" stroke-linejoin="round"/>
</svg>
