<svg width="109" height="39" viewBox="0 0 109 39" fill="none" xmlns="http://www.w3.org/2000/svg">
<g clip-path="url(#clip0_2412_10751)">
<path d="M45.8981 18.2793C45.8981 23.0256 45.8981 27.4314 45.8981 31.9027C45.2228 31.9027 44.6192 31.9027 43.96 31.9027C43.96 26.737 43.96 21.619 43.96 16.4191C45.0036 16.4191 46.0399 16.4191 47.1624 16.4191C49.2468 20.416 51.353 24.4531 53.6025 28.7682C53.6025 24.4679 53.6025 20.471 53.6025 16.4087C54.3143 16.4087 54.9341 16.4087 55.586 16.4087C55.586 21.5996 55.586 26.7192 55.586 31.9042C54.7236 31.9042 53.908 31.9042 53.0018 31.9042C50.7011 27.485 48.38 23.0375 45.8981 18.2793Z" fill="black"/>
<path d="M63.8943 19.9443C67.1759 19.9428 69.2427 22.3458 69.2354 26.1539C69.2281 29.9115 67.1481 32.2787 63.8607 32.2698C60.6245 32.2609 58.5474 29.8669 58.5518 26.1509C58.5576 22.3146 60.5967 19.9458 63.8943 19.9443ZM60.7312 26.0513C60.7312 26.4082 60.6961 26.7695 60.737 27.1204C60.9022 28.4959 61.3422 29.7479 62.7484 30.252C63.89 30.6624 65.0374 30.5836 65.9846 29.6765C67.5223 28.203 67.5515 23.9666 65.9846 22.5302C65.5709 22.151 64.9497 21.8655 64.3957 21.8075C61.8903 21.5443 60.7136 22.9376 60.7312 26.0513Z" fill="black"/>
<path d="M90.5855 19.9443C93.845 19.9443 95.9483 22.4038 95.9103 26.1717C95.8723 29.9055 93.8026 32.2742 90.5782 32.2698C87.2953 32.2653 85.2359 29.9025 85.2285 26.1316C85.2198 22.3279 87.2836 19.9443 90.5855 19.9443ZM87.3377 25.8684C87.3669 26.4572 87.3713 26.8572 87.4093 27.2542C87.5876 29.0892 88.6926 30.3501 90.1894 30.4393C92.0544 30.5494 93.3027 29.6869 93.5716 27.8059C93.7456 26.5896 93.7076 25.2929 93.4971 24.0796C93.2252 22.5123 92.0588 21.7287 90.4949 21.7525C88.944 21.7763 87.8844 22.6313 87.5511 24.1881C87.421 24.7978 87.3903 25.4312 87.3377 25.8684Z" fill="black"/>
<path d="M98.7881 20.2746C99.44 20.2746 100.045 20.2746 100.712 20.2746C100.753 20.627 100.789 20.9512 100.808 21.1133C101.951 20.7311 103.097 20.1185 104.29 19.9995C106.611 19.7705 108.072 20.8872 108.255 23.2366C108.476 26.0901 108.308 28.9763 108.308 31.8953C107.669 31.8953 107.048 31.8953 106.332 31.8953C106.332 29.7288 106.364 27.6321 106.32 25.537C106.295 24.3147 106.636 22.85 105.251 22.1616C103.784 21.4329 102.445 22.1393 101.197 22.9616C101.061 23.0508 100.947 23.1757 100.767 23.3318C100.767 26.1526 100.767 29.0031 100.767 31.9235C100.077 31.9235 99.4575 31.9235 98.7895 31.9235C98.7881 28.0351 98.7881 24.1824 98.7881 20.2746Z" fill="black"/>
<path d="M74.1418 16.9573C74.1418 18.0591 74.1418 19.0806 74.1418 20.2107C75.4705 20.2107 76.7363 20.2107 78.0503 20.2107C78.0503 20.8501 78.0503 21.3809 78.0503 22.0203C76.7509 22.0203 75.4851 22.0203 74.2704 22.0203C74.2704 24.453 74.098 26.7934 74.3318 29.0908C74.4868 30.6193 75.9221 30.3591 77.0374 30.2417C77.3589 30.2075 77.6703 30.087 78.0503 29.9889C78.0503 30.6283 78.0503 31.2022 78.0503 31.7747C75.0232 32.7546 72.1101 32.1286 72.0955 28.2001C72.0882 26.1868 72.094 24.1734 72.094 22.1006C71.6672 22.0516 71.3091 22.0099 70.8882 21.9609C70.8882 21.4181 70.8882 20.8873 70.8882 20.288C71.239 20.2494 71.5985 20.2092 72.0809 20.1557C72.0809 19.1015 72.0809 18.0487 72.0809 16.9573C72.8146 16.9573 73.4227 16.9573 74.1418 16.9573Z" fill="black"/>
<path d="M80.3569 20.2686C81.0454 20.2686 81.6329 20.2686 82.279 20.2686C82.279 24.1451 82.279 27.9725 82.279 31.8847C81.6622 31.8847 81.0454 31.8847 80.3569 31.8847C80.3569 28.023 80.3569 24.1822 80.3569 20.2686Z" fill="black"/>
<path d="M80.2603 16.3208C81.0101 16.3208 81.6795 16.3208 82.4045 16.3208C82.4045 17.0107 82.4045 17.6635 82.4045 18.3906C81.7058 18.3906 81.0232 18.3906 80.2603 18.3906C80.2603 17.7126 80.2603 17.0464 80.2603 16.3208Z" fill="black"/>
<path fill-rule="evenodd" clip-rule="evenodd" d="M7.315 7.52848C8.44632 8.46229 8.8702 8.3924 10.9925 8.24816L31.0099 7.0244C31.4338 7.0244 31.0815 6.59318 30.9397 6.52181L27.6159 4.07725C26.9786 3.57466 26.1309 2.99772 24.5041 3.14196L5.12106 4.58133C4.41362 4.6527 4.2733 5.01255 4.55394 5.30102L7.315 7.52848ZM8.51648 12.2748V33.7004C8.51648 34.8513 9.08214 35.2825 10.3552 35.2111L32.3546 33.916C33.6277 33.8446 33.7709 33.0521 33.7709 32.1168V10.8355C33.7709 9.90166 33.4172 9.39758 32.6382 9.47044L9.6478 10.8355C8.80004 10.9083 8.51648 11.3395 8.51648 12.2748ZM30.2337 13.4243C30.3741 14.0726 30.2337 14.7194 29.5965 14.7923L28.5368 15.0064V30.8246C27.6159 31.3272 26.7682 31.6157 26.0607 31.6157C24.9279 31.6157 24.6444 31.2558 23.7966 30.1778L16.864 19.1044V29.818L19.0579 30.322C19.0579 30.322 19.0579 31.6157 17.2879 31.6157L12.4089 31.9042C12.2671 31.6157 12.4089 30.8975 12.9044 30.7533L14.1775 30.3949V16.2287L12.4089 16.0844C12.2671 15.4361 12.6208 14.5023 13.6118 14.4309L18.846 14.0726L26.0607 25.2887V15.3662L24.2205 15.1521C24.0787 14.3596 24.6444 13.7856 25.3518 13.7142L30.2337 13.4243ZM3.49278 2.63936L23.6548 1.12862C26.1309 0.913008 26.7682 1.05724 28.3234 2.20666L34.759 6.80879C35.8216 7.59985 36.1754 7.81546 36.1754 8.6779V33.916C36.1754 35.4981 35.6082 36.4334 33.6292 36.5762L10.2164 38.0141C8.72988 38.0854 8.02244 37.8713 7.24338 36.8632L2.5047 30.6075C1.65548 29.4566 1.30176 28.5942 1.30176 27.5875V5.1553C1.30176 3.86164 1.86742 2.78211 3.49278 2.63936Z" fill="black"/>
</g>
<defs>
<clipPath id="clip0_2412_10751">
<rect width="108" height="38" fill="white" transform="translate(0.5 0.5)"/>
</clipPath>
</defs>
</svg>
