<svg width="1440" height="54" viewBox="0 0 1440 54" fill="none" xmlns="http://www.w3.org/2000/svg">
<g clip-path="url(#clip0_1565_15656)">
<rect width="1440" height="54" fill="#05256A"/>
<path d="M218.239 26.3969L217.716 23.5339C217.324 21.0614 215.362 19.1094 212.877 18.719L210 18.1984L212.877 17.6779C215.362 17.2875 217.324 15.3355 217.716 12.8629L218.239 10L218.763 12.8629C219.155 15.3355 221.117 17.2875 223.602 17.6779L226.479 18.1984L223.602 18.719C221.117 19.1094 219.155 21.0614 218.763 23.5339L218.239 26.3969Z" fill="#FFC664" stroke="black" stroke-width="0.586394" stroke-miterlimit="10" stroke-linejoin="round"/>
<path d="M130.5 37L129.643 32.2857C129 28.2143 125.786 25 121.714 24.3571L117 23.5L121.714 22.6428C125.786 22 129 18.7857 129.643 14.7143L130.5 10L131.357 14.7143C132 18.7857 135.214 22 139.286 22.6428L144 23.5L139.286 24.3571C135.214 25 132 28.2143 131.357 32.2857L130.5 37Z" fill="white" stroke="black" stroke-width="1.80268" stroke-miterlimit="10" stroke-linejoin="round"/>
<path d="M175.327 43.6548L174.799 40.7468C174.402 38.2354 172.419 36.2527 169.908 35.8561L167 35.3274L169.908 34.7987C172.419 34.4021 174.402 32.4194 174.799 29.908L175.327 27L175.856 29.908C176.253 32.4194 178.235 34.4021 180.747 34.7987L183.655 35.3274L180.747 35.8561C178.235 36.2527 176.253 38.2354 175.856 40.7468L175.327 43.6548Z" fill="white" stroke="black" stroke-width="0.642134" stroke-miterlimit="10" stroke-linejoin="round"/>
<path d="M1171.36 36.9732L1159.04 15.7131H1156.24L1168.56 36.9732H1171.36Z" fill="#FFAE1F" stroke="black" stroke-width="0.38192" stroke-linecap="round" stroke-linejoin="round"/>
<path d="M1156.24 15.7131L1143.91 36.9732H1146.72H1168.56L1156.24 15.7131Z" fill="#FFC664" stroke="black" stroke-width="0.38192" stroke-linecap="round" stroke-linejoin="round"/>
<path d="M1159.85 36.1234C1159.17 32.4766 1157.83 29.3511 1157.81 22.4534" stroke="#FFAE1F" stroke-width="0.38192" stroke-linecap="round" stroke-linejoin="round"/>
<path d="M1160.56 24.9345C1160.13 28.0601 1160.73 31.4343 1161.32 32.7196C1161.87 33.9133 1162.58 35.0075 1162.96 36.3067" stroke="#FFAE1F" stroke-width="0.38192" stroke-linecap="round" stroke-linejoin="round"/>
<path d="M1155.89 36.0222C1155.47 35.0453 1154.79 34.164 1154.04 34.4843C1153.58 34.6813 1153.19 35.115 1152.87 35.7218" stroke="#FFAE1F" stroke-width="0.38192" stroke-linecap="round" stroke-linejoin="round"/>
<path d="M1163.63 31.8781C1164.1 33.3523 1164.4 34.9141 1164.54 36.4997" stroke="#FFAE1F" stroke-width="0.38192" stroke-linecap="round" stroke-linejoin="round"/>
<path d="M1150.9 35.5347C1151.15 34.8543 1151.41 34.1719 1151.61 33.4656C1152.07 31.9277 1152.31 30.1909 1151.91 28.6271" stroke="#FFAE1F" stroke-width="0.38192" stroke-linecap="round" stroke-linejoin="round"/>
<path d="M1155.49 22.8195C1155.18 29.5521 1156.93 30.9905 1157.77 35.6937" stroke="#FFAE1F" stroke-width="0.38192" stroke-linecap="round" stroke-linejoin="round"/>
<path d="M1148.05 35.455C1148.05 34.6412 1148.07 33.8574 1148.14 33.1372" stroke="#FFAE1F" stroke-width="0.38192" stroke-linecap="round" stroke-linejoin="round"/>
<path d="M1153.95 25.4817C1154.24 27.71 1154.3 29.8646 1153.95 31.888" stroke="#FFAE1F" stroke-width="0.38192" stroke-linecap="round" stroke-linejoin="round"/>
<path d="M1155.31 23.6714H1121.55C1120.33 23.6714 1119.34 22.6925 1119.34 21.4829C1119.34 20.2733 1120.33 19.2944 1121.55 19.2944H1155.31C1156.53 19.2944 1157.52 20.2733 1157.52 21.4829C1157.52 22.6925 1156.53 23.6714 1155.31 23.6714Z" fill="#FFC664" stroke="black" stroke-width="0.38192" stroke-linecap="round" stroke-linejoin="round"/>
<path d="M1126.14 20.8521C1129.58 19.9369 1133.36 20.671 1136.88 21.3893C1140.4 22.1075 1144.21 22.7998 1147.62 21.8071" stroke="#FFAE1F" stroke-width="0.38192" stroke-linecap="round" stroke-linejoin="round"/>
<path d="M1127.8 22.1888C1130.34 22.0356 1132.91 22.2008 1135.38 22.6743" stroke="#FFAE1F" stroke-width="0.38192" stroke-linecap="round" stroke-linejoin="round"/>
<path d="M1139.53 20.5893C1142.91 20.2491 1146.33 19.9069 1149.72 20.1954C1152.01 20.3903 1154.26 20.8718 1156.35 21.6179" stroke="#FFAE1F" stroke-width="0.38192" stroke-linecap="round" stroke-linejoin="round"/>
<path d="M1149.92 21.5601C1151.18 22.1947 1152.72 22.5071 1154.22 22.4395" stroke="#FFAE1F" stroke-width="0.38192" stroke-linecap="round" stroke-linejoin="round"/>
<path d="M1139.43 16.4588C1139.41 16.8826 1139.85 16.8826 1139.98 16.6976C1140.1 16.5105 1140.02 16.2559 1140.13 16.0967C1140.21 15.9853 1140.3 15.8858 1140.4 15.7983C1140.23 15.8301 1140.07 15.8639 1139.91 15.8998C1139.88 15.9256 1139.86 15.9495 1139.83 15.9694C1139.76 16.0231 1139.45 16.1246 1139.43 16.4608V16.4588Z" fill="#549CF1" stroke="black" stroke-width="0.38192" stroke-linecap="round" stroke-linejoin="round"/>
<path d="M1138.44 39.5731C1138.2 39.3244 1137.88 39.024 1138 38.7017C1138.09 38.4689 1138.39 38.3555 1138.46 38.1147C1138.56 37.7387 1138.05 37.498 1137.89 37.1439C1137.72 36.7897 1137.93 36.3759 1138.11 36.0178C1138.29 35.6617 1138.41 35.1842 1138.12 34.9096C1137.77 34.5734 1137.12 34.8499 1136.73 34.5555C1136.4 34.3108 1136.44 33.8233 1136.26 33.4632C1135.98 32.9042 1135.16 32.5819 1135.23 31.9631C1135.28 31.5911 1135.64 31.3563 1135.94 31.1275C1136.24 30.8987 1136.53 30.5148 1136.36 30.1785C1136.12 29.6891 1135.64 30.0472 1135.22 29.6891C1134.87 29.3847 1134.91 28.7043 1134.46 28.5591C1134.26 28.4914 1134.04 28.5809 1133.82 28.6187C1133.61 28.6565 1133.34 28.6048 1133.27 28.3999C1133.23 28.2646 1133.3 28.1174 1133.27 27.9801C1133.22 27.7234 1132.88 27.6439 1132.62 27.6916C1132.36 27.7394 1132.11 27.8269 1131.84 27.801C1131.31 27.7493 1130.97 27.238 1130.92 26.8878C1130.86 26.5377 1130.89 26.1637 1130.73 25.8433C1130.68 25.7479 1130.61 25.6623 1130.53 25.5927C1130.44 25.525 1130.34 25.4753 1130.24 25.4454C1130.02 26.4004 1129.9 27.3773 1129.9 28.3561C1129.9 33.9347 1133.51 38.6778 1138.54 40.4206C1138.8 40.2555 1138.66 39.8078 1138.43 39.5731H1138.44Z" fill="#549CF1" stroke="black" stroke-width="0.38192" stroke-linecap="round" stroke-linejoin="round"/>
<path d="M1137.53 17.1811C1137.95 17.1593 1138.01 16.839 1138.43 16.8489C1138.96 16.8608 1138.84 16.4371 1138.54 16.2898C1138.04 16.4629 1137.55 16.6659 1137.08 16.8986C1137.11 17.0359 1137.22 17.1991 1137.53 17.1811H1137.53Z" fill="#549CF1" stroke="black" stroke-width="0.38192" stroke-linecap="round" stroke-linejoin="round"/>
<path d="M1140.52 39.965C1141.15 39.4039 1141.5 38.8449 1142.13 38.2838C1142.41 38.0312 1142.72 37.693 1142.61 37.3329C1142.54 37.0981 1142.31 36.929 1142.28 36.6843C1142.24 36.3122 1142.7 36.0894 1143.07 36.0596C1143.45 36.0317 1144.16 36.0635 1144.42 35.787C1144.8 35.3712 1144.42 34.7027 1144.52 34.1476C1144.6 33.7219 1144.96 33.3797 1144.99 32.9459C1145.04 32.2894 1144.3 31.8656 1143.66 31.6965C1143.02 31.5274 1142.27 31.3862 1141.95 30.8072C1141.79 30.5068 1141.73 30.083 1141.4 29.9835C1141.19 29.9199 1140.96 30.0273 1140.75 29.9676C1140.29 29.8323 1140.33 29.0485 1139.87 28.8933C1139.46 28.752 1139.04 29.2773 1138.61 29.1599C1138.23 29.0544 1138.12 28.5013 1137.73 28.4138C1137.25 28.3044 1136.7 29.3708 1136.01 29.2196C1135.4 29.0843 1135.67 28.2745 1135.39 27.9343C1135.1 27.5862 1134.56 27.7792 1134.63 27.3235C1134.68 26.9933 1134.89 26.5039 1134.55 26.4581C1134.19 26.4064 1134.01 27.0609 1133.36 27.1843C1133.09 27.232 1132.63 27.1206 1132.59 26.3925C1132.55 25.8155 1133.01 25.1271 1133.99 24.9819C1135.39 24.775 1135.3 25.4136 1135.75 25.5688C1136.2 25.724 1136.37 25.6305 1136.59 25.2166C1136.81 24.8327 1136.61 24.2875 1136.9 23.9612C1137.07 23.7802 1137.33 23.7325 1137.54 23.6091C1138.17 23.241 1138.24 22.2642 1138.9 21.9697C1139.26 21.8106 1139.66 21.8623 1140.05 21.8384C1140.44 21.8146 1140.89 21.5877 1140.64 21.0446C1140.57 20.9014 1140.39 20.8258 1140.32 20.6785C1140.14 20.2667 1140.78 19.9384 1141.01 20.3721C1141.46 21.2555 1141.91 20.2607 1142.1 20.5353C1142.26 20.7681 1141.92 21.0466 1142.1 21.2873C1142.18 21.3987 1142.38 21.3589 1142.56 21.3888C1142.77 21.4206 1142.95 21.5121 1143.06 21.4127C1143.27 21.2197 1143.24 20.961 1142.88 20.8059C1142.79 20.77 1142.61 20.7183 1142.58 20.6328C1142.47 20.3483 1142.96 20.3284 1142.99 20.0797C1143.05 19.6619 1142.69 19.6241 1142.53 19.4231C1142.34 19.1605 1142.39 18.6512 1142.06 18.7507C1141.73 18.8502 1141.52 19.0809 1141.29 18.8183C1141.18 18.6771 1141.09 18.5159 1141.04 18.3448C1140.84 17.8236 1139.96 17.921 1139.87 18.4125C1139.72 19.1904 1139.56 19.3833 1139.14 19.5664C1138.76 19.7275 1138.78 20.4378 1138.39 20.2806C1138.2 20.201 1138.36 19.7216 1138.01 19.4391C1137.82 19.2859 1137.47 19.3913 1137.28 19.2361C1136.88 18.8959 1137.21 18.3667 1137.47 18.2951C1138.13 18.116 1138.09 17.7798 1138.53 17.7181C1138.9 17.6644 1139.09 18.0603 1139.34 17.9867C1139.61 17.9051 1139.62 17.4834 1139.84 17.3461C1140.15 17.1491 1140.3 17.3461 1140.73 16.8825C1140.98 16.6139 1141.88 16.7651 1141.88 17.1312C1141.87 17.368 1141.12 17.3958 1141.08 17.6763C1141.06 17.8275 1141.37 17.8375 1141.65 17.8932C1141.83 17.929 1142.02 18.0703 1142.14 18.0643C1142.4 18.0504 1142.32 17.7499 1142.57 17.7102C1142.96 17.6465 1143.35 17.5968 1143.33 17.2406C1143.31 16.9362 1142.93 17.1829 1142.87 16.7214C1142.83 16.3374 1142.11 16.1703 1141.9 15.9534C1141.77 15.8241 1141.62 15.7206 1141.45 15.649C1141.1 15.6848 1140.75 15.7365 1140.4 15.8022C1140.3 15.8897 1140.21 15.9912 1140.13 16.1006C1140.02 16.2598 1140.1 16.5164 1139.98 16.7015C1139.86 16.8885 1139.42 16.8885 1139.44 16.4627C1139.45 16.1265 1139.76 16.023 1139.83 15.9713C1139.86 15.9514 1139.89 15.9275 1139.91 15.9017C1139.45 16.0071 1138.99 16.1384 1138.54 16.2956C1138.84 16.4428 1138.96 16.8666 1138.43 16.8547C1138.01 16.8447 1137.95 17.165 1137.53 17.1869C1137.22 17.2048 1137.12 17.0437 1137.08 16.9044C1135.38 17.742 1133.88 18.9417 1132.7 20.4199C1131.51 21.8961 1130.68 23.6131 1130.24 25.4494C1130.35 25.4773 1130.44 25.527 1130.53 25.5966C1130.61 25.6643 1130.68 25.7498 1130.73 25.8473C1130.89 26.1676 1130.86 26.5397 1130.92 26.8918C1130.97 27.244 1131.31 27.7573 1131.85 27.805C1132.11 27.8309 1132.36 27.7453 1132.62 27.6956C1132.88 27.6459 1133.22 27.7274 1133.27 27.9841C1133.3 28.1233 1133.23 28.2686 1133.27 28.4039C1133.33 28.6108 1133.61 28.6605 1133.82 28.6227C1134.04 28.5849 1134.26 28.4954 1134.47 28.563C1134.91 28.7063 1134.87 29.3887 1135.23 29.6931C1135.64 30.0512 1136.12 29.6931 1136.37 30.1825C1136.53 30.5187 1136.25 30.9027 1135.95 31.1315C1135.64 31.3583 1135.28 31.5951 1135.23 31.9671C1135.16 32.5858 1135.98 32.9101 1136.26 33.4672C1136.44 33.8273 1136.41 34.3167 1136.73 34.5595C1137.12 34.8539 1137.77 34.5774 1138.12 34.9136C1138.41 35.1881 1138.29 35.6656 1138.11 36.0218C1137.94 36.3779 1137.72 36.7877 1137.89 37.1478C1138.06 37.5079 1138.56 37.7427 1138.46 38.1187C1138.39 38.3594 1138.09 38.4729 1138.01 38.7056C1137.88 39.0259 1138.2 39.3283 1138.44 39.577C1138.66 39.8118 1138.8 40.2575 1138.55 40.4226C1139.02 40.5877 1139.51 40.725 1140 40.8324C1139.99 40.5221 1140.27 40.1978 1140.52 39.969L1140.52 39.965Z" fill="#88EB7A" stroke="black" stroke-width="0.38192" stroke-linecap="round" stroke-linejoin="round"/>
<path d="M1154.97 24.0907C1154.88 24.0987 1154.79 24.1285 1154.71 24.1783C1154.63 24.228 1154.57 24.2976 1154.52 24.3792C1154.48 24.4568 1154.32 24.6458 1154.22 24.6458C1153.73 24.6458 1153.92 24.3633 1153.43 24.2658C1153.2 24.2181 1152.8 24.4687 1152.67 24.2738C1152.6 24.1584 1152.57 24.0171 1152.52 23.8898C1152.32 23.4581 1151.68 23.3029 1151.31 23.6013C1151.2 23.6889 1151.11 23.8082 1151 23.8838C1150.49 24.2061 1149.84 23.6212 1149.25 23.7207C1149.07 23.7585 1148.9 23.86 1148.78 24.0112C1148.67 24.1604 1148.61 24.3474 1148.62 24.5344C1148.63 24.6438 1148.67 24.7552 1148.64 24.8647C1148.6 25.0378 1148.43 25.1432 1148.27 25.2148C1147.95 25.3561 1147.67 25.3581 1147.33 25.6704C1147.07 25.9032 1146.89 26.2912 1147.07 26.5896C1147.12 26.6672 1147.18 26.7328 1147.22 26.8144C1147.42 27.2063 1146.94 27.6142 1146.9 28.0519C1146.85 28.5692 1147.41 28.9173 1147.67 29.367C1147.88 29.7191 1147.98 30.2244 1148.38 30.31C1148.79 30.3955 1149.14 29.9539 1149.56 29.9638C1149.8 29.9698 1150.03 30.1369 1150.27 30.1071C1150.47 30.0852 1150.62 29.9479 1150.78 29.8444C1150.95 29.741 1151.17 29.6714 1151.33 29.7828C1151.48 29.8902 1151.5 30.113 1151.63 30.2424C1151.83 30.4433 1152.22 30.3458 1152.41 30.5587C1152.67 30.8511 1152.45 31.0939 1152.5 31.4778C1152.56 31.8419 1152.81 32.21 1153.03 32.5064C1153.27 32.8208 1153.25 33.2545 1153.16 33.6365C1153.08 34.0185 1152.95 34.4024 1152.99 34.7904C1153.02 35.0968 1153.21 35.4091 1153.48 35.5285C1154.93 33.4117 1155.71 30.9108 1155.7 28.3523C1155.7 26.9019 1155.46 25.4595 1154.97 24.0927L1154.97 24.0907Z" fill="#88EB7A" stroke="black" stroke-width="0.38192" stroke-linecap="round" stroke-linejoin="round"/>
<path d="M1151.48 19.9526C1151.35 20.1794 1151.32 20.5315 1151.06 20.5773C1150.98 20.5832 1150.9 20.5733 1150.82 20.5494C1150.6 20.5017 1150.35 20.5076 1150.16 20.637C1150.1 20.6827 1150.05 20.7464 1150.01 20.818C1149.98 20.8896 1149.96 20.9712 1149.97 21.0508C1149.99 21.2756 1150.17 21.3214 1150.29 21.4328C1150.37 21.5024 1150.42 21.6257 1150.36 21.7093C1150.17 21.8406 1149.9 21.8108 1149.67 21.7571C1149.42 21.6974 1149.16 21.6138 1148.92 21.7033C1148.85 21.7272 1148.79 21.767 1148.75 21.8187C1148.7 21.8705 1148.67 21.9321 1148.65 21.9998C1148.57 22.2883 1148.85 22.336 1148.92 22.5171C1149.01 22.7578 1148.69 23.0701 1148.87 23.2572C1148.97 23.3527 1149.13 23.3208 1149.25 23.2572C1149.37 23.1935 1149.49 23.102 1149.63 23.102C1149.75 23.102 1149.86 23.1756 1149.97 23.2273C1150.16 23.3168 1150.4 23.3367 1150.59 23.2333C1150.8 23.1139 1150.91 22.8016 1150.73 22.6086C1150.68 22.5608 1150.65 22.4992 1150.63 22.4335C1150.61 22.2485 1150.78 22.2087 1150.91 22.2485C1151.01 22.2763 1151.09 22.336 1151.19 22.3539C1151.45 22.4017 1151.66 22.1609 1151.82 21.958C1151.9 21.8466 1152.01 21.7491 1152.13 21.6755C1152.16 21.6576 1152.2 21.6476 1152.24 21.6456C1152.28 21.6456 1152.32 21.6516 1152.35 21.6695C1152.38 21.6854 1152.41 21.7093 1152.44 21.7411C1152.46 21.771 1152.48 21.8068 1152.48 21.8446C1152.51 21.9859 1152.58 22.1152 1152.68 22.2206C1152.78 22.3241 1152.91 22.3997 1153.05 22.4355C1153.22 22.4733 1153.41 22.4514 1153.56 22.5688C1153.6 22.5946 1153.62 22.6285 1153.64 22.6702C1153.65 22.71 1153.66 22.7538 1153.65 22.7956C1153.59 23.0522 1153.14 22.9448 1153.05 23.2213C1152.98 23.4024 1153.12 23.5854 1153.32 23.6133C1153.61 23.6551 1153.84 23.4044 1153.93 23.1418C1154.02 22.8612 1154.21 22.7478 1154.36 22.6623C1153.82 21.5919 1153.13 20.6011 1152.32 19.7198C1152.04 19.5825 1151.64 19.6999 1151.49 19.9605L1151.48 19.9526Z" fill="#88EB7A" stroke="black" stroke-width="0.38192" stroke-linecap="round" stroke-linejoin="round"/>
<path d="M1154.35 22.6522C1154.21 22.7397 1154.01 22.8531 1153.92 23.1336C1153.83 23.3963 1153.6 23.6469 1153.31 23.6052C1153.12 23.5773 1152.98 23.3943 1153.04 23.2132C1153.13 22.9367 1153.58 23.0441 1153.64 22.7875C1153.65 22.7457 1153.65 22.7019 1153.63 22.6621C1153.61 22.6223 1153.59 22.5865 1153.55 22.5607C1153.4 22.4433 1153.22 22.4652 1153.04 22.4274C1152.9 22.3916 1152.78 22.3179 1152.68 22.2125C1152.58 22.109 1152.51 21.9797 1152.48 21.8385C1152.47 21.8007 1152.46 21.7648 1152.43 21.735C1152.41 21.7052 1152.38 21.6813 1152.34 21.6634C1152.31 21.6475 1152.27 21.6395 1152.23 21.6395C1152.19 21.6395 1152.16 21.6514 1152.12 21.6694C1152 21.743 1151.9 21.8405 1151.81 21.9519C1151.65 22.1568 1151.44 22.3955 1151.18 22.3478C1151.09 22.3299 1151 22.2722 1150.91 22.2423C1150.78 22.2045 1150.6 22.2423 1150.63 22.4274C1150.64 22.495 1150.67 22.5547 1150.72 22.6024C1150.91 22.7954 1150.79 23.1058 1150.58 23.2272C1150.4 23.3306 1150.16 23.3107 1149.96 23.2212C1149.85 23.1695 1149.74 23.0958 1149.62 23.0958C1149.49 23.0958 1149.37 23.1874 1149.25 23.251C1149.13 23.3147 1148.96 23.3465 1148.87 23.251C1148.68 23.066 1149.01 22.7536 1148.92 22.5109C1148.84 22.3279 1148.57 22.2801 1148.64 21.9936C1148.66 21.926 1148.69 21.8643 1148.74 21.8126C1148.79 21.7609 1148.85 21.7211 1148.91 21.6972C1149.16 21.6097 1149.42 21.6912 1149.67 21.7509C1149.9 21.8066 1150.16 21.8365 1150.36 21.7032C1150.42 21.6176 1150.36 21.4963 1150.28 21.4266C1150.16 21.3172 1149.98 21.2714 1149.96 21.0446C1149.96 20.9651 1149.97 20.8855 1150.01 20.8119C1150.04 20.7402 1150.09 20.6766 1150.16 20.6308C1150.34 20.4995 1150.59 20.4935 1150.81 20.5433C1150.89 20.5691 1150.98 20.5791 1151.06 20.5711C1151.32 20.5234 1151.35 20.1712 1151.48 19.9464C1151.63 19.6858 1152.03 19.5664 1152.3 19.7037C1151.1 18.3986 1149.63 17.3561 1147.99 16.6438C1146.36 15.9316 1144.59 15.5655 1142.8 15.5675C1142.35 15.5675 1141.9 15.5913 1141.45 15.6371C1141.61 15.7087 1141.77 15.8122 1141.89 15.9415C1142.1 16.1623 1142.82 16.3255 1142.87 16.7095C1142.93 17.171 1143.31 16.9263 1143.32 17.2287C1143.34 17.5868 1142.95 17.6366 1142.56 17.6983C1142.32 17.738 1142.39 18.0385 1142.14 18.0524C1142.02 18.0584 1141.83 17.9171 1141.65 17.8813C1141.37 17.8256 1141.05 17.8156 1141.08 17.6644C1141.12 17.3839 1141.87 17.3561 1141.87 17.1193C1141.88 16.7532 1140.98 16.604 1140.73 16.8706C1140.3 17.3342 1140.15 17.1372 1139.84 17.3342C1139.62 17.4734 1139.61 17.8952 1139.34 17.9748C1139.09 18.0484 1138.89 17.6545 1138.52 17.7062C1138.09 17.7679 1138.12 18.1061 1137.47 18.2832C1137.2 18.3548 1136.88 18.882 1137.28 19.2242C1137.46 19.3814 1137.82 19.272 1138.01 19.4272C1138.36 19.7097 1138.19 20.1891 1138.39 20.2687C1138.77 20.4259 1138.75 19.7156 1139.13 19.5545C1139.56 19.3734 1139.72 19.1805 1139.86 18.4006C1139.95 17.9091 1140.84 17.8117 1141.03 18.3329C1141.09 18.504 1141.18 18.6652 1141.29 18.8064C1141.51 19.0671 1141.73 18.8383 1142.06 18.7388C1142.39 18.6393 1142.33 19.1486 1142.53 19.4112C1142.68 19.6102 1143.05 19.652 1142.99 20.0678C1142.96 20.3165 1142.47 20.3364 1142.58 20.6209C1142.61 20.7064 1142.79 20.7581 1142.87 20.794C1143.23 20.9491 1143.27 21.2078 1143.06 21.4008C1142.95 21.5002 1142.76 21.4107 1142.56 21.3769C1142.38 21.347 1142.17 21.3868 1142.09 21.2754C1141.92 21.0347 1142.25 20.7562 1142.09 20.5234C1141.9 20.2488 1141.46 21.2436 1141 20.3602C1140.78 19.9285 1140.14 20.2548 1140.32 20.6666C1140.39 20.8139 1140.56 20.8855 1140.63 21.0327C1140.89 21.5758 1140.44 21.8007 1140.05 21.8265C1139.66 21.8504 1139.25 21.7987 1138.9 21.9578C1138.24 22.2543 1138.16 23.2291 1137.54 23.5972C1137.33 23.7225 1137.06 23.7683 1136.9 23.9513C1136.6 24.2776 1136.8 24.8228 1136.59 25.2067C1136.36 25.6206 1136.19 25.716 1135.74 25.5589C1135.29 25.4017 1135.39 24.7651 1133.99 24.972C1133.01 25.1152 1132.54 25.8036 1132.58 26.3825C1132.63 27.1107 1133.09 27.2241 1133.35 27.1744C1134.01 27.053 1134.19 26.3965 1134.55 26.4482C1134.88 26.4959 1134.67 26.9854 1134.63 27.3136C1134.56 27.7692 1135.1 27.5763 1135.39 27.9244C1135.67 28.2646 1135.4 29.0783 1136.01 29.2097C1136.7 29.3628 1137.25 28.2965 1137.73 28.4039C1138.11 28.4914 1138.23 29.0445 1138.61 29.15C1139.03 29.2674 1139.45 28.7421 1139.87 28.8834C1140.33 29.0386 1140.29 29.8224 1140.75 29.9577C1140.96 30.0194 1141.19 29.91 1141.4 29.9736C1141.73 30.0731 1141.79 30.4969 1141.95 30.7973C1142.26 31.3763 1143.02 31.5175 1143.66 31.6886C1144.3 31.8577 1145.03 32.2815 1144.99 32.938C1144.96 33.3698 1144.6 33.712 1144.52 34.1397C1144.41 34.6928 1144.8 35.3613 1144.41 35.7791C1144.16 36.0556 1143.45 36.0258 1143.07 36.0516C1142.7 36.0775 1142.24 36.3023 1142.28 36.6763C1142.3 36.9191 1142.54 37.0882 1142.61 37.3249C1142.72 37.685 1142.41 38.0252 1142.13 38.2759C1141.5 38.837 1141.14 39.396 1140.52 39.9571C1140.26 40.1859 1139.98 40.5102 1139.99 40.8225C1140.92 41.0255 1141.86 41.1269 1142.8 41.1269C1144.91 41.1269 1146.98 40.6176 1148.84 39.6407C1150.7 38.6639 1152.29 37.2493 1153.47 35.5224C1153.2 35.405 1153.01 35.0907 1152.98 34.7843C1152.94 34.3944 1153.08 34.0124 1153.16 33.6304C1153.24 33.2484 1153.26 32.8127 1153.03 32.5003C1152.81 32.2039 1152.55 31.8358 1152.5 31.4717C1152.44 31.0878 1152.66 30.8431 1152.41 30.5506C1152.21 30.3377 1151.83 30.4352 1151.62 30.2343C1151.49 30.1049 1151.47 29.8821 1151.32 29.7747C1151.16 29.6613 1150.94 29.7329 1150.78 29.8364C1150.61 29.9398 1150.46 30.0771 1150.27 30.099C1150.02 30.1268 1149.8 29.9597 1149.55 29.9557C1149.14 29.9458 1148.78 30.3875 1148.38 30.3019C1147.97 30.2164 1147.87 29.711 1147.67 29.3589C1147.4 28.9092 1146.85 28.5611 1146.9 28.0438C1146.94 27.6061 1147.42 27.1982 1147.22 26.8063C1147.18 26.7247 1147.11 26.6591 1147.06 26.5815C1146.88 26.2831 1147.06 25.8951 1147.32 25.6623C1147.67 25.352 1147.94 25.348 1148.26 25.2067C1148.42 25.1351 1148.6 25.0297 1148.64 24.8566C1148.66 24.7491 1148.63 24.6377 1148.62 24.5263C1148.6 24.3373 1148.66 24.1523 1148.78 24.0031C1148.89 23.8539 1149.06 23.7504 1149.25 23.7126C1149.84 23.6131 1150.49 24.198 1150.99 23.8757C1151.11 23.7981 1151.19 23.6808 1151.31 23.5932C1151.68 23.2968 1152.32 23.45 1152.51 23.8817C1152.57 24.009 1152.59 24.1503 1152.67 24.2657C1152.8 24.4607 1153.19 24.212 1153.42 24.2577C1153.91 24.3532 1153.73 24.6377 1154.22 24.6377C1154.31 24.6377 1154.48 24.4487 1154.52 24.3711C1154.56 24.2896 1154.63 24.2219 1154.71 24.1702C1154.78 24.1204 1154.87 24.0886 1154.96 24.0826C1154.79 23.5912 1154.58 23.1118 1154.35 22.6462L1154.35 22.6522Z" fill="#4790F2" stroke="black" stroke-width="0.38192" stroke-linecap="round" stroke-linejoin="round"/>
<path d="M1140.32 21.5571L1126.97 26.0335C1126.19 26.2941 1125.77 27.1337 1126.03 27.9096L1131.74 44.6157C1132.01 45.3896 1132.85 45.8054 1133.63 45.5448L1146.99 41.0683C1147.76 40.8077 1148.18 39.9681 1147.92 39.1922L1142.21 22.4862C1141.95 21.7122 1141.1 21.2964 1140.32 21.5571Z" fill="#BD80FF" stroke="black" stroke-width="0.38192" stroke-linecap="round" stroke-linejoin="round"/>
<path d="M1139.88 25.1674L1129.22 28.7406C1128.76 28.8937 1128.52 29.3891 1128.67 29.8447L1129.46 32.1526C1129.62 32.6082 1130.12 32.8529 1130.58 32.6997L1141.23 29.1265C1141.69 28.9733 1141.94 28.4779 1141.78 28.0223L1140.99 25.7145C1140.84 25.2589 1140.34 25.0142 1139.88 25.1674Z" fill="#FCEE70" stroke="black" stroke-width="0.38192" stroke-linecap="round" stroke-linejoin="round"/>
<path d="M1132.62 33.669L1131.55 34.0291C1131.01 34.2121 1130.71 34.7951 1130.9 35.3342L1131.03 35.7361C1131.22 36.2753 1131.81 36.5638 1132.35 36.3827L1133.43 36.0226C1133.97 35.8396 1134.26 35.2566 1134.08 34.7175L1133.94 34.3156C1133.76 33.7764 1133.17 33.488 1132.62 33.669Z" fill="#CFD8DC" stroke="black" stroke-width="0.38192" stroke-linecap="round" stroke-linejoin="round"/>
<path d="M1136.95 32.2182L1135.87 32.5783C1135.33 32.7613 1135.04 33.3443 1135.22 33.8834L1135.36 34.2853C1135.55 34.8245 1136.13 35.113 1136.68 34.9319L1137.75 34.5718C1138.3 34.3888 1138.59 33.8058 1138.41 33.2667L1138.27 32.8648C1138.08 32.3256 1137.5 32.0372 1136.95 32.2182Z" fill="#CFD8DC" stroke="black" stroke-width="0.38192" stroke-linecap="round" stroke-linejoin="round"/>
<path d="M1141.28 30.768L1140.2 31.1281C1139.66 31.3112 1139.37 31.8941 1139.55 32.4333L1139.69 32.8351C1139.87 33.3743 1140.46 33.6628 1141 33.4817L1142.08 33.1216C1142.62 32.9386 1142.91 32.3557 1142.73 31.8165L1142.59 31.4146C1142.41 30.8755 1141.82 30.587 1141.28 30.768Z" fill="#CFD8DC" stroke="black" stroke-width="0.38192" stroke-linecap="round" stroke-linejoin="round"/>
<path d="M1133.75 36.9573L1132.67 37.3174C1132.13 37.5005 1131.84 38.0834 1132.02 38.6226L1132.16 39.0245C1132.34 39.5636 1132.93 39.8521 1133.47 39.6711L1134.55 39.311C1135.09 39.1279 1135.38 38.545 1135.2 38.0058L1135.06 37.6039C1134.88 37.0648 1134.29 36.7743 1133.75 36.9573Z" fill="#CFD8DC" stroke="black" stroke-width="0.38192" stroke-linecap="round" stroke-linejoin="round"/>
<path d="M1138.07 35.5072L1137 35.8673C1136.46 36.0503 1136.16 36.6332 1136.35 37.1724L1136.48 37.5743C1136.67 38.1134 1137.26 38.4019 1137.8 38.2209L1138.88 37.8608C1139.42 37.6777 1139.71 37.0948 1139.53 36.5556L1139.39 36.1538C1139.21 35.6146 1138.62 35.3241 1138.07 35.5072Z" fill="#CFD8DC" stroke="black" stroke-width="0.38192" stroke-linecap="round" stroke-linejoin="round"/>
<path d="M1142.4 34.0568L1141.33 34.4169C1140.78 34.5999 1140.49 35.1829 1140.68 35.722L1140.81 36.1239C1141 36.6631 1141.58 36.9515 1142.13 36.7705L1143.21 36.4104C1143.75 36.2274 1144.04 35.6444 1143.86 35.1053L1143.72 34.7034C1143.54 34.1642 1142.95 33.8737 1142.4 34.0568Z" fill="#CFD8DC" stroke="black" stroke-width="0.38192" stroke-linecap="round" stroke-linejoin="round"/>
<path d="M1134.87 40.2462L1133.79 40.6063C1133.25 40.7894 1132.96 41.3723 1133.14 41.9115L1133.28 42.3134C1133.46 42.8525 1134.05 43.143 1134.6 42.96L1135.67 42.5999C1136.22 42.4168 1136.51 41.8339 1136.32 41.2947L1136.19 40.8928C1136 40.3537 1135.41 40.0652 1134.87 40.2462Z" fill="#CFD8DC" stroke="black" stroke-width="0.38192" stroke-linecap="round" stroke-linejoin="round"/>
<path d="M1139.2 38.7956L1138.12 39.1557C1137.58 39.3388 1137.29 39.9217 1137.47 40.4609L1137.61 40.8628C1137.79 41.4019 1138.38 41.6924 1138.92 41.5094L1140 41.1492C1140.54 40.9662 1140.83 40.3833 1140.65 39.8441L1140.51 39.4422C1140.33 38.9031 1139.74 38.6146 1139.2 38.7956Z" fill="#CFD8DC" stroke="black" stroke-width="0.38192" stroke-linecap="round" stroke-linejoin="round"/>
<path d="M1143.52 37.3457L1142.45 37.7058C1141.91 37.8888 1141.61 38.4717 1141.8 39.0109L1141.93 39.4128C1142.12 39.952 1142.71 40.2424 1143.25 40.0594L1144.33 39.6993C1144.87 39.5162 1145.16 38.9333 1144.98 38.3942L1144.84 37.9923C1144.66 37.4531 1144.07 37.1646 1143.52 37.3457Z" fill="#CFD8DC" stroke="black" stroke-width="0.38192" stroke-linecap="round" stroke-linejoin="round"/>
<path d="M1161.24 26.0469L1149.01 38.1631L1150.2 39.3469L1162.43 27.2307L1161.24 26.0469Z" fill="#F5E644" stroke="#000900" stroke-width="0.38192" stroke-linecap="round" stroke-linejoin="round"/>
<path d="M1162.43 27.2422L1150.2 39.3584L1151.49 40.6317L1163.72 28.5155L1162.43 27.2422Z" fill="#F5E644" stroke="#000900" stroke-width="0.38192" stroke-linecap="round" stroke-linejoin="round"/>
<path d="M1163.72 28.5017L1151.49 40.6199L1152.78 41.8992L1165.01 29.781L1163.72 28.5017H1163.72Z" fill="#F5E644" stroke="#000900" stroke-width="0.38192" stroke-linecap="round" stroke-linejoin="round"/>
<path d="M1166.71 28.0939L1167.35 27.4652C1169.39 25.4478 1165.61 21.7115 1163.58 23.7289L1162.94 24.3575L1166.71 28.0939Z" fill="#FF9FBF" stroke="black" stroke-width="0.38192" stroke-linecap="round" stroke-linejoin="round"/>
<path d="M1147.82 43.0692L1149.88 42.5838L1148.32 41.03L1147.82 43.0692Z" fill="#000900" stroke="#000900" stroke-width="0.38192" stroke-linecap="round" stroke-linejoin="round"/>
<path d="M1151.49 40.6202L1150.2 39.3489L1149.01 38.1652L1148.32 41.0321L1149.88 42.5839L1152.78 41.9015L1151.49 40.6202Z" fill="#FCEB64" stroke="black" stroke-width="0.38192" stroke-linecap="round" stroke-linejoin="round"/>
<path d="M1162.09 25.1972L1161.24 26.0447L1162.43 27.2285L1163.72 28.5018L1165.01 29.7811L1165.86 28.9335L1162.09 25.1972H1162.09Z" fill="#CFD8DC" stroke="#000900" stroke-width="0.38192" stroke-linecap="round" stroke-linejoin="round"/>
<path d="M1166.72 28.0943L1162.94 24.358L1162.1 25.1975L1165.87 28.9339L1166.72 28.0943Z" fill="#90A4AE" stroke="black" stroke-width="0.38192" stroke-linecap="round" stroke-linejoin="round"/>
<path d="M1162.36 42.8302L1171.87 28.5136L1170.46 27.5924L1160.95 41.909L1162.36 42.8302Z" fill="#F5E644" stroke="#000900" stroke-width="0.38192" stroke-linecap="round" stroke-linejoin="round"/>
<path d="M1160.95 41.8974L1170.45 27.5808L1168.94 26.592L1159.43 40.9086L1160.95 41.8974Z" fill="#F5E644" stroke="#000900" stroke-width="0.38192" stroke-linecap="round" stroke-linejoin="round"/>
<path d="M1159.43 40.9201L1168.94 26.6034L1167.41 25.6087L1157.9 39.9253L1159.43 40.9201H1159.43Z" fill="#F5E644" stroke="#000900" stroke-width="0.38192" stroke-linecap="round" stroke-linejoin="round"/>
<path d="M1156.58 41.9211L1156.09 42.6632C1154.51 45.0466 1158.96 47.9493 1160.55 45.5679L1161.04 44.8238L1156.58 41.9211H1156.58Z" fill="#FF9FBF" stroke="black" stroke-width="0.38192" stroke-linecap="round" stroke-linejoin="round"/>
<path d="M1172.03 23.4723L1170.11 24.3616L1171.96 25.5692L1172.03 23.4743V23.4723Z" fill="#000900" stroke="#000900" stroke-width="0.38192" stroke-linecap="round" stroke-linejoin="round"/>
<path d="M1168.94 26.606L1170.46 27.5948L1171.87 28.514L1171.96 25.5675L1170.11 24.3598L1167.41 25.6073L1168.94 26.604V26.606Z" fill="#FFC664" stroke="black" stroke-width="0.38192" stroke-linecap="round" stroke-linejoin="round"/>
<path d="M1161.7 43.8331L1162.36 42.8304L1160.95 41.9113L1159.43 40.9225L1157.91 39.9277L1157.24 40.9304L1161.7 43.8351L1161.7 43.8331Z" fill="#CFD8DC" stroke="#000900" stroke-width="0.38192" stroke-linecap="round" stroke-linejoin="round"/>
<path d="M1156.58 41.9212L1161.04 44.824L1161.7 43.8312L1157.24 40.9265L1156.58 41.9193V41.9212Z" fill="#CFD8DC" stroke="#000900" stroke-width="0.38192" stroke-linecap="round" stroke-linejoin="round"/>
<path d="M1147.44 6.1095C1147.13 6.04584 1146.81 6.01002 1146.49 6.00207C1146.45 6.00207 1146.4 6.00008 1146.36 6.00008C1143.55 6.00008 1141.28 8.14876 1141.28 10.8008C1141.28 14.7699 1146.1 19.9287 1146.35 20.1834H1146.37C1146.44 20.1118 1151.44 14.7679 1151.44 10.8008C1151.44 8.50091 1149.72 6.57903 1147.44 6.11149V6.1095ZM1146.36 13.5225C1145.85 13.5225 1145.35 13.3733 1144.92 13.0907C1144.5 12.8102 1144.17 12.4103 1143.98 11.9428C1143.78 11.4753 1143.73 10.962 1143.83 10.4646C1143.93 9.96918 1144.18 9.51358 1144.54 9.15546C1144.89 8.79735 1145.35 8.55463 1145.85 8.45515C1146.35 8.35568 1146.87 8.4074 1147.34 8.60039C1147.81 8.79337 1148.22 9.12164 1148.5 9.54143C1148.78 9.96122 1148.93 10.4566 1148.93 10.962C1148.93 11.6404 1148.66 12.291 1148.18 12.7704C1147.69 13.2499 1147.04 13.5185 1146.36 13.5185V13.5225Z" fill="#FD483F" stroke="black" stroke-width="0.38192" stroke-linecap="round" stroke-linejoin="round"/>
<path d="M1130.29 36.9732H1171.33V55.3126C1171.33 55.995 1170.77 56.5481 1170.08 56.5481H1130.29V36.9732Z" fill="#FFC664" stroke="black" stroke-width="0.38192" stroke-linecap="round" stroke-linejoin="round"/>
<path d="M1131.52 43.4096C1135.21 44.7028 1139.57 43.7538 1143.32 42.5641C1147.08 41.3744 1150.96 39.922 1155.01 40.2662C1157.6 40.485 1159.96 41.4221 1162.35 42.198C1164.74 42.9739 1167.37 43.6106 1169.91 43.1908" stroke="#FFAE1F" stroke-width="0.38192" stroke-linecap="round" stroke-linejoin="round"/>
<path d="M1132.85 49.4754C1135.46 48.7094 1138.41 49.2028 1141.07 49.8514C1143.74 50.5 1146.45 51.3097 1149.25 51.1466C1150.91 51.0491 1152.5 50.6094 1154.11 50.2632C1159.26 49.153 1164.76 48.9879 1170.01 49.7877" stroke="#FFAE1F" stroke-width="0.38192" stroke-linecap="round" stroke-linejoin="round"/>
<path d="M1132.4 46.2803C1139.09 45.1005 1158.58 47.6471 1170.77 46.5429" stroke="#FFAE1F" stroke-width="0.38192" stroke-linecap="round" stroke-linejoin="round"/>
<path d="M1166.83 38.8495L1136.56 39.0086C1135.72 39.0126 1134.85 39.0226 1134.1 39.2892C1133.34 39.5558 1132.72 40.1606 1132.84 40.7853C1133.06 41.8358 1134.92 42.0665 1136.32 41.9631C1139.59 41.7204 1142.81 41.0618 1145.79 40.0213" stroke="#FFAE1F" stroke-width="0.38192" stroke-linecap="round" stroke-linejoin="round"/>
<path d="M1143.41 44.6411C1146.8 43.6642 1150.33 42.6695 1153.95 42.8644C1158.39 43.1032 1162.56 45.1086 1166.97 44.7406" stroke="#FFAE1F" stroke-width="0.38192" stroke-linecap="round" stroke-linejoin="round"/>
<path d="M1149.68 44.7901C1151.65 44.2669 1153.34 44.3206 1154.74 44.8041" stroke="#FFAE1F" stroke-width="0.38192" stroke-linecap="round" stroke-linejoin="round"/>
<path d="M1141.44 47.6471C1145.65 47.6591 1148.46 49.77 1155.3 48.5922" stroke="#FFAE1F" stroke-width="0.38192" stroke-linecap="round" stroke-linejoin="round"/>
<path d="M1133.73 54.3201C1135.94 55.3706 1138.78 55.2831 1141.33 54.8533C1143.87 54.4236 1146.35 53.6894 1148.95 53.5542C1152.63 53.3652 1156.2 54.3878 1159.77 55.102C1163.33 55.8162 1167.33 56.1943 1170.55 54.8334" stroke="#FFAE1F" stroke-width="0.38192" stroke-linecap="round" stroke-linejoin="round"/>
<path d="M1133.69 51.9246C1145.83 54.1767 1159.14 49.6625 1170.93 52.8219" stroke="#FFAE1F" stroke-width="0.38192" stroke-linecap="round" stroke-linejoin="round"/>
<path d="M1159.29 53.2317C1162.11 53.9519 1165.16 54.1628 1168.11 53.8444" stroke="#FFAE1F" stroke-width="0.38192" stroke-linecap="round" stroke-linejoin="round"/>
<path d="M1161.92 40.3055C1163.42 40.0071 1164.98 40.4647 1166.41 40.9123L1168.94 41.7081" stroke="#FFAE1F" stroke-width="0.38192" stroke-linecap="round" stroke-linejoin="round"/>
<path d="M1117.96 15.7131L1130.29 36.9732H1133.09L1120.76 15.7131H1117.96Z" fill="#FFAE1F" stroke="black" stroke-width="0.38192" stroke-linecap="round" stroke-linejoin="round"/>
<path d="M1117.96 15.7131L1105.64 36.9732V55.2012C1105.64 55.9453 1106.24 56.5481 1107 56.5481H1130.29V36.9732L1117.96 15.7131Z" fill="#FFC664" stroke="black" stroke-width="0.38192" stroke-linecap="round" stroke-linejoin="round"/>
<path d="M1120.95 36.9729C1121.01 31.5932 1118.31 29.6495 1118.55 20.8975" stroke="#FFAE1F" stroke-width="0.38192" stroke-linecap="round" stroke-linejoin="round"/>
<path d="M1119.06 55.5847C1119.09 53.6946 1119.01 52.0951 1118.95 50.6268" stroke="#FFAE1F" stroke-width="0.38192" stroke-linecap="round" stroke-linejoin="round"/>
<path d="M1122.27 48.7691C1122.48 50.0504 1122.64 51.7574 1122.63 54.2403" stroke="#FFAE1F" stroke-width="0.38192" stroke-linecap="round" stroke-linejoin="round"/>
<path d="M1121.28 24.1385C1120.84 26.7308 1121.45 29.5321 1122.04 30.5965C1122.64 31.6609 1123.41 32.6318 1123.76 33.8235C1124.27 35.5663 1123.78 37.341 1123.14 39.0898" stroke="#FFAE1F" stroke-width="0.38192" stroke-linecap="round" stroke-linejoin="round"/>
<path d="M1117.32 35.8208C1117.23 35.0429 1117.07 34.279 1116.79 33.5369C1116.43 32.57 1115.63 31.4538 1114.73 31.7722C1113.25 32.2934 1112.55 34.7942 1112.4 37.5995" stroke="#FFAE1F" stroke-width="0.38192" stroke-linecap="round" stroke-linejoin="round"/>
<path d="M1115.38 55.6407C1115.3 53.9516 1115.23 52.2148 1115.28 50.4938" stroke="#FFAE1F" stroke-width="0.38192" stroke-linecap="round" stroke-linejoin="round"/>
<path d="M1115.78 36.006C1115.68 35.634 1115.52 35.2261 1115.18 35.0988C1114.79 34.9476 1114.36 35.2938 1114.21 35.7215C1114.12 35.9881 1114.1 36.2726 1114.12 36.5591" stroke="#FFAE1F" stroke-width="0.38192" stroke-linecap="round" stroke-linejoin="round"/>
<path d="M1128.27 54.2698C1128.79 52.9249 1128.99 51.4248 1128.81 49.9744C1128.56 47.9909 1127.66 46.1864 1127.14 44.2685C1126.25 41.0096 1126.49 37.5478 1126.9 34.1517" stroke="#FFAE1F" stroke-width="0.38192" stroke-linecap="round" stroke-linejoin="round"/>
<path d="M1126.17 55.316C1127.04 51.6792 1126.82 47.728 1125.53 44.2423C1125.43 43.9678 1125.29 43.6653 1125.03 43.5798C1124.7 43.4684 1124.36 43.8245 1124.29 44.2065C1124.23 44.5885 1124.36 44.9725 1124.47 45.3405C1125.22 47.8195 1125.35 50.5292 1124.83 53.0818" stroke="#FFAE1F" stroke-width="0.38192" stroke-linecap="round" stroke-linejoin="round"/>
<path d="M1124.36 29.8982C1125.21 32.1643 1125.53 34.6771 1125.27 37.1162C1125.13 38.4353 1124.82 39.7265 1124.47 40.9978" stroke="#FFAE1F" stroke-width="0.38192" stroke-linecap="round" stroke-linejoin="round"/>
<path d="M1110.07 40.2039C1109.94 38.4233 1110.18 36.6108 1110.77 34.9495C1111.23 33.6743 1111.88 32.4925 1112.33 31.2172C1112.79 29.9419 1113.03 28.4995 1112.63 27.2023" stroke="#FFAE1F" stroke-width="0.38192" stroke-linecap="round" stroke-linejoin="round"/>
<path d="M1116.22 22.3839C1115.85 28.9991 1118.37 29.4527 1118.84 35.5466" stroke="#FFAE1F" stroke-width="0.38192" stroke-linecap="round" stroke-linejoin="round"/>
<path d="M1110.71 46.9865C1110.92 47.8201 1111.14 48.5742 1111.32 49.1312C1112.06 51.3913 1112.6 53.8623 1111.95 56.1562" stroke="#FFAE1F" stroke-width="0.38192" stroke-linecap="round" stroke-linejoin="round"/>
<path d="M1107.45 55.3821L1107.21 36.8418" stroke="#FFAE1F" stroke-width="0.38192" stroke-linecap="round" stroke-linejoin="round"/>
<path d="M1109.16 55.1331C1109.55 52.5089 1109.41 49.7892 1108.74 47.2347" stroke="#FFAE1F" stroke-width="0.38192" stroke-linecap="round" stroke-linejoin="round"/>
<path d="M1108.75 38.7235C1108.91 37.3169 1108.82 35.6258 1108.78 33.9924" stroke="#FFAE1F" stroke-width="0.38192" stroke-linecap="round" stroke-linejoin="round"/>
<path d="M1108.71 44.9528C1108.67 43.6576 1108.68 42.0461 1108.64 40.7509" stroke="#FFAE1F" stroke-width="0.38192" stroke-linecap="round" stroke-linejoin="round"/>
<path d="M1113.75 49.8271C1114.06 51.6753 1114.13 53.4639 1113.75 55.1411" stroke="#FFAE1F" stroke-width="0.38192" stroke-linecap="round" stroke-linejoin="round"/>
<path d="M1128.8 35.936V41.25" stroke="#FFAE1F" stroke-width="0.38192" stroke-linecap="round" stroke-linejoin="round"/>
<path d="M1114.75 25.1971C1115.07 27.0453 1115.14 28.8339 1114.75 30.5111" stroke="#FFAE1F" stroke-width="0.38192" stroke-linecap="round" stroke-linejoin="round"/>
<path d="M1111.91 43.2363C1111.91 40.0113 1114.38 37.3593 1117.55 37.031C1117.33 37.0091 1117.11 36.9972 1116.89 36.9972C1113.41 36.9972 1110.59 39.7905 1110.59 43.2363C1110.59 46.6822 1113.41 49.4755 1116.89 49.4755C1117.11 49.4755 1117.33 49.4635 1117.55 49.4416C1114.38 49.1154 1111.91 46.4613 1111.91 43.2383V43.2363Z" fill="#FFAE1F" stroke="black" stroke-width="0.38192" stroke-linecap="round" stroke-linejoin="round"/>
<path d="M1123.18 43.2364C1123.18 40.0113 1120.71 37.3593 1117.55 37.031C1114.38 37.3573 1111.91 40.0113 1111.91 43.2364C1111.91 46.4614 1114.38 49.1134 1117.55 49.4397C1120.71 49.1134 1123.18 46.4594 1123.18 43.2364Z" fill="#FFC664" stroke="black" stroke-width="0.38192" stroke-linecap="round" stroke-linejoin="round"/>
<path d="M1120.67 46.5004C1121.14 46.5004 1121.53 46.1183 1121.53 45.6469C1121.53 45.1756 1121.14 44.7934 1120.67 44.7934C1120.19 44.7934 1119.81 45.1756 1119.81 45.6469C1119.81 46.1183 1120.19 46.5004 1120.67 46.5004Z" fill="#FFAE1F" stroke="black" stroke-width="0.318267" stroke-linecap="round" stroke-linejoin="round"/>
<path d="M1116.15 46.5657C1115.68 46.5657 1115.27 46.4543 1114.91 46.2315C1114.54 46.0087 1114.26 45.7043 1114.04 45.3183C1113.83 44.9323 1113.73 44.4946 1113.73 44.0032C1113.73 43.5118 1113.83 43.0781 1114.04 42.6981C1114.26 42.3121 1114.54 42.0117 1114.91 41.7949C1115.27 41.572 1115.68 41.4606 1116.15 41.4606C1116.51 41.4606 1116.84 41.5303 1117.12 41.6675C1117.39 41.8048 1117.62 41.9978 1117.79 42.2465V39.7556L1119.06 39.5348V46.4484H1117.93L1117.79 45.752C1117.63 45.9689 1117.42 46.1579 1117.15 46.321C1116.9 46.4842 1116.56 46.5657 1116.14 46.5657H1116.15ZM1116.41 45.4655C1116.82 45.4655 1117.16 45.3322 1117.41 45.0637C1117.68 44.7891 1117.81 44.4389 1117.81 44.0132C1117.81 43.5874 1117.68 43.2412 1117.41 42.9727C1117.16 42.6981 1116.82 42.5608 1116.41 42.5608C1116 42.5608 1115.68 42.6941 1115.41 42.9627C1115.15 43.2313 1115.02 43.5775 1115.02 44.0032C1115.02 44.429 1115.15 44.7791 1115.41 45.0537C1115.68 45.3283 1116.01 45.4655 1116.41 45.4655Z" fill="#FFAE1F" stroke="black" stroke-width="0.318267" stroke-linecap="round" stroke-linejoin="round"/>
<path d="M1119.99 46.5004C1120.47 46.5004 1120.85 46.1183 1120.85 45.6469C1120.85 45.1756 1120.47 44.7934 1119.99 44.7934C1119.52 44.7934 1119.13 45.1756 1119.13 45.6469C1119.13 46.1183 1119.52 46.5004 1119.99 46.5004Z" fill="#FFC664" stroke="black" stroke-width="0.318267" stroke-linecap="round" stroke-linejoin="round"/>
<path d="M1115.47 46.5657C1115.01 46.5657 1114.59 46.4543 1114.23 46.2315C1113.87 46.0087 1113.58 45.7043 1113.37 45.3183C1113.16 44.9323 1113.05 44.4946 1113.05 44.0032C1113.05 43.5118 1113.16 43.0781 1113.37 42.6981C1113.58 42.3121 1113.87 42.0117 1114.23 41.7949C1114.59 41.572 1115 41.4606 1115.47 41.4606C1115.84 41.4606 1116.16 41.5303 1116.44 41.6675C1116.72 41.8048 1116.94 41.9978 1117.11 42.2465V39.7556L1118.38 39.5348V46.4484H1117.25L1117.11 45.752C1116.95 45.9689 1116.74 46.1579 1116.48 46.321C1116.22 46.4842 1115.88 46.5657 1115.47 46.5657H1115.47ZM1115.74 45.4655C1116.15 45.4655 1116.48 45.3322 1116.74 45.0637C1117 44.7891 1117.13 44.4389 1117.13 44.0132C1117.13 43.5874 1117 43.2412 1116.74 42.9727C1116.48 42.6981 1116.15 42.5608 1115.74 42.5608C1115.33 42.5608 1115 42.6941 1114.74 42.9627C1114.47 43.2313 1114.34 43.5775 1114.34 44.0032C1114.34 44.429 1114.47 44.7791 1114.74 45.0537C1115 45.3283 1115.33 45.4655 1115.74 45.4655Z" fill="#FFC664" stroke="black" stroke-width="0.318267" stroke-linecap="round" stroke-linejoin="round"/>
<path d="M1077.33 25.6548L1076.8 22.7468C1076.4 20.2354 1074.42 18.2527 1071.91 17.8561L1069 17.3274L1071.91 16.7987C1074.42 16.4021 1076.4 14.4194 1076.8 11.908L1077.33 9L1077.86 11.908C1078.25 14.4194 1080.24 16.4021 1082.75 16.7987L1085.65 17.3274L1082.75 17.8561C1080.24 18.2527 1078.25 20.2354 1077.86 22.7468L1077.33 25.6548Z" fill="white" stroke="black" stroke-width="0.642134" stroke-miterlimit="10" stroke-linejoin="round"/>
<path d="M1233.84 45.6816L1233.37 43.1182C1233.03 40.9043 1231.28 39.1565 1229.06 38.8069L1226.5 38.3408L1229.06 37.8747C1231.28 37.5252 1233.03 35.7774 1233.37 33.5635L1233.84 31L1234.31 33.5635C1234.66 35.7774 1236.4 37.5252 1238.62 37.8747L1241.18 38.3408L1238.62 38.8069C1236.4 39.1565 1234.66 40.9043 1234.31 43.1182L1233.84 45.6816Z" fill="#FFC664" stroke="black" stroke-width="0.820248" stroke-miterlimit="10" stroke-linejoin="round"/>
<path d="M1342.5 35L1341.64 30.2857C1341 26.2143 1337.79 23 1333.71 22.3571L1329 21.5L1333.71 20.6428C1337.79 20 1341 16.7857 1341.64 12.7143L1342.5 8L1343.36 12.7143C1344 16.7857 1347.21 20 1351.29 20.6428L1356 21.5L1351.29 22.3571C1347.21 23 1344 26.2143 1343.36 30.2857L1342.5 35Z" fill="white" stroke="black" stroke-width="1.80268" stroke-miterlimit="10" stroke-linejoin="round"/>
</g>
<defs>
<clipPath id="clip0_1565_15656">
<rect width="1440" height="54" fill="white"/>
</clipPath>
</defs>
</svg>
