<svg width="182" height="35" viewBox="0 0 182 35" fill="none" xmlns="http://www.w3.org/2000/svg">
<path d="M25.4514 15.0067C25.3345 14.8894 25.2469 14.7134 25.2469 14.5374C25.2469 14.3614 25.3053 14.1854 25.4514 14.0681L30.2714 9.22815C30.5344 8.96415 30.9433 8.96415 31.2062 9.22815L40.9632 19.0253C41.6643 19.7586 41.6643 20.9319 40.934 21.6653L30.9141 31.7264C30.7973 31.8438 30.622 31.9318 30.4467 31.9318H20.8066C20.5437 31.9318 20.2808 31.7558 20.1932 31.5211C20.1055 31.2571 20.1639 30.9638 20.3684 30.7878L30.3007 20.8146C30.4175 20.6973 30.5051 20.5213 30.5051 20.3453C30.5051 20.1693 30.4467 19.9933 30.3007 19.876L25.4514 15.0067ZM18.8202 19.876C18.937 19.9933 19.0247 20.1693 19.0247 20.3453C19.0247 20.5213 18.9662 20.6973 18.8202 20.8146L14.0001 25.6545C13.7372 25.9185 13.3282 25.9185 13.0653 25.6545L3.30836 15.8574C2.60726 15.124 2.60726 13.9507 3.33757 13.2174L13.3574 3.15626C13.4743 3.03893 13.6496 2.95093 13.8248 2.95093H23.4942C23.7571 2.95093 24.02 3.12692 24.1076 3.36159C24.1953 3.62558 24.1368 3.91891 23.9323 4.09491L14.0001 14.0681C13.8833 14.1854 13.7956 14.3614 13.7956 14.5374C13.7956 14.7134 13.8541 14.8894 14.0001 15.0067L18.8202 19.876ZM53.0279 20.0813C54.0212 20.9906 55.5694 21.5479 57.0593 21.5479C58.1109 21.5479 58.9288 21.0199 58.9288 20.2866C58.9288 18.0573 51.801 18.8493 51.801 14.0974C51.801 11.2521 54.5178 9.49215 57.439 9.49215C59.3378 9.49215 61.4411 10.2255 62.4051 10.9881L60.5647 13.8627C59.8052 13.3054 58.812 12.8654 57.7311 12.8654C56.6503 12.8654 55.7155 13.3054 55.7155 14.0681C55.7155 15.9747 62.8433 15.2121 62.8433 20.3453C62.8433 23.1906 60.0681 24.9212 57.0008 24.9212C54.956 24.9212 52.8234 24.2172 51.0707 22.9559L53.0279 20.0813ZM69.0948 19.436C69.9127 20.58 71.2273 21.2839 72.6587 21.2546C74.8788 21.2546 76.5439 19.5533 76.5439 17.236C76.5439 15.0947 75.0541 13.1881 72.7463 13.1881C71.3149 13.1881 69.9712 13.8627 69.0948 15.0067V19.436ZM65.1511 9.81481H68.9487V10.9881C70.088 10.0495 71.5778 9.49215 73.2429 9.49215C77.245 9.49215 80.4584 12.8361 80.4584 17.2067C80.4584 19.2306 79.7573 21.0493 78.618 22.3986C77.3035 23.9239 75.2294 24.8919 73.0385 24.8919C71.5486 24.8919 70.2633 24.4519 69.0948 23.5426V31.9024H65.1511V9.81481ZM92.231 15.3C92.1142 13.9801 90.9165 12.7188 89.3098 12.7188C87.6739 12.7188 86.3301 13.9801 86.1548 15.3H92.231ZM95.9118 22.2519C94.4804 23.9532 92.1434 24.8919 89.8648 24.8919C85.4537 24.8919 82.1527 21.8413 82.1527 17.2067C82.1527 13.1001 84.9571 9.49215 89.3098 9.49215C93.3703 9.49215 96.2623 12.9241 96.2623 17.06C96.2623 17.4413 96.2331 17.852 96.1747 18.1747H85.9796C86.1841 20.2573 87.8492 21.6653 89.9525 21.6653C91.6176 21.6653 92.9613 20.7266 93.6624 19.964L95.9118 22.2519ZM98.5409 24.5986V9.81481H102.339V10.9881C103.507 10.0201 104.968 9.49215 106.487 9.49215C108.532 9.49215 110.372 10.4015 111.599 11.8681C112.563 13.0121 113.118 14.5081 113.118 17.06V24.5986H109.174V16.7667C109.174 15.3 108.853 14.5374 108.298 13.9801C107.772 13.4521 106.983 13.1588 106.078 13.1588C104.413 13.1588 103.04 14.2147 102.485 14.9774V24.5692H98.5409V24.5986ZM126.614 15.0067C125.767 13.8627 124.394 13.1881 122.963 13.1881C120.655 13.1881 119.165 15.0947 119.165 17.236C119.165 19.5533 120.83 21.2546 123.05 21.2546C124.452 21.2546 125.796 20.58 126.614 19.436V15.0067ZM126.76 24.5986V23.4252C125.533 24.4519 124.16 24.9212 122.67 24.9212C120.479 24.9212 118.435 23.9532 117.12 22.4279C115.893 20.9906 115.221 19.1426 115.25 17.236C115.25 12.8948 118.464 9.52148 122.466 9.52148C124.073 9.52148 125.475 9.99081 126.614 10.9001V2.98026H130.558V24.6279H126.76V24.5986ZM143.002 15.3C142.885 13.9801 141.688 12.7188 140.081 12.7188C138.445 12.7188 137.101 13.9801 136.926 15.3H143.002ZM146.683 22.2519C145.252 23.9532 142.915 24.8919 140.636 24.8919C136.225 24.8919 132.924 21.8413 132.924 17.2067C132.924 13.1001 135.728 9.49215 140.081 9.49215C144.142 9.49215 147.034 12.9241 147.034 17.06C147.034 17.4413 147.004 17.852 146.946 18.1747H136.751C136.955 20.2573 138.62 21.6653 140.724 21.6653C142.389 21.6653 143.733 20.7266 144.434 19.964L146.683 22.2519ZM150.744 20.0813C151.737 20.9906 153.285 21.5479 154.775 21.5479C155.826 21.5479 156.644 21.0199 156.644 20.2866C156.644 18.0573 149.517 18.8493 149.517 14.0974C149.517 11.2521 152.233 9.49215 155.155 9.49215C157.053 9.49215 159.157 10.2255 160.121 10.9881L158.28 13.8627C157.521 13.3054 156.528 12.8654 155.447 12.8654C154.366 12.8654 153.431 13.3054 153.431 14.0681C153.431 15.9747 160.559 15.2121 160.559 20.3453C160.559 23.1906 157.784 24.9212 154.716 24.9212C152.672 24.9212 150.539 24.2172 148.786 22.9559L150.744 20.0813ZM169.936 16.4734L178.028 24.5986H172.711L166.489 18.204V24.5986H162.545V2.95093H166.489V14.5961L171.543 9.81481H177.093L169.936 16.4734Z" fill="#6000D7"/>
</svg>
