<svg width="66" height="29" viewBox="0 0 66 29" fill="none" xmlns="http://www.w3.org/2000/svg">
<g clip-path="url(#clip0_2412_10782)">
<path d="M21.0436 9.38351L13.2638 27.9193H7.74581L0 9.38351H5.51794L10.6245 21.9934L15.9025 9.38351H21.0436ZM33.2095 28.195C31.2674 28.195 29.5251 27.7873 27.9827 26.9719C26.487 26.1999 25.2349 25.0239 24.3672 23.5762C23.4991 22.1298 23.0651 20.4879 23.0651 18.6505C23.0651 16.8131 23.4994 15.171 24.368 13.7242C25.2359 12.2771 26.4879 11.1017 27.9835 10.3301C29.5257 9.51456 31.268 9.1069 33.2103 9.10707C35.1526 9.10725 36.8891 9.51492 38.4198 10.3301C39.9083 11.1055 41.154 12.2803 42.0186 13.7242C42.8868 15.1712 43.321 16.8134 43.321 18.651C43.321 20.4886 42.8868 22.131 42.0186 23.578C41.1543 25.0225 39.9087 26.1979 38.42 26.9738C36.889 27.7879 35.1525 28.195 33.2103 28.195H33.2095ZM33.2095 23.785C34.5804 23.785 35.7057 23.3198 36.5854 22.3895C37.465 21.4592 37.9049 20.2131 37.9049 18.6513C37.9049 17.0892 37.465 15.843 36.5854 14.9125C35.7057 13.982 34.5804 13.5171 33.2095 13.5178C31.8386 13.5178 30.7076 13.983 29.8165 14.9133C28.9254 15.8436 28.4799 17.0898 28.4799 18.6521C28.4799 20.2141 28.9254 21.4602 29.8165 22.3903C30.7076 23.3204 31.8389 23.7853 33.2103 23.785H33.2095ZM48.598 9.38351H53.9444V27.9193H48.5988L48.598 9.38351ZM51.2713 6.79955C50.2891 6.79955 49.4893 6.51241 48.8722 5.93814C48.5742 5.67 48.3374 5.34035 48.1778 4.97172C48.0183 4.6031 47.9398 4.20419 47.9477 3.80226C47.9398 3.40023 48.0184 3.00123 48.1781 2.63255C48.3378 2.26387 48.5748 1.93422 48.873 1.66612C49.49 1.09167 50.2897 0.804443 51.2721 0.804443C52.2545 0.804443 53.0542 1.08008 53.6712 1.63136C53.9678 1.88582 54.2046 2.20318 54.3645 2.56061C54.5245 2.91803 54.6037 3.30666 54.5965 3.69853C54.608 4.11375 54.5314 4.52668 54.3719 4.90986C54.2123 5.29303 53.9735 5.63768 53.6712 5.9209C53.0542 6.50702 52.2545 6.80008 51.2721 6.80008L51.2713 6.79955ZM62.6505 28.195C62.2117 28.2051 61.7755 28.1247 61.3688 27.9588C60.962 27.7929 60.5934 27.545 60.2857 27.2303C59.9703 26.9155 59.7225 26.5391 59.5573 26.1243C59.3921 25.7096 59.3132 25.2652 59.3254 24.8186C59.3254 23.8311 59.6452 23.033 60.2849 22.424C60.9338 21.8362 61.7763 21.5109 62.6497 21.5109C63.5232 21.5109 64.3657 21.8362 65.0146 22.424C65.6553 23.0326 65.9757 23.8308 65.9757 24.8186C65.988 25.2651 65.9091 25.7095 65.7441 26.1242C65.5791 26.539 65.3314 26.9154 65.0162 27.2303C64.7085 27.5449 64.34 27.7927 63.9334 27.9586C63.5269 28.1245 63.0908 28.2049 62.6521 28.195H62.6505Z" fill="#F46C63"/>
</g>
<defs>
<clipPath id="clip0_2412_10782">
<rect width="66" height="28" fill="white" transform="translate(0 0.5)"/>
</clipPath>
</defs>
</svg>
